<?xml version="1.0" encoding="utf-8"?>
<!-- Generator: Adobe Illustrator 24.1.2, SVG Export Plug-In . SVG Version: 6.00 Build 0)  -->
<svg version="1.1" xmlns="http://www.w3.org/2000/svg" xmlns:xlink="http://www.w3.org/1999/xlink" x="0px" y="0px"
	 viewBox="0 0 23 23" style="enable-background:new 0 0 23 23;" xml:space="preserve">
<style type="text/css">
	.st0{display:none;}
	.st1{display:inline;}
	.st2{fill:#020203;}
	.st3{display:inline;fill:#020203;}
	.st4{fill:#010202;}
	.st5{display:inline;fill:#2D2D2D;}
	.st6{fill:#2D2D2D;}
	.st7{display:inline;fill:#E0E0E0;}
	.st8{fill:#E0E0E0;}
	.st9{display:inline;fill:#010202;}
	.st10{fill:#FFFFFF;}
	.st11{display:inline;fill:#FFFFFF;}
	.st12{fill-rule:evenodd;clip-rule:evenodd;fill:#020203;}
	.st13{fill:#29282D;}
</style>
<g id="Planning_de_la_semaine" class="st0">
	<g class="st1">
		<path class="st2" d="M17.9,3.5V3c0-0.9-0.7-1.5-1.5-1.5c-0.8,0-1.5,0.7-1.5,1.5v0.4H8.1V3c0-0.9-0.7-1.5-1.5-1.5
			C5.7,1.5,5,2.2,5,3v0.5C3.1,3.7,1.7,5.3,1.7,7.2v10.5c0,2.1,1.7,3.8,3.8,3.8h12c2.1,0,3.7-1.7,3.7-3.8V7.2
			C21.3,5.3,19.8,3.7,17.9,3.5z M15.9,3c0-0.3,0.2-0.6,0.5-0.6c0.3,0,0.6,0.3,0.6,0.6v1.9c0,0.3-0.3,0.5-0.6,0.5
			c-0.3,0-0.5-0.2-0.5-0.5c0,0,0,0,0,0L15.9,3z M6,3c0-0.3,0.2-0.6,0.5-0.6c0.3,0,0.6,0.3,0.6,0.6v1.9c0,0.3-0.3,0.5-0.6,0.5
			C6.3,5.5,6,5.2,6,4.9c0,0,0,0,0,0L6,3z M5,4.5v0.4c0,0.8,0.7,1.5,1.5,1.5c0,0,0,0,0,0c0.8,0,1.5-0.7,1.5-1.5V4.5h6.8v0.5
			c0,0.8,0.7,1.5,1.5,1.5c0,0,0,0,0,0c0.8,0,1.5-0.7,1.5-1.5V4.5c1.4,0.2,2.4,1.4,2.4,2.8v0.6H2.7V7.2C2.7,5.9,3.7,4.7,5,4.5z
			 M17.5,20.5h-12c-1.5,0-2.8-1.3-2.8-2.8V8.8h17.6v8.9C20.3,19.3,19.1,20.5,17.5,20.5z"/>
		<path class="st2" d="M6.9,11H5.1c-0.3,0-0.5,0.2-0.5,0.5S4.8,12,5.1,12h1.8c0.3,0,0.5-0.2,0.5-0.5S7.2,11,6.9,11z"/>
		<path class="st2" d="M6.9,14.2H5.1c-0.3,0-0.5,0.2-0.5,0.5c0,0.3,0.2,0.5,0.5,0.5h1.8c0.3,0,0.5-0.2,0.5-0.5
			C7.4,14.4,7.2,14.2,6.9,14.2z"/>
		<path class="st2" d="M6.9,17.4H5.1c-0.3,0-0.5,0.2-0.5,0.5s0.2,0.5,0.5,0.5h1.8c0.3,0,0.5-0.2,0.5-0.5S7.2,17.4,6.9,17.4z"/>
		<path class="st2" d="M12.6,11h-1.8c-0.3,0-0.5,0.2-0.5,0.5s0.2,0.5,0.5,0.5h1.8c0.3,0,0.5-0.2,0.5-0.5S12.8,11,12.6,11z"/>
		<path class="st2" d="M12.6,14.2h-1.8c-0.3,0-0.5,0.2-0.5,0.5c0,0.3,0.2,0.5,0.5,0.5h1.8c0.3,0,0.5-0.2,0.5-0.5
			C13.1,14.4,12.8,14.2,12.6,14.2z"/>
		<path class="st2" d="M12.6,17.4h-1.8c-0.3,0-0.5,0.2-0.5,0.5s0.2,0.5,0.5,0.5h1.8c0.3,0,0.5-0.2,0.5-0.5S12.8,17.4,12.6,17.4z"/>
		<path class="st2" d="M18.2,11h-1.8c-0.3,0-0.5,0.2-0.5,0.5s0.2,0.5,0.5,0.5h1.8c0.3,0,0.5-0.2,0.5-0.5S18.5,11,18.2,11z"/>
		<path class="st2" d="M18.2,14.2h-1.8c-0.3,0-0.5,0.2-0.5,0.5c0,0.3,0.2,0.5,0.5,0.5h1.8c0.3,0,0.5-0.2,0.5-0.5
			C18.7,14.4,18.5,14.2,18.2,14.2z"/>
		<path class="st2" d="M18.2,17.4h-1.8c-0.3,0-0.5,0.2-0.5,0.5s0.2,0.5,0.5,0.5h1.8c0.3,0,0.5-0.2,0.5-0.5S18.5,17.4,18.2,17.4z"/>
	</g>
</g>
<g id="Fil_d_x27_actualités" class="st0">
	<g class="st1">
		<path class="st2" d="M11.5,21.5c1.3,0,2.4-1.1,2.5-2.4l-1,0c0,0.8-0.7,1.5-1.5,1.5c-0.7,0-1.4-0.7-1.5-1.5l-1,0
			C9.1,20.4,10.2,21.5,11.5,21.5z"/>
		<path class="st2" d="M16.8,9c0-2.2-1.3-4.1-3.2-5c0-0.1,0-0.2,0-0.3c0-1.2-1-2.2-2.2-2.2c-1.2,0-2.2,1-2.2,2.2c0,0.1,0,0.2,0,0.3
			C7.4,4.9,6.2,6.9,6.2,9c0,2.6-0.7,4.2-2.7,6.1c-0.8,0.8-0.7,1.5-0.5,1.9c0.3,0.8,1.2,1.2,2.4,1.2h12.3c1.2,0,2.1-0.5,2.4-1.2
			c0.1-0.3,0.3-1.1-0.5-1.9C17.5,13.2,16.8,11.6,16.8,9z M19.1,16.7c-0.1,0.3-0.6,0.6-1.5,0.6H5.3c-0.9,0-1.4-0.3-1.5-0.6
			C3.7,16.4,4,16,4.2,15.9c2.1-2.1,3-4,3-6.8c0-1.9,1.2-3.6,2.9-4.3l0.4-0.2l-0.1-0.4c0-0.1-0.1-0.3-0.1-0.4c0-0.7,0.5-1.2,1.2-1.2
			c0.7,0,1.2,0.5,1.2,1.2c0,0.1,0,0.3-0.1,0.4l-0.1,0.4l0.4,0.2c1.8,0.6,2.9,2.4,2.9,4.3c0,2.8,0.8,4.7,3,6.8
			C19,16,19.3,16.4,19.1,16.7z"/>
		<path class="st2" d="M18.7,7.1l0.9-0.4c-0.5-1.2-1.2-2.2-2-3.1c-0.5-0.5-1-0.9-1.6-1.3l-0.5,0.8c0.5,0.3,1,0.7,1.4,1.2
			C17.6,5.1,18.3,6.1,18.7,7.1z"/>
		<path class="st2" d="M7.5,3.2L7,2.3c-1.6,1-2.8,2.6-3.6,4.4l0.9,0.4C5,5.5,6.1,4.1,7.5,3.2z"/>
	</g>
</g>
<g id="Plan_du_camping" class="st0">
	<path class="st3" d="M20,7.1l-1.5-0.2c-0.1,0.3-0.1,0.6-0.2,0.9l1.6,0.3c0.4,0.1,0.8,0.5,0.8,0.9v10.9c0,0.1,0,0.1-0.1,0.2
		c0,0-0.1,0.1-0.1,0.1c0,0,0,0-0.1,0l-5-1.2v-6c0,0-0.1,0.1-0.1,0.1l-0.8,1v4.9l-5.8,1.3V8L10,7.8C9.9,7.5,9.8,7.2,9.8,6.9L8.2,7.2
		L3,5.5C2.6,5.4,2.3,5.4,2,5.6C1.7,5.9,1.5,6.2,1.5,6.6v10.7c0,0.7,0.4,1.4,1.1,1.7L8,21.1c0,0,0,0,0,0c0,0,0,0,0.1,0c0,0,0,0,0,0
		c0,0,0.1,0,0.1,0c0,0,0.1,0,0.1,0l6.6-1.5l5.3,1.3c0.1,0,0.2,0,0.3,0c0.3,0,0.5-0.1,0.7-0.2c0.3-0.2,0.4-0.5,0.4-0.9V8.8
		C21.5,7.9,20.9,7.2,20,7.1z M7.7,20L3,18.1c-0.4-0.1-0.6-0.5-0.6-0.8V6.6c0-0.1,0-0.1,0.1-0.2c0,0,0.1,0,0.1,0c0,0,0.1,0,0.1,0
		l5,1.6V20z"/>
	<path class="st3" d="M14.1,12.5L14.1,12.5c-0.1,0-0.3-0.1-0.3-0.2c-1.6-1.9-4.9-6.7-2.3-9.4c0.7-0.7,1.7-1.1,2.7-1.1
		s1.9,0.4,2.7,1.1c2.6,2.6-0.7,7.4-2.3,9.4C14.4,12.5,14.3,12.5,14.1,12.5z M14.1,2.8c-0.8,0-1.5,0.3-2,0.8c-2,2,0.7,6,2,7.7
		c1.3-1.7,4-5.7,2-7.7C15.6,3.1,14.9,2.8,14.1,2.8z M14.1,7.6c-0.5,0-1-0.2-1.4-0.6c-0.8-0.8-0.8-2.1,0-2.9c0.4-0.4,0.9-0.6,1.4-0.6
		c0.5,0,1,0.2,1.4,0.6c0.4,0.4,0.6,0.9,0.6,1.4s-0.2,1-0.6,1.4C15.2,7.4,14.7,7.6,14.1,7.6z M14.1,4.5c-0.3,0-0.6,0.1-0.8,0.3
		c-0.4,0.4-0.4,1.2,0,1.6c0.2,0.2,0.5,0.3,0.8,0.3s0.6-0.1,0.8-0.3c0.2-0.2,0.3-0.5,0.3-0.8c0-0.3-0.1-0.6-0.3-0.8
		C14.7,4.6,14.4,4.5,14.1,4.5z"/>
</g>
<g id="Infos_pratiques" class="st0">
	<g transform="translate(0,-952.36218)" class="st1">
		<path class="st2" d="M11.5,953.9c-5.5,0-10,4.5-10,10s4.5,10,10,10s10-4.5,10-10S17,953.9,11.5,953.9z M11.5,954.8
			c5,0,9.1,4.1,9.1,9.1s-4.1,9.1-9.1,9.1s-9.1-4.1-9.1-9.1S6.5,954.8,11.5,954.8z M11.5,956.4c-0.2,0-0.4,0.2-0.4,0.5v7c0,0,0,0,0,0
			c0,0.3,0.2,0.5,0.5,0.4c0.2,0,0.3-0.1,0.4-0.2c0,0,0,0,0,0l2.7-4.5c0.1-0.2,0.1-0.5-0.2-0.6c-0.2-0.1-0.5-0.1-0.6,0.2l-1.9,3.1
			v-5.4C12,956.6,11.8,956.4,11.5,956.4C11.5,956.4,11.5,956.4,11.5,956.4z M4.4,963.4c-0.3,0-0.4,0.2-0.4,0.5
			c0,0.3,0.2,0.4,0.5,0.4h1.1c0.3,0,0.5-0.2,0.5-0.4s-0.2-0.5-0.4-0.5c0,0,0,0,0,0H4.4C4.4,963.4,4.4,963.4,4.4,963.4z M17.4,963.4
			c-0.3,0-0.4,0.2-0.4,0.5s0.2,0.4,0.5,0.4h1.1c0.3,0,0.5-0.2,0.5-0.4c0-0.3-0.2-0.5-0.4-0.5c0,0,0,0,0,0H17.4
			C17.4,963.4,17.4,963.4,17.4,963.4z M11.5,969.3c-0.2,0-0.4,0.2-0.4,0.5v1.1c0,0.3,0.2,0.5,0.4,0.5c0.3,0,0.5-0.2,0.5-0.4
			c0,0,0,0,0,0v-1.1C12,969.5,11.8,969.3,11.5,969.3C11.5,969.3,11.5,969.3,11.5,969.3z"/>
	</g>
</g>
<g id="Equipe" class="st0">
	<g class="st1">
		<g>
			<g>
				<g>
					<path class="st2" d="M19,8.1c0,0.1,0,0.2,0,0.3c0,0.1,0,0.1,0,0.2c0,0,0,0.1,0,0c0,0,0,0.1,0,0.1c0,0.2-0.1,0.4-0.1,0.5
						c0,0.1-0.1,0.2-0.1,0.3c0,0.1,0-0.1,0,0c0,0,0,0,0,0.1c0,0,0,0.1-0.1,0.1c-0.1,0.2-0.2,0.3-0.3,0.5c0,0,0,0.1-0.1,0.1
						c0-0.1,0,0,0,0c0,0,0,0,0,0.1c-0.1,0.1-0.1,0.1-0.2,0.2c-0.1,0.1-0.1,0.1-0.2,0.2c0,0-0.1,0.1-0.1,0.1c0,0,0,0,0,0
						c0,0-0.1,0.1,0,0c-0.1,0.1-0.3,0.2-0.5,0.3c-0.1,0-0.2,0.1-0.2,0.1c0,0-0.1,0-0.1,0c0,0-0.1,0-0.1,0.1
						c-0.2,0.1-0.4,0.1-0.6,0.2c0,0-0.1,0-0.1,0c0,0-0.1,0-0.1,0c0,0,0.1,0,0,0c-0.1,0-0.2,0-0.3,0c-0.2,0-0.4,0-0.6,0
						c-0.1,0,0,0,0,0c0,0-0.1,0-0.1,0c0,0-0.1,0-0.1,0c-0.1,0-0.2,0-0.3-0.1c-0.1,0-0.2-0.1-0.3-0.1c0,0-0.1,0-0.1,0c-0.1,0,0,0,0,0
						c0,0-0.1,0-0.1,0c-0.2-0.1-0.3-0.2-0.5-0.3c-0.1,0-0.1-0.1-0.2-0.2c0.1,0,0,0-0.1,0c0,0-0.1-0.1-0.1-0.1
						c-0.1-0.1-0.3-0.3-0.4-0.4c0,0-0.1-0.1,0-0.1c0,0,0-0.1-0.1-0.1c-0.1-0.1-0.1-0.2-0.2-0.2c0-0.1-0.1-0.2-0.1-0.2
						c0,0,0-0.1-0.1-0.1c0,0,0,0,0-0.1c0-0.1,0,0,0,0c-0.1-0.2-0.1-0.3-0.2-0.5c0-0.1,0-0.2-0.1-0.3c0,0,0-0.1,0-0.1
						c0-0.1,0,0.1,0,0c0-0.1,0-0.1,0-0.2c0-0.2,0-0.4,0-0.6c0,0,0-0.1,0-0.1c0-0.1,0,0,0,0c0,0,0-0.1,0-0.1c0-0.1,0-0.2,0.1-0.3
						c0-0.2,0.1-0.4,0.2-0.5c0,0.1,0,0,0-0.1c0,0,0-0.1,0.1-0.1c0-0.1,0.1-0.2,0.1-0.2c0-0.1,0.1-0.2,0.1-0.2c0,0,0.1-0.1,0.1-0.1
						c0,0.1,0-0.1,0.1-0.1c0.1-0.1,0.3-0.3,0.4-0.4c0,0,0.1-0.1,0.1-0.1c0,0,0,0,0.1,0c0,0,0.1,0,0,0c0.1-0.1,0.1-0.1,0.2-0.2
						C13.8,5.1,14,5,14.2,4.9c0,0,0,0,0.1,0c0.1,0,0,0,0,0c0,0,0.1,0,0.1,0c0.1,0,0.2-0.1,0.3-0.1c0.1,0,0.2,0,0.3-0.1
						c0,0,0.1,0,0.1,0c0,0,0,0,0.1,0c0.1,0,0,0,0,0c0.2,0,0.4,0,0.6,0c0.1,0,0.2,0,0.3,0c0,0,0.1,0,0,0c0,0,0,0,0.1,0
						c0.1,0,0.1,0,0.2,0c0.2,0,0.4,0.1,0.5,0.2c0,0,0.1,0,0.1,0.1c-0.1,0,0,0,0.1,0c0.1,0,0.2,0.1,0.3,0.1c0.1,0,0.2,0.1,0.2,0.1
						c0,0,0.1,0,0.1,0.1c0,0,0,0,0.1,0c0,0,0.1,0.1,0,0c0,0,0,0,0,0c0,0,0,0,0,0c0,0,0.1,0.1,0.1,0.1c0.1,0.1,0.1,0.1,0.2,0.2
						c0.1,0.1,0.1,0.1,0.2,0.2c0,0,0,0,0,0c0,0,0.1,0.1,0,0c0,0,0,0,0,0c0,0,0,0,0.1,0.1c0.1,0.1,0.2,0.3,0.3,0.5c0,0,0,0.1,0.1,0.1
						c0,0,0,0.1,0,0.1c0,0.1,0.1,0.2,0.1,0.3C18.9,7.2,19,7.4,19,7.6c0,0,0,0.1,0,0.1c0,0,0-0.1,0,0c0,0,0,0.1,0,0.1
						C19,7.9,19,8,19,8.1c0,0.2,0.2,0.3,0.3,0.3c0.2,0,0.3-0.1,0.3-0.3c0-0.8-0.3-1.7-0.8-2.4c-0.5-0.7-1.2-1.2-2-1.5
						c-1.6-0.6-3.5-0.1-4.6,1.2c-0.5,0.7-0.9,1.5-0.9,2.3c-0.1,0.9,0.1,1.7,0.6,2.5c0.4,0.7,1.1,1.3,1.8,1.6
						c0.8,0.4,1.7,0.5,2.6,0.3c1.6-0.3,3-1.7,3.2-3.4c0-0.2,0.1-0.4,0.1-0.7c0-0.2-0.2-0.3-0.3-0.3C19.2,7.8,19,7.9,19,8.1z"/>
					<path class="st4" d="M15.6,12.3c-0.6,0-1.2-0.1-1.8-0.4c-0.7-0.3-1.4-0.9-1.8-1.6c-0.5-0.7-0.7-1.6-0.6-2.5
						c0.1-0.9,0.4-1.7,1-2.4c1.1-1.3,3-1.9,4.6-1.3c0.8,0.3,1.5,0.8,2,1.5c0.5,0.7,0.8,1.5,0.8,2.4c0,0,0,0,0,0c0,0.2,0,0.4-0.1,0.7
						c-0.3,1.7-1.6,3.1-3.3,3.4C16.2,12.3,15.9,12.3,15.6,12.3z M15.6,4c-1.2,0-2.4,0.5-3.1,1.5c-0.5,0.7-0.9,1.5-0.9,2.3
						c-0.1,0.8,0.1,1.7,0.6,2.4c0.4,0.7,1.1,1.3,1.8,1.6c0.8,0.4,1.7,0.5,2.5,0.3c1.6-0.3,2.9-1.7,3.2-3.3c0-0.1,0-0.2,0-0.3
						c-0.1,0.1-0.2,0.1-0.2,0.1c0,0,0,0,0,0c-0.1,0-0.2,0-0.3-0.1c0,0,0,0.1,0,0.1v0c0,0,0,0,0,0l0,0.1C19,8.9,19,9,18.9,9.2
						c0,0.1,0,0.1-0.1,0.2l0,0l0,0.1c0,0,0,0,0,0l0,0c0,0,0,0,0,0l0,0c0,0,0,0.1-0.1,0.1c-0.1,0.2-0.2,0.3-0.3,0.5
						c0,0,0,0.1-0.1,0.1v0c0,0,0,0,0,0l0,0c0,0,0,0,0,0c-0.1,0.1-0.1,0.1-0.2,0.2c-0.1,0.1-0.1,0.1-0.2,0.2c0,0,0,0-0.1,0.1
						l-0.1,0.1c0,0,0,0,0,0v0h0l0,0c0,0,0,0,0,0c0,0,0,0,0,0c-0.2,0.1-0.3,0.2-0.5,0.3c-0.1,0-0.2,0.1-0.2,0.1c0,0,0,0-0.1,0l0,0
						c0,0,0,0,0,0l-0.1,0.1c-0.2,0.1-0.4,0.1-0.6,0.2c0,0-0.1,0-0.1,0c0,0,0,0-0.1,0l0,0h0c0,0,0,0,0,0l0,0h0c-0.1,0-0.2,0-0.3,0
						c-0.2,0-0.3,0-0.5,0l0,0l-0.1,0c0,0,0,0,0,0l0,0c0,0-0.1,0-0.1,0c-0.1,0-0.2,0-0.3-0.1c-0.1,0-0.2-0.1-0.3-0.1c0,0,0,0,0,0l0,0
						l-0.2-0.1l0,0l0,0c-0.2-0.1-0.3-0.2-0.5-0.3c-0.1-0.1-0.2-0.1-0.2-0.2l0,0c0,0,0,0-0.1,0c0,0-0.1-0.1-0.1-0.1
						c-0.1-0.1-0.3-0.3-0.4-0.4c0,0,0,0,0-0.1l0,0c0,0,0-0.1-0.1-0.1l0,0c-0.1-0.1-0.1-0.2-0.2-0.3c0-0.1-0.1-0.2-0.1-0.2
						c0,0,0-0.1-0.1-0.1l0,0l0,0l0-0.1c0,0,0,0,0,0c-0.1-0.2-0.1-0.4-0.2-0.5c0-0.1,0-0.2-0.1-0.3l0,0l0-0.1c0,0,0,0,0,0l0,0l0-0.2
						c0-0.2,0-0.4,0-0.6l0-0.1c0,0,0,0,0,0c0,0,0,0,0,0l0,0c0,0,0,0,0,0c0,0,0,0,0,0c0-0.1,0-0.2,0.1-0.3c0-0.2,0.1-0.4,0.2-0.6l0,0
						l0,0l0,0l0-0.1c0,0,0-0.1,0.1-0.1c0-0.1,0.1-0.2,0.1-0.3c0-0.1,0.1-0.2,0.1-0.2c0,0,0.1-0.1,0.1-0.1l0,0h0v0l0,0
						c0,0,0-0.1,0-0.1c0.1-0.1,0.2-0.3,0.4-0.4c0,0,0.1-0.1,0.1-0.1l0.1,0c0,0,0,0,0,0v0c0.1-0.1,0.1-0.1,0.2-0.2
						C13.8,5.1,14,5,14.1,4.9v0l0.1,0c0,0,0,0,0,0l0,0c0,0,0,0,0.1,0c0.1,0,0.2-0.1,0.3-0.1c0.1,0,0.2,0,0.3-0.1c0,0,0.1,0,0.1,0v0
						l0.1,0c0,0,0,0,0,0c0.2,0,0.4,0,0.6,0c0.1,0,0.2,0,0.3,0l0,0v0c0,0,0,0,0,0l0,0c0,0,0,0,0,0l0,0c0.1,0,0.1,0,0.2,0
						c0.2,0,0.4,0.1,0.6,0.2l0.1,0v0l0,0c0,0,0,0,0,0l0,0c0,0,0.1,0,0.1,0c0.1,0,0.2,0.1,0.3,0.1c0.1,0,0.2,0.1,0.2,0.1l0,0
						c0,0,0,0,0.1,0l0.1,0c0,0,0,0,0,0c0,0,0,0,0,0c0,0,0,0,0,0l0,0c0,0,0.1,0,0.1,0.1c0.1,0.1,0.1,0.1,0.2,0.2
						c0.1,0.1,0.1,0.1,0.2,0.2l0,0l0,0L18.4,6l0,0c0,0,0,0,0,0l0,0l0.1,0.1c0.1,0.2,0.2,0.3,0.3,0.5c0,0,0,0.1,0.1,0.1l0,0
						c0,0,0,0,0,0l0,0c0,0.1,0.1,0.2,0.1,0.3C19,7.2,19,7.4,19.1,7.6c0,0,0,0,0,0.1v0c0,0,0,0,0,0h0v0l0,0.1
						c0.1-0.1,0.2-0.1,0.3-0.1c0.1,0,0.2,0,0.3,0.1c-0.1-0.7-0.3-1.4-0.7-2c-0.5-0.7-1.2-1.2-1.9-1.5C16.5,4.1,16.1,4,15.6,4z
						 M15.1,11.4C15.1,11.4,15.1,11.5,15.1,11.4c0.2,0,0.4,0,0.6,0c0.1,0,0.2,0,0.3,0h0c0,0,0,0,0,0c0,0,0,0,0,0c0,0,0.1,0,0.1,0
						c0.2,0,0.4-0.1,0.5-0.2l0.1,0c0,0,0.1,0,0.1,0c0.1,0,0.2-0.1,0.2-0.1c0.1-0.1,0.3-0.2,0.4-0.3l0.1-0.1c0,0,0,0,0.1-0.1
						c0.1-0.1,0.1-0.1,0.2-0.2c0.1-0.1,0.1-0.1,0.2-0.2c0,0,0,0,0,0l0,0c0,0,0,0,0,0l0,0c0,0,0,0,0,0c0.1-0.1,0.2-0.3,0.3-0.5
						c0,0,0-0.1,0.1-0.1l0,0c0,0,0,0,0,0l0,0c0-0.1,0.1-0.2,0.1-0.2c0.1-0.2,0.1-0.3,0.1-0.5l0-0.1c0,0,0,0,0,0c0,0,0-0.1,0-0.2
						c0-0.1,0-0.2,0-0.3C19,8,19,8,19,7.9l0-0.2c0,0,0,0,0,0c0,0,0,0,0,0c0-0.2-0.1-0.4-0.1-0.5c0-0.1-0.1-0.2-0.1-0.3v0
						c0,0,0,0,0,0c0,0,0,0,0,0l0,0c0,0,0-0.1-0.1-0.1c-0.1-0.2-0.2-0.3-0.3-0.5l-0.1-0.1c0,0,0,0,0-0.1l0,0
						c-0.1-0.1-0.1-0.1-0.2-0.2c-0.1-0.1-0.1-0.1-0.2-0.2c0,0,0,0-0.1-0.1l0,0c0,0,0,0,0,0l0,0l0,0c0,0,0,0,0,0l0,0c0,0,0,0,0,0
						l-0.1,0c0,0,0,0-0.1,0l0,0c-0.1,0-0.1-0.1-0.2-0.1C17.1,5.1,17,5,17,5c0,0,0,0-0.1,0c0,0,0,0,0,0l-0.1-0.1
						c-0.2-0.1-0.3-0.1-0.5-0.2c-0.1,0-0.1,0-0.2,0c0,0,0,0,0,0l0,0c0,0,0,0,0,0c-0.1,0-0.2,0-0.3,0c-0.2,0-0.4,0-0.6,0c0,0,0,0,0,0
						l-0.1,0c0,0-0.1,0-0.1,0c-0.1,0-0.2,0-0.2,0.1c-0.1,0-0.2,0.1-0.3,0.1l-0.1,0c0,0,0,0-0.1,0l0,0c0,0,0,0,0,0c0,0,0,0,0,0l0,0
						c-0.2,0.1-0.3,0.2-0.5,0.3c-0.1,0-0.1,0.1-0.2,0.1l0,0c0,0,0,0,0,0l-0.1,0c0,0-0.1,0-0.1,0.1C13.2,5.7,13.1,5.8,13,6
						c0,0,0,0,0,0.1c0,0,0,0,0,0c0,0,0,0.1-0.1,0.1c-0.1,0.1-0.1,0.1-0.1,0.2c-0.1,0.1-0.1,0.2-0.1,0.2c0,0,0,0.1-0.1,0.1l0,0
						c0,0,0,0,0,0c-0.1,0.2-0.1,0.3-0.2,0.5c0,0.1,0,0.2-0.1,0.3c0,0,0,0,0,0c0,0,0,0,0,0v0l0,0.1c0,0.2,0,0.4,0,0.6l0,0.2
						c0,0,0,0,0,0l0,0c0,0,0,0.1,0,0.1c0,0.1,0,0.2,0.1,0.3c0,0.2,0.1,0.3,0.2,0.5c0,0,0,0,0,0c0,0,0,0,0,0l0,0.1c0,0,0,0.1,0.1,0.1
						c0,0.1,0.1,0.2,0.1,0.2c0.1,0.1,0.1,0.2,0.2,0.2l0,0c0,0,0,0,0,0.1c0,0,0,0,0.1,0.1c0.1,0.1,0.2,0.3,0.4,0.4
						c0,0,0.1,0.1,0.1,0.1c0,0,0.1,0,0.1,0.1c0.1,0,0.1,0.1,0.2,0.1c0.2,0.1,0.3,0.2,0.5,0.3l0.1,0c0,0,0,0,0.1,0c0,0,0,0,0.1,0
						c0.1,0,0.2,0.1,0.3,0.1c0.1,0,0.2,0,0.3,0.1C15,11.4,15,11.4,15.1,11.4L15.1,11.4z M13.5,10.8C13.5,10.8,13.4,10.8,13.5,10.8
						L13.5,10.8L13.5,10.8C13.5,10.8,13.5,10.8,13.5,10.8z M19.1,8.1L19.1,8.1c0,0.1,0,0.1,0.1,0.2c0,0,0.1,0.1,0.2,0.1c0,0,0,0,0,0
						c0.2,0,0.3-0.1,0.3-0.3c0,0,0,0,0,0c0-0.1,0-0.1-0.1-0.2c-0.1,0-0.1-0.1-0.2-0.1C19.2,7.8,19.1,8,19.1,8.1z M12.9,6L12.9,6
						C12.9,6,12.9,6,12.9,6S12.9,6,12.9,6z M12.9,6L12.9,6C12.9,6,12.9,6,12.9,6L12.9,6z"/>
				</g>
			</g>
		</g>
		<g>
			<g>
				<g>
					<path class="st2" d="M9.2,9.9c0,0.1,0,0.2,0,0.3c0,0,0,0.1,0,0.1c0,0,0,0,0,0c0,0,0,0,0,0.1c0,0.2-0.1,0.3-0.1,0.5
						C9,11,9,11,9,11.1c0,0.1-0.1,0.2-0.1,0.2c0,0.1-0.1,0.1-0.1,0.2c-0.1,0.1-0.1,0.1-0.1,0.2c-0.1,0.1-0.2,0.2-0.3,0.4
						c0,0-0.1,0-0.1,0.1c0,0,0,0-0.1,0c0,0,0,0,0,0c-0.1,0-0.1,0.1-0.2,0.1c-0.3,0.2-0.5,0.3-0.8,0.3c-0.1,0-0.2,0-0.2,0
						c0,0-0.1,0,0,0c0,0,0,0-0.1,0c0,0-0.1,0-0.1,0c-0.2,0-0.3,0-0.5,0c0,0-0.1,0-0.1,0c0,0-0.1,0-0.1,0c-0.1,0-0.2,0-0.2-0.1
						s-0.2,0-0.2-0.1c0,0-0.1,0-0.1,0c0,0-0.1,0,0,0c0,0-0.1,0-0.1,0c-0.6-0.3-1-0.7-1.3-1.2c-0.1-0.3-0.2-0.6-0.3-0.9
						c0-0.1,0,0,0,0c0,0,0,0,0-0.1c0,0,0-0.1,0-0.1c0-0.1,0-0.2,0-0.3c0-0.1,0-0.1,0-0.2c0,0,0-0.1,0,0c0,0,0-0.1,0-0.1
						c0-0.1,0.1-0.3,0.1-0.4c0-0.1,0-0.1,0.1-0.2c0,0,0,0,0,0c0,0,0,0,0,0c0,0,0-0.1,0.1-0.1C4,8.6,4.1,8.5,4.2,8.4
						c0,0,0-0.1,0.1-0.1c0,0,0.1-0.1,0,0c0-0.1,0.1-0.1,0.1-0.2C4.5,8,4.6,7.9,4.7,7.8c0,0,0,0,0.1-0.1c0,0,0,0,0,0
						c0.1,0,0.1-0.1,0.2-0.1c0.1-0.1,0.2-0.1,0.4-0.2c0,0,0,0,0,0c0,0,0,0,0,0c0,0,0.1,0,0.1,0c0.1,0,0.1,0,0.2-0.1
						c0.1,0,0.1,0,0.2-0.1c0,0,0.1,0,0.1,0c0,0,0,0,0,0c0,0,0.1,0,0,0c0,0,0,0,0.1,0c0,0,0.1,0,0.1,0c0.1,0,0.2,0,0.2,0
						c0.1,0,0.1,0,0.2,0c0,0,0.1,0,0.1,0c0.1,0-0.1,0,0,0c0,0,0,0,0.1,0c0.1,0,0.3,0.1,0.4,0.1c0.1,0,0.1,0,0.2,0.1c0,0,0.1,0,0,0
						c0,0,0.1,0,0.1,0C7.8,7.5,7.9,7.6,8,7.6c0.1,0,0.1,0.1,0.2,0.1c0,0,0,0,0,0c0,0,0.1,0,0.1,0.1C8.4,7.9,8.5,8,8.6,8.2
						c0,0,0,0.1,0.1,0.1c0,0,0,0,0,0c0,0.1,0.1,0.1,0.1,0.2C8.9,8.6,8.9,8.7,9,8.8c0,0,0,0.1,0,0c0,0,0,0.1,0,0.1
						c0,0.1,0,0.1,0.1,0.2c0,0.1,0.1,0.3,0.1,0.4c0,0,0,0.1,0,0c0,0,0,0,0,0c0,0,0,0.1,0,0.1C9.2,9.8,9.2,9.9,9.2,9.9
						c0,0.2,0.2,0.3,0.3,0.3c0.2,0,0.3-0.1,0.3-0.3c0-1.3-0.8-2.6-2-3.1C6.7,6.2,5.2,6.4,4.2,7.3c-1.1,0.9-1.5,2.5-1,3.8
						c0.5,1.4,2,2.4,3.5,2.3c0.8-0.1,1.5-0.4,2.1-0.9c0.6-0.5,1-1.2,1.1-2c0-0.2,0.1-0.4,0.1-0.6c0-0.2-0.2-0.3-0.3-0.3
						C9.4,9.6,9.3,9.8,9.2,9.9z"/>
					<path class="st4" d="M6.5,13.5c-1.5,0-2.8-1-3.3-2.4c-0.5-1.3-0.1-2.9,1-3.9C5.2,6.4,6.7,6.2,8,6.8c1.2,0.6,2,1.8,2,3.2
						c0,0,0,0,0,0l0,0c0,0,0,0,0,0l0,0l0,0c0,0,0,0,0,0c0,0.2,0,0.4-0.1,0.6c-0.1,0.8-0.5,1.5-1.1,2c-0.6,0.5-1.3,0.8-2.1,0.9
						C6.6,13.5,6.5,13.5,6.5,13.5z M6.5,6.6c-0.8,0-1.6,0.3-2.2,0.8c-1,0.9-1.4,2.4-1,3.7c0.5,1.4,2,2.4,3.4,2.3
						c0.8-0.1,1.5-0.4,2-0.9c0.6-0.5,1-1.2,1.1-1.9c0-0.1,0-0.2,0-0.3c-0.1,0-0.2,0.1-0.2,0.1c0,0,0,0,0,0c-0.1,0-0.2,0-0.3-0.1
						c0,0,0,0,0,0.1l0,0c0,0,0,0,0,0l0,0.1c0,0.2-0.1,0.4-0.1,0.5c0,0.1,0,0.1-0.1,0.2c0,0.1-0.1,0.2-0.1,0.2c0,0.1-0.1,0.1-0.1,0.2
						c-0.1,0.1-0.1,0.1-0.1,0.2c-0.1,0.1-0.2,0.2-0.3,0.4c0,0,0,0,0,0c0,0,0,0,0,0c0,0,0,0,0,0l0,0l0,0c0,0,0,0,0,0l0,0l0,0
						C8.1,12.3,8,12.3,8,12.4c-0.3,0.2-0.5,0.3-0.9,0.4c-0.1,0-0.2,0-0.2,0c0,0,0,0-0.1,0l0,0c0,0-0.1,0-0.1,0c-0.2,0-0.3,0-0.5,0
						c0,0-0.1,0-0.1,0v0l-0.1,0c-0.1,0-0.2,0-0.2-0.1c-0.1,0-0.2,0-0.2-0.1c0,0,0,0-0.1,0l0,0l-0.1-0.1l0,0c-0.6-0.3-1-0.7-1.3-1.3
						c-0.1-0.3-0.2-0.6-0.3-0.9l0,0l0-0.1c0,0,0,0,0,0l0,0c0,0,0-0.1,0-0.1c0-0.1,0-0.2,0-0.3c0-0.1,0-0.1,0-0.2c0,0,0,0,0,0h0
						c0,0,0-0.1,0-0.1c0-0.1,0.1-0.3,0.1-0.4c0,0,0-0.1,0-0.1l0,0l0-0.1c0,0,0,0,0,0l0,0c0,0,0,0,0,0c0,0,0-0.1,0-0.1
						C3.9,8.6,4,8.4,4.1,8.3l0,0c0,0,0,0,0-0.1l0,0c0-0.1,0.1-0.1,0.1-0.2c0.1-0.1,0.2-0.2,0.3-0.3l0,0l0.1-0.1l0,0c0,0,0,0,0,0
						c0.1,0,0.1-0.1,0.2-0.1C5,7.5,5.2,7.4,5.3,7.3c0,0,0,0,0.1,0c0,0,0,0,0.1,0c0.1,0,0.2-0.1,0.2-0.1c0.1,0,0.1,0,0.2,0l0.2,0
						c0,0,0,0,0,0v0l0.1,0c0,0,0,0,0,0c0,0,0,0,0,0c0,0,0.1,0,0.1,0c0.1,0,0.2,0,0.2,0c0,0,0,0,0,0c0.1,0,0.1,0,0.2,0c0,0,0,0,0,0
						l0,0l0.2,0c0.2,0,0.3,0.1,0.4,0.1l0,0c0.1,0,0.1,0,0.2,0.1c0,0,0.1,0,0.1,0c0,0,0.1,0,0.1,0c0.1,0.1,0.3,0.1,0.4,0.2
						c0.1,0,0.1,0.1,0.2,0.1l0,0c0,0,0,0,0,0l0,0c0,0,0,0,0.1,0.1C8.5,7.9,8.6,8,8.7,8.1l0,0l0,0l0.1,0.1l0,0l0,0
						c0,0,0.1,0.1,0.1,0.1C9,8.5,9,8.7,9.1,8.8c0,0,0,0,0,0h0c0,0,0,0,0,0c0,0,0,0.1,0,0.1c0,0.1,0.1,0.1,0.1,0.2
						c0,0.1,0.1,0.2,0.1,0.4l0,0l0,0.1l0,0l0,0c0.1-0.1,0.2-0.1,0.3-0.1c0.1,0,0.2,0,0.2,0.1C9.7,8.4,9,7.4,7.9,6.9
						C7.5,6.7,7,6.6,6.5,6.6z M6.1,12.6C6.1,12.6,6.1,12.6,6.1,12.6c0.2,0,0.4,0,0.6,0c0,0,0.1,0,0.1,0l0,0c0,0,0,0,0,0h0
						c0,0,0,0,0,0c0.1,0,0.2,0,0.2,0c0.3-0.1,0.5-0.2,0.8-0.3c0.1,0,0.1-0.1,0.2-0.1l0,0c0,0,0,0,0,0c0,0,0,0,0,0c0,0,0,0,0,0
						c0,0,0,0,0,0c0.1-0.1,0.2-0.2,0.3-0.3c0.1-0.1,0.1-0.1,0.1-0.2c0-0.1,0.1-0.1,0.1-0.2c0-0.1,0.1-0.2,0.1-0.2C9,11,9,11,9,10.9
						c0.1-0.2,0.1-0.3,0.1-0.5l0-0.1c0,0,0,0,0-0.1c0-0.1,0-0.2,0-0.3l0-0.4c0-0.1-0.1-0.3-0.1-0.4C9,9.1,9,9,9,9c0,0,0-0.1,0-0.1
						l0,0c0,0,0,0,0,0C8.9,8.7,8.8,8.6,8.7,8.5c0,0-0.1-0.1-0.1-0.1l0,0c0,0,0,0,0,0L8.5,8.2C8.5,8.1,8.4,8,8.2,7.9c0,0,0,0-0.1-0.1
						l0,0c0,0,0,0,0,0c0,0-0.1-0.1-0.1-0.1C7.9,7.6,7.7,7.6,7.6,7.5c0,0-0.1,0-0.1,0v0c0,0,0,0,0,0c-0.1,0-0.1,0-0.2-0.1l0,0
						C7.2,7.3,7,7.3,6.9,7.3l-0.1,0c0,0-0.1,0-0.1,0c-0.1,0-0.2,0-0.3,0c-0.1,0-0.1,0-0.2,0c0,0-0.1,0-0.1,0c0,0-0.1,0-0.1,0
						c0,0,0,0,0,0l-0.2,0c-0.1,0-0.1,0-0.2,0c-0.1,0-0.1,0-0.2,0.1l0,0c0,0-0.1,0-0.1,0c0,0,0,0,0,0l0,0C5.2,7.5,5.1,7.6,5,7.6
						C5,7.7,4.9,7.7,4.8,7.8c0,0,0,0,0,0l-0.1,0C4.6,7.9,4.5,8,4.4,8.1c0,0-0.1,0.1-0.1,0.1l0,0.1c0,0,0,0,0,0.1l0,0
						C4.1,8.5,4.1,8.6,4,8.8c0,0,0,0.1-0.1,0.1c0,0,0,0,0,0l0,0c0,0.1,0,0.1-0.1,0.2c0,0.1-0.1,0.3-0.1,0.4c0,0,0,0.1,0,0.1h0l0,0
						c0,0,0,0,0,0c0,0.1,0,0.1,0,0.2c0,0.1,0,0.2,0,0.3c0,0.1,0,0.1,0,0.1l0,0.1c0,0,0,0,0,0c0,0,0,0,0,0c0.1,0.3,0.1,0.6,0.3,0.9
						c0.3,0.5,0.7,0.9,1.3,1.2c0,0,0,0,0,0l0,0c0,0,0.1,0,0.1,0c0.1,0,0.1,0,0.2,0.1c0.1,0,0.2,0,0.2,0.1L6.1,12.6z M3.8,10.3
						C3.8,10.3,3.8,10.3,3.8,10.3L3.8,10.3C3.8,10.3,3.8,10.3,3.8,10.3z M9.3,9.9L9.3,9.9c0,0.1,0,0.1,0.1,0.2
						c0.1,0,0.1,0.1,0.2,0.1c0.1,0,0.3-0.1,0.3-0.3c0,0,0,0,0,0v0c0,0,0,0,0,0c0-0.1,0-0.1-0.1-0.2c0,0-0.1-0.1-0.2-0.1
						C9.4,9.7,9.3,9.8,9.3,9.9z M5.3,7.3L5.3,7.3L5.3,7.3z"/>
				</g>
			</g>
		</g>
		<g>
			<g>
				<g>
					<path class="st2" d="M20.7,16.4c0,0.4,0,0.8,0,1.2c0,0.2,0,0.4,0,0.6c0,0,0,0,0,0c0,0.1,0,0,0,0c0,0,0,0,0,0.1c0-0.1,0,0,0,0
						c0-0.1,0,0,0,0c0,0-0.1,0,0,0c0,0,0,0,0,0c0,0,0.1,0,0,0c0,0,0,0-0.1,0c0.1,0,0,0,0,0h0c-0.4,0-0.9,0-1.3,0c-1,0-1.9,0-2.9,0
						c-1.1,0-2.1,0-3.2,0c-0.7,0-1.5,0-2.2,0c-0.1,0-0.2,0-0.4,0c0,0,0,0,0,0c0.1,0,0,0-0.1,0c0.1,0,0,0,0,0c0,0,0,0,0,0
						c0,0,0,0,0-0.1c0,0,0,0,0,0c0,0.1,0,0,0-0.1c0,0.1,0,0,0,0c0,0,0,0,0,0c0-0.2,0-0.4,0-0.6c0-0.4,0-0.8,0-1.2
						c0-0.5,0.1-0.9,0.3-1.4c0,0,0-0.1,0-0.1c0,0,0-0.1,0,0c0,0,0-0.1,0,0c0-0.1,0.1-0.2,0.1-0.3c0.1-0.2,0.2-0.3,0.3-0.5
						c0,0,0.1-0.1,0.1-0.1c0,0,0-0.1,0,0c0,0,0,0,0,0c0.1-0.1,0.1-0.2,0.2-0.2c0.1-0.1,0.3-0.3,0.4-0.4c0,0,0.1-0.1,0.1-0.1
						c0,0,0,0,0,0c0,0,0,0,0,0c0.1-0.1,0.2-0.1,0.3-0.2c0.2-0.1,0.3-0.2,0.5-0.3c0,0,0.1,0,0.1-0.1c0,0,0,0,0.1,0c-0.1,0,0,0,0,0
						c0.1,0,0.2-0.1,0.3-0.1c0.2-0.1,0.4-0.1,0.6-0.1c0,0,0.1,0,0.1,0c0,0,0.1,0,0,0c0,0,0.1,0,0.1,0c0.1,0,0.2,0,0.3,0
						c0.1,0,0.2,0,0.3,0c0.5,0,0.9,0,1.4,0c0.2,0,0.4,0,0.5,0c0.1,0,0.2,0,0.3,0c0.1,0,0.2,0,0.3,0c-0.1,0,0,0,0,0c0,0,0.1,0,0.1,0
						c0.1,0,0.1,0,0.2,0c0.2,0,0.4,0.1,0.6,0.2c0,0,0.1,0,0.1,0c0,0,0,0,0.1,0c0,0,0.1,0,0,0c0,0,0,0,0,0c0,0,0,0,0.1,0
						c0,0,0.1,0,0.1,0.1c0.2,0.1,0.3,0.2,0.5,0.3c0.1,0.1,0.2,0.1,0.2,0.2c-0.1,0,0,0,0.1,0c0,0,0.1,0.1,0.1,0.1
						c0.1,0.1,0.3,0.3,0.4,0.4c0.1,0.1,0.1,0.1,0.2,0.2c0,0,0,0,0,0.1c0,0,0.1,0.1,0.1,0.1c0.1,0.2,0.2,0.3,0.3,0.5
						c0,0.1,0.1,0.2,0.1,0.2c0-0.1,0,0.1,0,0.1c0,0.1,0,0.1,0.1,0.2C20.7,15.5,20.7,15.9,20.7,16.4c0,0.2,0.2,0.3,0.3,0.3
						c0.2,0,0.3-0.1,0.3-0.3c0-1.8-1-3.5-2.6-4.3c-0.7-0.4-1.5-0.6-2.3-0.6c-0.4,0-0.9,0-1.3,0c-0.5,0-1,0-1.5,0.1
						c-0.8,0.1-1.6,0.5-2.2,1c-0.6,0.5-1.1,1.2-1.4,2c-0.3,0.7-0.3,1.3-0.3,2c0,0.5,0,0.9,0,1.4c0,0.3,0.2,0.7,0.5,0.8
						c0.1,0.1,0.3,0.1,0.4,0.1c0.6,0,1.1,0,1.7,0c1,0,2.1,0,3.1,0c1.1,0,2.1,0,3.2,0c0.6,0,1.2,0,1.8,0c0.1,0,0.2,0,0.2,0
						c0.4-0.1,0.7-0.5,0.7-0.9c0-0.5,0-0.9,0-1.4c0-0.1,0-0.3,0-0.4c0-0.2-0.2-0.3-0.3-0.3C20.9,16.1,20.7,16.2,20.7,16.4z"/>
					<path class="st4" d="M20.5,19.1h-9.8c-0.2,0-0.3,0-0.5-0.1c-0.3-0.2-0.5-0.5-0.5-0.9v-1.4c0-0.9,0.1-1.5,0.3-2.1
						c0.3-0.8,0.8-1.5,1.4-2c0.7-0.5,1.4-0.9,2.3-1.1c0.5-0.1,0.9-0.1,1.4-0.1h1.4c0.8,0,1.6,0.2,2.3,0.6c1.6,0.8,2.6,2.5,2.6,4.3
						c0,0,0,0,0,0.1l0,0.9c0,0.3,0,0.6,0,0.9c0,0.5-0.3,0.9-0.8,0.9C20.7,19.1,20.6,19.1,20.5,19.1z M15,11.6c-0.4,0-0.8,0-1.2,0.1
						c-0.8,0.1-1.5,0.5-2.2,1c-0.6,0.5-1.1,1.2-1.4,1.9c-0.2,0.6-0.3,1.2-0.3,2v1.4c0,0.3,0.2,0.6,0.4,0.8c0.1,0.1,0.2,0.1,0.4,0.1
						h9.8c0.1,0,0.2,0,0.2,0c0.4-0.1,0.6-0.4,0.6-0.8c0-0.3,0-0.6,0-0.9l0-0.5c-0.1,0.1-0.2,0.1-0.3,0.1c-0.1,0-0.2,0-0.3-0.1v1.4
						l0,0l0,0.1l0,0l0,0l0,0l0,0l0,0c0,0,0,0,0,0c0,0,0,0,0,0l0,0l0,0l0,0l0,0l0,0l-0.1,0c0,0,0,0-0.1,0l-0.1,0.1l0-0.1c0,0,0,0,0,0
						c-0.3,0-0.6,0-0.9,0c-0.1,0-0.3,0-0.4,0l-8.4,0c-0.1,0-0.2,0-0.2,0c0,0,0,0,0,0c0,0,0,0,0,0v0c0,0,0,0,0,0l0,0l-0.1-0.1l0,0
						c0,0,0,0,0,0l0,0c0,0,0,0,0,0l0,0l0,0c0,0,0,0,0-0.1h0c0,0,0,0,0,0l0-0.6c0-0.1,0-0.3,0-0.4c0-0.3,0-0.5,0-0.8
						c0-0.5,0.1-0.9,0.3-1.4c0,0,0,0,0-0.1h0l0,0h0l0-0.1h0l0-0.1c0-0.1,0.1-0.2,0.1-0.3c0.1-0.2,0.2-0.3,0.3-0.5
						c0,0,0.1-0.1,0.1-0.1c0,0,0,0,0,0l0,0c0,0,0,0,0,0c0,0,0,0,0,0l0,0c0,0,0,0,0,0c0,0,0,0,0,0c0.1-0.1,0.1-0.2,0.2-0.2
						c0.1-0.1,0.3-0.3,0.4-0.4l0.1-0.1c0,0,0,0,0,0l0,0c0,0,0,0,0,0c0,0,0,0,0,0c0.1-0.1,0.2-0.1,0.3-0.2c0.2-0.1,0.3-0.2,0.5-0.3
						c0,0,0.1,0,0.1-0.1c0,0,0,0,0.1,0c0,0,0,0,0,0c0.1,0,0.2-0.1,0.3-0.1c0.2-0.1,0.4-0.1,0.6-0.1c0,0,0,0,0.1,0c0,0,0,0,0,0v0l0,0
						c0,0,0,0,0,0c0,0,0,0,0.1,0c0,0,0,0,0,0l0,0c0.1,0,0.2,0,0.3,0c0.1,0,0.2,0,0.3,0h1.9c0.1,0,0.2,0,0.3,0c0.1,0,0.2,0,0.3,0l0,0
						c0,0,0,0,0,0l0.1,0c0.1,0,0.1,0,0.2,0c0.2,0,0.4,0.1,0.6,0.2c0,0,0.1,0,0.1,0c0,0,0,0,0,0l0,0l0,0l0.1,0c0,0,0,0,0,0
						c0,0,0,0,0,0l0.1,0c0,0,0.1,0,0.1,0.1c0.2,0.1,0.3,0.2,0.5,0.3c0.1,0.1,0.2,0.1,0.2,0.2l0,0c0,0,0,0,0,0l0,0
						c0,0,0.1,0.1,0.1,0.1c0.1,0.1,0.3,0.3,0.4,0.4c0.1,0.1,0.1,0.1,0.2,0.2l0,0l0,0c0,0,0,0,0,0.1c0,0,0.1,0.1,0.1,0.1l0,0
						c0.1,0.2,0.2,0.3,0.3,0.5c0,0.1,0.1,0.1,0.1,0.2l0,0h0c0,0,0,0.1,0,0.1c0,0.1,0,0.1,0.1,0.2c0.1,0.4,0.2,0.7,0.2,1.1
						C20.9,16,21,16,21.1,16c0.1,0,0.2,0,0.2,0.1c-0.1-1.6-1.1-3.1-2.5-3.9c-0.7-0.4-1.5-0.5-2.2-0.5l-1.4,0
						C15.1,11.6,15,11.6,15,11.6z M20.1,18.3c0.1,0,0.3,0,0.4,0l0,0c0,0,0,0,0,0c0,0,0,0,0,0l0,0c0,0,0,0,0,0l0,0c0,0,0,0,0,0
						c0,0,0,0,0,0l0,0v-1.7c0-0.5-0.1-0.9-0.2-1.3c0-0.1,0-0.1-0.1-0.2c0,0,0-0.1,0-0.1l0,0c0-0.1-0.1-0.1-0.1-0.2
						c-0.1-0.2-0.2-0.3-0.3-0.5l0,0c0,0-0.1-0.1-0.1-0.1c0,0,0,0,0,0c0,0,0,0,0,0c-0.1-0.1-0.1-0.1-0.2-0.2
						c-0.1-0.1-0.2-0.3-0.4-0.4c0,0-0.1-0.1-0.1-0.1c0,0-0.1,0-0.1-0.1c-0.1,0-0.1-0.1-0.2-0.1c-0.2-0.1-0.3-0.2-0.5-0.3
						c0,0-0.1,0-0.1-0.1l-0.1,0c0,0,0,0,0,0c0,0,0,0,0,0l0,0c0,0,0,0,0,0l0,0c0,0-0.1,0-0.1,0c-0.2-0.1-0.4-0.1-0.6-0.2
						c-0.1,0-0.1,0-0.1,0l-0.1,0c0,0,0,0,0,0v0c0,0,0,0,0,0c0,0,0,0,0,0c-0.1,0-0.2,0-0.2,0c-0.1,0-0.2,0-0.3,0h-1.9c0,0,0,0,0,0
						c-0.1,0-0.2,0-0.2,0c-0.1,0-0.2,0-0.3,0c0,0,0,0-0.1,0l0,0h0c0,0-0.1,0-0.1,0c0,0,0,0-0.1,0c-0.2,0-0.4,0.1-0.6,0.1
						c-0.1,0-0.2,0.1-0.3,0.1c0,0,0,0,0,0v0c0,0,0,0,0,0c0,0,0,0,0,0l0,0c0,0,0,0,0,0c0,0,0,0,0,0c-0.1,0-0.1,0-0.1,0.1
						c-0.2,0.1-0.3,0.2-0.5,0.3c-0.1,0.1-0.2,0.1-0.3,0.2c0,0,0,0,0,0c0,0,0,0,0,0L12,13.3c-0.1,0.1-0.3,0.2-0.4,0.4
						c-0.1,0.1-0.1,0.1-0.2,0.2c0,0,0,0,0,0c0,0,0,0,0,0c0,0,0,0.1-0.1,0.1c-0.1,0.2-0.2,0.3-0.3,0.5c0,0.1-0.1,0.2-0.1,0.2
						c0,0,0,0,0,0.1l0,0c0,0,0,0,0,0l0,0c0,0,0,0.1,0,0.1c-0.2,0.5-0.2,0.9-0.3,1.3c0,0.3,0,0.5,0,0.8c0,0.1,0,0.3,0,0.4v0.6
						c0,0,0,0,0,0c0,0,0,0,0,0c0,0,0,0,0,0c0,0,0,0,0,0c0,0,0,0,0,0c0,0,0,0,0,0c0,0,0,0,0,0c0.1,0,0.2,0,0.2,0h8.4
						c0.1,0,0.3,0,0.4,0C19.8,18.3,20,18.3,20.1,18.3z M20.8,16.4c0,0.1,0,0.1,0.1,0.2c0,0,0.1,0.1,0.2,0.1c0,0,0,0,0,0
						c0.2,0,0.3-0.1,0.3-0.3c0,0,0,0,0,0c0-0.1,0-0.1-0.1-0.1c0,0-0.1-0.1-0.2-0.1c0,0,0,0,0,0C20.9,16.1,20.8,16.3,20.8,16.4z
						 M19.1,13.1L19.1,13.1C19.1,13.2,19.2,13.2,19.1,13.1L19.1,13.1z"/>
				</g>
			</g>
		</g>
		<g>
			<g>
				<g>
					<path class="st2" d="M10.6,18.3c-0.2,0-0.5,0-0.7,0c-0.6,0-1.2,0-1.8,0c-1.4,0-2.8,0-4.2,0c-0.4,0-0.8,0-1.3,0c0,0-0.1,0-0.1,0
						c0,0,0,0,0,0c0,0,0,0,0,0c0,0-0.2,0,0,0c0.1,0-0.1,0,0,0c0,0-0.1-0.1,0,0c0,0,0,0-0.1-0.1c0,0.1,0,0,0,0c0,0.1,0,0,0,0
						c0,0.1,0,0,0,0c0,0,0,0,0-0.1c0-0.1,0-0.3,0-0.5c0-0.3,0-0.7,0-1c0,0,0-0.1,0-0.1c0,0.1,0,0,0,0c0-0.1,0-0.1,0-0.2
						c0-0.1,0.1-0.3,0.1-0.4c0-0.1,0.1-0.2,0.1-0.3c0-0.1,0,0.1,0,0c0,0,0-0.1,0-0.1c0-0.1,0.1-0.1,0.1-0.2c0.1-0.1,0.1-0.2,0.2-0.3
						c0,0,0.1-0.1,0.1-0.1c0,0,0,0,0.1-0.1c0,0,0,0,0,0c0,0,0,0,0,0c0.1-0.2,0.3-0.4,0.5-0.5c0,0,0.1-0.1,0.1-0.1c0.1-0.1-0.1,0,0,0
						c0,0,0,0,0.1-0.1C3.9,14.1,4,14,4.1,13.9c0.1-0.1,0.2-0.1,0.3-0.2c0,0,0.1,0,0.1,0c0.1,0-0.1,0,0,0c0.1,0,0.1-0.1,0.2-0.1
						c0.2-0.1,0.5-0.1,0.7-0.2c0.1,0-0.1,0,0,0c0,0,0.1,0,0.1,0c0.1,0,0.1,0,0.2,0c0.1,0,0.1,0,0.2,0c0.3,0,0.6,0,0.9,0
						c0.1,0,0.1,0,0.2,0c0.1,0,0.1,0,0.2,0c0,0,0.1,0,0.1,0c0,0,0,0,0.1,0c0,0,0,0,0,0c0.3,0,0.6,0.1,0.8,0.2c0.1,0,0.2,0.1,0.3,0.1
						C8.7,13.9,8.9,14,9,14c0.2,0.2,0.4,0.3,0.6,0.5c0.1,0.1,0.2,0.2,0.3,0.3c0,0,0.1,0.1,0,0c0,0,0,0.1,0.1,0.1
						C10,15,10,15,10,15.1c0-0.1,0-0.2,0-0.3c-0.2,0.5-0.3,1-0.3,1.5c0,0.1,0,0.3,0,0.4c0,0.5,0,0.9,0,1.4c0,0.5,0.3,0.8,0.8,0.9
						c0.2,0,0.3-0.2,0.3-0.3C10.9,18.5,10.7,18.4,10.6,18.3C10.6,18.4,10.5,18.3,10.6,18.3C10.5,18.3,10.6,18.4,10.6,18.3
						C10.5,18.3,10.5,18.3,10.6,18.3c0,0-0.1-0.1-0.1-0.1c0,0.1,0-0.1,0,0c0,0,0,0,0-0.1c0,0,0-0.1,0,0c0,0,0,0,0,0c0,0,0,0,0,0
						c0-0.1,0-0.3,0-0.4c0-0.4,0-0.8,0-1.2c0-0.2,0-0.4,0-0.6c0-0.2,0.1-0.4,0.1-0.6c0-0.1,0-0.2,0.1-0.3c0-0.1,0-0.1,0-0.2
						c0-0.1,0-0.2-0.1-0.3c-0.4-0.6-0.9-1.1-1.5-1.4c-0.6-0.3-1.3-0.5-2.1-0.5c-0.3,0-0.7,0-1,0c-1.2,0-2.4,0.5-3.2,1.4
						c-0.4,0.5-0.8,1-1,1.6c-0.2,0.5-0.2,1-0.2,1.5c0,0.2,0,0.4,0,0.6c0,0.2,0,0.3,0,0.5C1.7,18.8,2,19,2.4,19c0,0,0.1,0,0.1,0
						c0.5,0,1,0,1.5,0c0.8,0,1.7,0,2.5,0c0.8,0,1.7,0,2.5,0c0.5,0,1,0,1.4,0c0,0,0.1,0,0.1,0c0.2,0,0.3-0.2,0.3-0.3
						C10.9,18.5,10.7,18.3,10.6,18.3z"/>
					<path class="st4" d="M10.6,19.1C10.6,19.1,10.5,19.1,10.6,19.1c-0.1,0-0.1,0-0.1,0H2.4c-0.4,0-0.8-0.3-0.9-0.7
						c0-0.1,0-0.3,0-0.4c0,0,0-0.1,0-0.1v-0.6c0-0.6,0.1-1.1,0.2-1.5c0.2-0.6,0.5-1.2,1-1.7c0.8-0.9,2-1.4,3.3-1.4
						c0.2,0,0.4,0,0.7,0c0.1,0,0.2,0,0.3,0c0.7,0,1.5,0.2,2.1,0.6c0.6,0.3,1.1,0.8,1.5,1.4c0.1,0.1,0.1,0.2,0.1,0.3
						c0,0.1,0,0.1,0,0.2c0,0.1-0.1,0.2-0.1,0.3c0,0.2-0.1,0.4-0.1,0.5c0,0.2,0,0.4,0,0.6v1.7c0,0,0,0,0,0c0,0,0,0,0,0c0,0,0,0,0,0
						c0,0,0,0,0,0c0,0,0,0,0,0c0,0,0,0,0,0l0,0c0,0,0,0,0,0c0.1,0,0.2,0,0.2,0.1c0,0,0.1,0.1,0.1,0.1c0,0.1,0.1,0.1,0.1,0.2
						c0,0.1,0,0.2-0.1,0.3C10.8,19.1,10.7,19.1,10.6,19.1z M6.7,12.8c-0.2,0-0.4,0-0.7,0c-1.2,0-2.4,0.5-3.2,1.4
						c-0.4,0.5-0.7,1-0.9,1.6c-0.1,0.4-0.2,0.9-0.2,1.5v0.6c0,0,0,0.1,0,0.1c0,0.1,0,0.3,0,0.4C1.8,18.7,2,18.9,2.4,19h7.7
						c-0.2-0.1-0.3-0.3-0.4-0.5l-7.3,0c0,0,0,0,0,0c0,0,0,0,0,0l0,0c0,0-0.1,0-0.1-0.1c0,0,0,0,0,0l0,0l0,0c0,0,0,0,0,0l0,0l0,0l0,0
						c0,0,0,0,0,0l0,0c0,0,0,0,0,0l0-0.7c0-0.3,0-0.5,0-0.8c0,0,0-0.1,0-0.1l0,0c0,0,0,0,0,0c0-0.1,0-0.1,0-0.2
						c0-0.1,0.1-0.3,0.1-0.4c0-0.1,0.1-0.2,0.1-0.3c0,0,0,0,0,0l0-0.1l0,0c0,0,0,0,0,0c0-0.1,0.1-0.1,0.1-0.2l0,0
						c0.1-0.1,0.1-0.2,0.2-0.3c0-0.1,0.1-0.1,0.1-0.2l0,0c0,0,0,0,0,0c0,0,0,0,0,0l0,0c0,0,0,0,0-0.1c0.2-0.2,0.3-0.4,0.5-0.5l0,0
						c0,0,0,0,0,0l0,0l0.1-0.1c0,0,0,0,0,0l0,0c0,0,0,0,0.1,0c0.1-0.1,0.2-0.1,0.3-0.2c0.1-0.1,0.2-0.1,0.3-0.2c0,0,0,0,0,0l0,0
						l0.1,0c0,0,0,0,0,0l0.1,0c0,0,0.1,0,0.1-0.1c0.2-0.1,0.5-0.1,0.8-0.2c0,0,0,0,0,0l0.1,0l0,0l0,0c0,0,0.1,0,0.1,0l0.1,0
						c0.1,0,0.2,0,0.2,0h0.9c0.1,0,0.1,0,0.2,0c0.1,0,0.1,0,0.2,0c0,0,0.1,0,0.1,0c0,0,0,0,0.1,0c0,0,0,0,0,0
						c0.3,0.1,0.6,0.1,0.8,0.2c0.1,0,0.2,0.1,0.3,0.1C8.8,13.8,8.9,13.9,9,14c0.2,0.2,0.4,0.3,0.6,0.5c0.1,0.1,0.2,0.2,0.3,0.3
						c0,0,0,0,0,0l0,0l0,0c0,0,0,0,0,0l0.1-0.3l0.1,0.9L10,15.1c-0.1,0.4-0.2,0.8-0.2,1.2c0,0.1,0,0.2,0,0.3l0,0.1l0,0.5
						c0,0.3,0,0.6,0,0.9c0,0,0,0.1,0,0.1c0.1,0,0.3,0,0.4,0c0,0,0.1,0,0.1,0l0-0.1c0,0,0,0,0,0v-1.6c0-0.2,0-0.4,0-0.6
						c0-0.2,0.1-0.4,0.1-0.6c0-0.1,0-0.2,0.1-0.3c0-0.1,0-0.1,0-0.1c0-0.1,0-0.1-0.1-0.2c-0.4-0.6-0.9-1.1-1.5-1.4
						c-0.6-0.3-1.3-0.5-2-0.5C6.9,12.8,6.8,12.8,6.7,12.8z M9.9,18.4c0.1,0.3,0.3,0.5,0.7,0.5c0,0,0,0,0,0c0.1,0,0.2,0,0.2-0.1
						c0,0,0.1-0.1,0.1-0.2c0-0.1,0-0.1,0-0.2c0-0.1-0.1-0.1-0.2-0.1l0,0l0,0c-0.2,0-0.3,0-0.5,0C10,18.4,9.9,18.4,9.9,18.4z
						 M2.4,18.3h7.3c0,0,0-0.1,0-0.1c0-0.3,0-0.6,0-0.9l0-0.5l0-0.1c0-0.1,0-0.2,0-0.3c0-0.5,0.1-0.9,0.2-1.4c0,0,0,0,0,0
						c0,0,0,0,0-0.1c0,0,0,0-0.1-0.1c-0.1-0.1-0.2-0.2-0.3-0.3c-0.2-0.2-0.3-0.3-0.6-0.5c-0.1-0.1-0.2-0.2-0.4-0.2
						c-0.1-0.1-0.2-0.1-0.3-0.1c-0.2-0.1-0.5-0.2-0.8-0.2l0,0c0,0,0,0,0,0h0c0,0,0,0,0,0c0,0-0.1,0-0.1,0c-0.1,0-0.1,0-0.2,0
						c-0.1,0-0.1,0-0.2,0H6c0,0,0,0,0,0c-0.1,0-0.1,0-0.2,0l-0.1,0c0,0-0.1,0-0.1,0l-0.1,0c0,0,0,0,0,0c-0.3,0-0.5,0.1-0.7,0.2
						c0,0-0.1,0-0.1,0l-0.1,0c0,0,0,0,0,0c0,0,0,0,0,0l0,0c0,0,0,0-0.1,0c-0.1,0.1-0.2,0.1-0.3,0.2c-0.1,0.1-0.2,0.1-0.3,0.2
						c0,0,0,0-0.1,0l0,0c0,0,0,0,0,0c0,0,0,0,0,0c0,0-0.1,0.1-0.1,0.1l0,0c-0.2,0.1-0.3,0.3-0.5,0.5c0,0,0,0,0,0c0,0,0,0,0,0h0l0,0
						c0,0,0,0,0,0l0,0c0,0-0.1,0.1-0.1,0.1c-0.1,0.1-0.1,0.2-0.2,0.3l0,0c0,0,0,0.1-0.1,0.1c0,0,0,0.1,0,0.1c0,0,0,0,0,0
						c0,0,0,0,0,0c0,0.1-0.1,0.2-0.1,0.3c0,0.1-0.1,0.2-0.1,0.4c0,0.1,0,0.1,0,0.2c0,0,0,0.1,0,0.1c0,0,0,0,0,0c0,0.3,0,0.5,0,0.8
						L2.4,18.3C2.3,18.2,2.3,18.2,2.4,18.3L2.4,18.3C2.3,18.2,2.3,18.2,2.4,18.3C2.3,18.2,2.3,18.3,2.4,18.3
						C2.3,18.3,2.4,18.3,2.4,18.3C2.4,18.3,2.4,18.3,2.4,18.3C2.4,18.3,2.4,18.3,2.4,18.3z"/>
				</g>
			</g>
		</g>
	</g>
</g>
<g id="Infos_perso" class="st0">
	<path class="st5" d="M18.2,18H4.8c-0.4,0-0.7,0.3-0.7,0.6s0.3,0.6,0.7,0.6h13.4c0.4,0,0.7-0.3,0.7-0.6S18.6,18,18.2,18z"/>
	<path class="st5" d="M15.9,20.3H7.1c-0.4,0-0.7,0.3-0.7,0.6s0.3,0.6,0.7,0.6h8.8c0.4,0,0.7-0.3,0.7-0.6S16.3,20.3,15.9,20.3z"/>
	<g class="st1">
		<path id="path_1_" class="st6" d="M11.3,1.5C9.4,1.5,7.8,3.1,7.8,5c0,1.9,1.6,3.5,3.5,3.5c1.9,0,3.5-1.6,3.5-3.5
			C14.9,3.1,13.3,1.5,11.3,1.5z M11.3,7.4C10,7.4,9,6.3,9,5s1.1-2.4,2.4-2.4s2.4,1.1,2.4,2.4S12.7,7.4,11.3,7.4z M18.5,14.1
			c0-0.3-0.1-0.7-0.1-1c0-0.4-0.1-0.7-0.3-1.1C17.6,11,14,9.4,11.3,9.4C8.7,9.4,5.1,11,4.6,12c-0.1,0.3-0.2,0.7-0.3,1.1
			c0,0.3-0.1,0.7-0.1,1l0,0.1c0,0.9,0.7,1.6,1.6,1.6h11.2c0.9,0,1.5-0.7,1.5-1.6L18.5,14.1z M16.9,14.6H5.8c-0.2,0-0.4-0.2-0.4-0.4
			c0-0.1,0-0.2,0-0.3v0c0-0.2,0.1-0.5,0.1-0.7c0-0.2,0.1-0.5,0.1-0.7l0,0c0,0,0.1-0.1,0.1-0.1c0.1-0.1,0.3-0.2,0.4-0.3
			c0.4-0.3,0.9-0.5,1.4-0.7c1.2-0.5,2.5-0.8,3.8-0.9c1.3,0,2.6,0.3,3.9,0.9c0.5,0.2,0.9,0.4,1.4,0.7c0.1,0.1,0.3,0.2,0.4,0.3h0l0,0
			c0,0,0.1,0.1,0.1,0.1l0,0c0.1,0.2,0.1,0.5,0.1,0.7c0,0.2,0.1,0.5,0.1,0.7c0,0.1,0,0.2,0,0.3C17.3,14.5,17.2,14.6,16.9,14.6z"/>
	</g>
</g>
<g id="Puzzle" class="st0">
	<polygon class="st7" points="2.4,11.1 2.5,11.1 2.5,11.1 	"/>
	<polygon class="st7" points="7.3,20.6 7.3,20.6 7.3,20.6 	"/>
	<polygon class="st7" points="7.6,5.5 7.6,5.5 7.6,5.5 	"/>
	<polygon class="st7" points="11.8,5.5 11.8,5.5 11.8,5.5 	"/>
	<polygon class="st7" points="12.1,20.6 12.1,20.6 12.1,20.6 	"/>
	<polygon class="st7" points="17.6,11.3 17.5,11.3 17.6,11.3 	"/>
	<polygon class="st7" points="17.6,15.4 17.6,15.5 17.6,15.5 	"/>
	<g class="st1">
		<g>
			<g>
				<polygon class="st8" points="2.5,11.1 2.5,11.1 2.4,11.1 				"/>
				<polygon class="st8" points="7.3,20.6 7.3,20.6 7.3,20.6 				"/>
				<polygon class="st8" points="7.6,5.5 7.6,5.5 7.6,5.5 				"/>
				<polygon class="st8" points="11.8,5.5 11.8,5.5 11.8,5.5 				"/>
				<polygon class="st8" points="12.1,20.6 12.1,20.6 12.1,20.6 				"/>
				<polygon class="st8" points="17.6,11.3 17.6,11.3 17.5,11.3 				"/>
				<polygon class="st8" points="17.6,15.4 17.6,15.5 17.6,15.5 				"/>
				<path class="st8" d="M21.4,13.1c-0.1-1.2-1.1-2-2.3-2h-1.3V9.9c0-0.2,0-0.3,0-0.4c0-0.5,0-1-0.1-1.5c-0.2-1.2-1.1-2.1-2.2-2.6
					c-0.6-0.2-1.2-0.2-1.8-0.2l-1.7,0V4c0-0.1,0-0.3,0-0.5C12,2.9,11.7,2.4,11.3,2c-0.4-0.3-1-0.5-1.6-0.5c-0.4,0-0.9,0.1-1.2,0.3
					C8,2.1,7.6,2.6,7.4,3.1C7.3,3.4,7.3,3.7,7.3,4v1.3H5.9c-0.5,0-0.9,0-1.4,0c-1.1,0.2-2.1,1-2.6,2C1.6,8,1.6,8.7,1.6,9.4v2
					c0,0.3,0.3,0.6,0.6,0.6h2c0.3,0,0.7,0.2,0.9,0.5c0.2,0.2,0.2,0.5,0.2,0.8v0.1c0,0.3,0,0.5-0.1,0.8c-0.2,0.3-0.4,0.5-0.8,0.6
					c-0.2,0-0.3,0-0.5,0l-1.7,0c-0.3,0-0.6,0.3-0.6,0.6v1.6c0,0.1,0,0.3,0,0.4c0,0.5,0,1,0.1,1.4c0.2,1.1,1,2,2,2.5
					c0.7,0.3,1.3,0.3,2,0.3h2c0.3,0,0.6-0.3,0.6-0.6v-1.7c0-0.1,0-0.3,0-0.4c0-0.3,0.3-0.7,0.6-0.9c0.2-0.2,0.5-0.2,0.8-0.2h0.1
					c0.3,0,0.5,0,0.7,0.1c0.3,0.1,0.6,0.4,0.7,0.7c0.1,0.2,0.1,0.4,0.1,0.7v1.7c0,0.3,0.3,0.6,0.6,0.6H14c0.5,0,1,0,1.5-0.2
					c1.1-0.4,1.9-1.3,2.2-2.4c0.1-0.5,0.1-1,0.1-1.5v-1.7h1.4c0.7,0,1.3-0.3,1.7-0.7c0.4-0.4,0.5-1,0.5-1.7
					C21.4,13.2,21.4,13.1,21.4,13.1z M17.6,11.3L17.6,11.3L17.6,11.3L17.6,11.3z M11.8,5.5L11.8,5.5L11.8,5.5L11.8,5.5z M7.6,5.5
					L7.6,5.5L7.6,5.5L7.6,5.5z M2.5,11.1L2.5,11.1L2.5,11.1L2.5,11.1z M7.3,20.6L7.3,20.6L7.3,20.6L7.3,20.6z M12.1,20.6L12.1,20.6
					L12.1,20.6L12.1,20.6z M17.6,15.5L17.6,15.5L17.6,15.5L17.6,15.5z"/>
			</g>
		</g>
	</g>
</g>
<g id="Salon" class="st0">
	<g>
		<g class="st1">
			<g>
				<path class="st2" d="M20.8,16.6c0,0.3,0,0.6,0,1c0.1-0.1,0.2-0.2,0.3-0.3c-0.4,0-0.8,0-1.1,0c0.1,0.1,0.2,0.2,0.3,0.3
					c0-0.3,0-0.6,0-1c-0.1,0.1-0.2,0.2-0.3,0.3c0.4,0,0.8,0,1.1,0c0.2,0,0.4-0.2,0.3-0.3s-0.2-0.3-0.3-0.3c-0.4,0-0.8,0-1.1,0
					c-0.2,0-0.3,0.2-0.3,0.3c0,0.3,0,0.6,0,1c0,0.2,0.2,0.3,0.3,0.3c0.4,0,0.8,0,1.1,0c0.2,0,0.3-0.2,0.3-0.3c0-0.3,0-0.6,0-1
					c0-0.2-0.2-0.4-0.3-0.3C21,16.2,20.8,16.4,20.8,16.6z"/>
			</g>
		</g>
		<g class="st1">
			<g>
				<path class="st2" d="M2.6,16.6c0,0.3,0,0.6,0,1c0.1-0.1,0.2-0.2,0.3-0.3c-0.4,0-0.8,0-1.1,0c0.1,0.1,0.2,0.2,0.3,0.3
					c0-0.3,0-0.6,0-1c-0.1,0.1-0.2,0.2-0.3,0.3c0.4,0,0.8,0,1.1,0c0.2,0,0.4-0.2,0.3-0.3c0-0.2-0.2-0.3-0.3-0.3c-0.4,0-0.8,0-1.1,0
					c-0.2,0-0.3,0.2-0.3,0.3c0,0.3,0,0.6,0,1c0,0.2,0.2,0.3,0.3,0.3c0.4,0,0.8,0,1.1,0c0.2,0,0.3-0.2,0.3-0.3c0-0.3,0-0.6,0-1
					c0-0.2-0.2-0.4-0.3-0.3C2.8,16.2,2.6,16.4,2.6,16.6z"/>
			</g>
		</g>
		<g class="st1">
			<g>
				<path class="st2" d="M20.8,11.2c0,0.6,0,1.2,0,1.8c0,1,0,1.9,0,2.9c0,0.2,0,0.4,0,0.7c0.1-0.1,0.2-0.2,0.3-0.3
					c-0.2,0-0.3,0-0.5,0c-0.5,0-0.9,0-1.4,0c-0.7,0-1.4,0-2.1,0c-0.8,0-1.7,0-2.5,0c-0.9,0-1.8,0-2.8,0c-0.9,0-1.9,0-2.8,0
					c-0.9,0-1.7,0-2.6,0c-0.7,0-1.5,0-2.2,0c-0.5,0-1.1,0-1.6,0c-0.3,0-0.5,0-0.8,0c0,0,0,0,0,0c0.1,0.1,0.2,0.2,0.3,0.3
					c0-0.6,0-1.2,0-1.8c0-1,0-1.9,0-2.9c0-0.2,0-0.4,0-0.7c0,0,0,0,0,0c0,0.1,0-0.1,0,0c0-0.1,0,0,0,0c0,0,0,0,0-0.1c0,0,0,0,0,0
					c0,0,0.1-0.1,0-0.1c0,0,0,0,0,0c0,0,0.1-0.1,0,0c0,0,0,0,0,0c0,0,0,0,0.1,0c0,0,0,0,0,0c0,0,0.1,0,0.1,0c-0.1,0,0,0,0,0
					c0,0,0.1,0,0.1,0c0.1,0,0.2,0,0.3,0c0.2,0,0.5,0,0.7,0c0.1,0,0.2,0,0.2,0c0,0,0,0,0,0c0,0,0.1,0,0,0c0,0,0,0,0,0c0,0,0.1,0,0,0
					c0,0,0,0,0,0c0,0,0,0,0.1,0c-0.1,0,0,0,0,0c0,0,0,0,0,0c0.1,0.1,0,0,0,0c0,0,0,0,0,0.1c0,0,0,0.1,0,0c0,0,0,0.1,0,0
					c0,0,0,0.1,0,0.1c0,0.1,0,0.3,0,0.4c0,0.9,0,1.7,0,2.6c0,0,0,0,0,0.1c0,0.2,0.2,0.3,0.3,0.3c0.5,0,0.9,0,1.4,0
					c1.1,0,2.2,0,3.3,0c1.3,0,2.7,0,4,0c1.2,0,2.3,0,3.5,0c0.6,0,1.1,0,1.7,0c0,0,0,0,0,0c0.2,0,0.3-0.2,0.3-0.3c0-0.8,0-1.6,0-2.3
					c0-0.3,0-0.6,0-0.8c0,0.1,0,0,0-0.1c0,0.1,0,0,0-0.1c0,0,0-0.1,0,0c0,0,0,0,0,0c0,0,0,0,0,0c0,0,0,0,0,0c0,0,0,0,0.1,0
					c0,0-0.1,0,0,0c0,0,0,0,0.1,0c0,0-0.1,0,0,0c0,0,0,0,0.1,0c0.2,0,0.4,0,0.6,0c0.2,0,0.5,0,0.7,0c0,0,0,0,0.1,0c0,0,0,0,0,0
					c0.1,0,0,0,0,0c0,0,0,0,0.1,0c0,0,0,0,0,0c0,0,0,0,0.1,0c0,0,0,0,0,0c0,0,0,0,0,0c0.1,0.1,0,0,0,0c0,0,0,0,0,0.1
					C20.8,11.1,20.8,11,20.8,11.2C20.8,11.1,20.8,11.1,20.8,11.2C20.8,11.1,20.8,11.2,20.8,11.2c0,0.2,0.2,0.4,0.3,0.3
					c0.2,0,0.4-0.2,0.3-0.3c0-0.5-0.4-0.9-0.9-1c-0.2,0-0.4,0-0.6,0c-0.3,0-0.5,0-0.8,0c-0.3,0-0.5,0-0.7,0.2
					c-0.3,0.2-0.5,0.5-0.5,0.9c0,0.1,0,0.3,0,0.4c0,0.5,0,1,0,1.5c0,0.4,0,0.7,0,1.1c0.1-0.1,0.2-0.2,0.3-0.3c-0.5,0-0.9,0-1.4,0
					c-1.1,0-2.2,0-3.3,0c-1.3,0-2.7,0-4,0c-1.2,0-2.3,0-3.5,0c-0.4,0-0.8,0-1.1,0c-0.2,0-0.4,0-0.5,0c0,0,0,0,0,0
					c0.1,0.1,0.2,0.2,0.3,0.3c0-0.8,0-1.6,0-2.4c0-0.2,0-0.4,0-0.5c0-0.2,0-0.3-0.1-0.5c-0.2-0.4-0.5-0.7-1-0.7c-0.2,0-0.4,0-0.6,0
					c-0.2,0-0.5,0-0.7,0c-0.3,0-0.6,0.1-0.8,0.3c-0.2,0.2-0.3,0.5-0.3,0.7c0,0.1,0,0.2,0,0.3c0,0.9,0,1.8,0,2.8c0,0.8,0,1.5,0,2.3
					c0,0,0,0,0,0c0,0.2,0.2,0.3,0.3,0.3c0.2,0,0.3,0,0.5,0c0.5,0,0.9,0,1.4,0c0.7,0,1.4,0,2.1,0c0.8,0,1.7,0,2.5,0
					c0.9,0,1.8,0,2.8,0c0.9,0,1.9,0,2.8,0c0.9,0,1.7,0,2.6,0c0.7,0,1.5,0,2.2,0c0.5,0,1.1,0,1.6,0c0.3,0,0.5,0,0.8,0c0,0,0,0,0,0
					c0.2,0,0.3-0.2,0.3-0.3c0-0.6,0-1.2,0-1.8c0-1,0-1.9,0-2.9c0-0.2,0-0.4,0-0.7c0-0.2-0.2-0.4-0.3-0.3C21,10.8,20.8,11,20.8,11.2z
					"/>
			</g>
		</g>
		<g class="st1">
			<g>
				<path class="st2" d="M19.4,6.9c0,1.1,0,2.1,0,3.2c0,0.1,0,0.3,0,0.4c0.1-0.1,0.2-0.2,0.3-0.3c-0.4,0-0.8-0.1-1.1,0.1
					c-0.3,0.2-0.5,0.5-0.6,0.9c0,0.1,0,0.1,0,0.2c0,0.7,0,1.5,0,2.2c0,0.2,0,0.5,0,0.7c0.1-0.1,0.2-0.2,0.3-0.3c-0.5,0-0.9,0-1.4,0
					c-1.1,0-2.2,0-3.3,0c-1.3,0-2.7,0-4,0c-1.2,0-2.3,0-3.5,0c-0.4,0-0.8,0-1.1,0c-0.2,0-0.4,0-0.5,0c0,0,0,0,0,0
					c0.1,0.1,0.2,0.2,0.3,0.3c0-0.6,0-1.2,0-1.8c0-0.4,0-0.7,0-1.1c0-0.1,0-0.2,0-0.2c0-0.3-0.1-0.6-0.3-0.8
					c-0.2-0.2-0.5-0.3-0.8-0.3c-0.2,0-0.4,0-0.6,0c0.1,0.1,0.2,0.2,0.3,0.3c0-0.6,0-1.3,0-1.9c0-0.4,0-0.8,0-1.2c0-0.1,0-0.2,0-0.4
					c0,0,0,0,0-0.1c0,0,0-0.1,0-0.1c0,0,0,0,0,0c0,0.1,0,0,0,0c0,0,0-0.1,0-0.1c0,0,0-0.1,0-0.1c0,0,0-0.1,0,0c0,0,0,0,0,0
					c0-0.1,0.1-0.1,0.1-0.2c0,0,0,0,0,0c0,0,0,0,0,0c0,0,0-0.1,0.1-0.1c0,0,0.1,0,0.1-0.1c0,0,0,0,0,0C4,6,4,6,4,6
					c0,0,0.1,0,0.1-0.1c0,0,0,0,0.1,0c0,0,0.1,0,0,0c0,0,0,0,0,0c0,0,0,0,0.1,0c0,0,0.1,0,0.1,0c0,0,0.1,0,0.1,0c0,0,0.1,0,0.1,0
					c0,0,0,0,0.1,0c0.1,0,0.2,0,0.2,0c0.5,0,0.9,0,1.4,0c0.8,0,1.5,0,2.3,0c0.9,0,1.8,0,2.7,0c0.9,0,1.9,0,2.8,0c0.8,0,1.6,0,2.4,0
					c0.5,0,1,0,1.6,0c0.1,0,0.2,0,0.3,0c0,0,0,0,0,0c0,0,0,0,0,0c0,0,0,0,0,0c0,0,0,0,0.1,0c0,0,0.1,0,0,0c0,0,0,0,0,0
					c0,0,0,0,0.1,0c0,0,0.1,0,0.1,0c0,0,0.1,0,0.1,0c0,0,0,0,0,0c0,0,0.1,0,0.1,0C18.9,6,19,6,19,6c0,0,0.1,0.1,0,0
					c0.1,0.1,0.1,0.1,0.2,0.2c0,0,0,0,0,0c0,0,0-0.1,0,0c0,0,0,0.1,0.1,0.1c0,0,0,0.1,0.1,0.1c0,0,0,0,0,0.1c0,0,0-0.1,0,0
					c0,0.1,0,0.1,0.1,0.2c0,0,0,0,0,0.1c0,0,0-0.1,0,0C19.4,6.8,19.4,6.9,19.4,6.9c0,0.2,0.2,0.4,0.3,0.3c0.2,0,0.4-0.2,0.3-0.3
					c0-0.8-0.5-1.4-1.2-1.7c-0.2-0.1-0.4-0.1-0.7-0.1c-0.4,0-0.8,0-1.2,0c-0.7,0-1.5,0-2.2,0c-0.9,0-1.8,0-2.8,0c-1,0-1.9,0-2.9,0
					c-0.8,0-1.7,0-2.5,0c-0.5,0-1.1,0-1.7,0c-0.1,0-0.2,0-0.4,0c-0.4,0-0.8,0.1-1.1,0.3C3.1,5.8,2.9,6.4,2.9,6.9c0,0.3,0,0.6,0,0.9
					c0,0.8,0,1.7,0,2.5c0,0.1,0,0.1,0,0.2c0,0.2,0.2,0.3,0.3,0.3c0.2,0,0.3,0,0.5,0c0.1,0,0.1,0,0.2,0c0,0,0,0,0.1,0c0.1,0,0,0,0,0
					c0,0,0,0,0,0c0,0,0.1,0,0,0c0,0,0,0,0,0c0,0,0.1,0.1,0,0c0,0,0,0,0.1,0.1c0,0,0,0,0,0c0,0,0,0,0,0c0,0,0,0.1,0,0
					c0,0,0,0.1,0,0.1c0-0.1,0,0,0,0c0,0,0,0,0,0c0,0.1,0,0.1,0,0.2c0,0.7,0,1.5,0,2.2c0,0.2,0,0.4,0,0.7c0,0.2,0.2,0.3,0.3,0.3
					c0.5,0,0.9,0,1.4,0c1.1,0,2.2,0,3.3,0c1.3,0,2.7,0,4,0c1.2,0,2.3,0,3.5,0c0.6,0,1.1,0,1.7,0c0,0,0,0,0,0c0.2,0,0.3-0.2,0.3-0.3
					c0-0.6,0-1.1,0-1.7c0-0.4,0-0.7,0-1.1c0-0.1,0-0.2,0-0.3c0,0,0,0,0,0c0,0,0-0.1,0,0c0,0,0,0,0-0.1c0,0,0,0,0,0c0,0,0,0,0,0
					c0,0,0,0,0-0.1c0,0,0,0,0,0c0,0,0-0.1,0.1-0.1c-0.1,0,0,0,0.1,0c0,0,0.1,0,0,0c0,0,0,0,0,0c0,0,0.1,0,0,0c0,0,0,0,0,0
					c0.1,0,0.1,0,0.2,0c0.2,0,0.4,0,0.5,0c0.2,0,0.3-0.2,0.3-0.3c0-1.1,0-2.1,0-3.2c0-0.1,0-0.3,0-0.4c0-0.2-0.2-0.4-0.3-0.3
					C19.6,6.6,19.4,6.7,19.4,6.9z"/>
			</g>
		</g>
		<g class="st1">
			<g>
				<path class="st2" d="M18.4,12.2c-0.5,0-0.9,0-1.4,0c-1.1,0-2.2,0-3.3,0c-1.3,0-2.7,0-4,0c-1.2,0-2.3,0-3.5,0c-0.6,0-1.1,0-1.7,0
					c0,0,0,0,0,0c-0.2,0-0.4,0.2-0.3,0.3c0,0.2,0.2,0.3,0.3,0.3c0.5,0,0.9,0,1.4,0c1.1,0,2.2,0,3.3,0c1.3,0,2.7,0,4,0
					c1.2,0,2.3,0,3.5,0c0.6,0,1.1,0,1.7,0c0,0,0,0,0,0c0.2,0,0.4-0.2,0.3-0.3C18.8,12.4,18.6,12.2,18.4,12.2L18.4,12.2z"/>
			</g>
		</g>
		<g class="st1">
			<g>
				<path class="st2" d="M11.8,12.6c0-0.8,0-1.6,0-2.4c0-1.3,0-2.5,0-3.8c0-0.3,0-0.6,0-0.9c0-0.2-0.2-0.4-0.3-0.3
					c-0.2,0-0.3,0.2-0.3,0.3c0,0.8,0,1.6,0,2.4c0,1.3,0,2.5,0,3.8c0,0.3,0,0.6,0,0.9c0,0.2,0.2,0.4,0.3,0.3
					C11.7,12.9,11.8,12.8,11.8,12.6L11.8,12.6z"/>
			</g>
		</g>
	</g>
	<g class="st1">
		<g>
			<path class="st4" d="M19.7,8.5V7.8c0-1.4-1.2-2.6-2.6-2.6H5.9c-1.4,0-2.6,1.2-2.6,2.6v0.7c-0.9,0-1.7,0.8-1.7,1.8v4
				c0,1.1,0.9,2,2,2H4v1.5h0.7v-1.5h0.7h12.2h0.7v1.5H19v-1.5h0.3c1.1,0,2-0.9,2-2v-4C21.4,9.3,20.6,8.5,19.7,8.5z M5.1,15.7H3.7
				c-0.8,0-1.4-0.6-1.4-1.4v-4c0-0.6,0.5-1.1,1.1-1.1H4c0.6,0,1.1,0.5,1.1,1.1V15.7z M5.7,13.2h11.6v2.5H5.7V13.2z M17.3,10.2v2.3
				H5.7v-2.3c0-1-0.8-1.7-1.7-1.8V7.8c0-1.1,0.9-1.9,1.9-1.9h11.1c1.1,0,1.9,0.9,1.9,1.9v0.7C18,8.5,17.3,9.3,17.3,10.2z M20.7,14.3
				c0,0.8-0.6,1.4-1.4,1.4h-1.4v-5.4c0-0.6,0.5-1.1,1.1-1.1h0.6c0.6,0,1.1,0.5,1.1,1.1L20.7,14.3L20.7,14.3z"/>
			<path class="st4" d="M19.1,17.9h-0.9v-1.5H4.8v1.5H3.9v-1.5H3.7c-1.2,0-2.2-1-2.2-2.2v-4c0-1,0.8-1.8,1.7-1.9V7.8
				c0-1.5,1.2-2.7,2.7-2.7h11.1c1.5,0,2.7,1.2,2.7,2.7v0.6c1,0.1,1.7,0.9,1.7,1.9v4c0,1.2-1,2.2-2.2,2.2h-0.2V17.9z M18.5,17.7h0.4
				v-1.5h0.4c1.1,0,1.9-0.9,1.9-1.9v-4c0-0.9-0.7-1.6-1.6-1.6l-0.1,0V7.8c0-1.4-1.1-2.5-2.5-2.5H5.9c-1.4,0-2.5,1.1-2.5,2.5v0.8
				l-0.1,0c-0.9,0-1.6,0.7-1.6,1.6v4c0,1.1,0.9,1.9,1.9,1.9h0.4v1.5h0.4v-1.5h14V17.7z M19.3,15.8h-1.5v-5.6C17.8,9.6,18.4,9,19,9
				h0.6c0.7,0,1.2,0.5,1.2,1.2v4C20.8,15.1,20.2,15.8,19.3,15.8z M18.1,15.5h1.3c0.7,0,1.3-0.6,1.3-1.3v-4c0-0.5-0.4-1-1-1H19
				c-0.5,0-1,0.4-1,1V15.5z M5.2,15.8H3.7c-0.8,0-1.5-0.7-1.5-1.5v-4C2.2,9.6,2.7,9,3.4,9H4c0.7,0,1.2,0.5,1.2,1.2V15.8z M3.4,9.3
				c-0.5,0-1,0.4-1,1v4c0,0.7,0.6,1.3,1.3,1.3h1.3v-5.3c0-0.5-0.4-1-1-1H3.4z M17.4,15.8H5.6v-2.7h11.8V15.8z M5.8,15.5h11.3v-2.2
				H5.8V15.5z M17.4,12.6H5.6v-2.4c0-0.9-0.7-1.6-1.6-1.6l-0.1,0V7.8c0-1.1,0.9-2.1,2.1-2.1h11.1c1.1,0,2,0.9,2,2.1v0.8l-0.1,0
				c-0.9,0-1.6,0.7-1.6,1.6V12.6z M5.8,12.4h11.3v-2.2c0-1,0.8-1.8,1.7-1.9V7.8c0-1-0.8-1.8-1.8-1.8H5.9c-1,0-1.8,0.8-1.8,1.8v0.6
				c1,0.1,1.7,0.9,1.7,1.9V12.4z"/>
		</g>
	</g>
</g>
<g id="Chambre_x2" class="st0">
	<g id="Calque_17">
		<path class="st3" d="M3.9,12.6c-0.3,0-0.5-0.2-0.5-0.5V2c0-0.3,0.2-0.5,0.5-0.5S4.4,1.7,4.4,2v10.1C4.4,12.3,4.2,12.6,3.9,12.6z"
			/>
		<path class="st3" d="M3.9,21.5c-0.3,0-0.5-0.2-0.5-0.5V10.9c0-0.3,0.2-0.5,0.5-0.5s0.5,0.2,0.5,0.5V21C4.4,21.3,4.2,21.5,3.9,21.5
			z"/>
		<path class="st3" d="M19.1,21.5c-0.3,0-0.5-0.2-0.5-0.5v-8.5c0-0.3,0.2-0.5,0.5-0.5c0.3,0,0.5,0.2,0.5,0.5V21
			C19.5,21.3,19.3,21.5,19.1,21.5z"/>
		<path class="st3" d="M19.1,12.6c-0.3,0-0.5-0.2-0.5-0.5V3.6c0-0.3,0.2-0.5,0.5-0.5c0.3,0,0.5,0.2,0.5,0.5v8.5
			C19.5,12.3,19.3,12.6,19.1,12.6z"/>
		<path class="st3" d="M18.7,17.7H3.9c-0.3,0-0.5-0.2-0.5-0.5c0-0.3,0.2-0.5,0.5-0.5h14.7c0.3,0,0.5,0.2,0.5,0.5
			C19.2,17.5,18.9,17.7,18.7,17.7z"/>
		<path class="st3" d="M18.7,8.8H4c-0.3,0-0.5-0.2-0.5-0.5S3.7,7.8,4,7.8h14.7c0.3,0,0.5,0.2,0.5,0.5S18.9,8.8,18.7,8.8z"/>
		<path class="st3" d="M7.9,17.3c-0.3,0-0.5-0.2-0.5-0.5c0-1.4-0.4-2.4-1.1-3c-1-0.8-2.3-0.5-2.3-0.5c-0.3,0.1-0.5-0.1-0.6-0.4
			c-0.1-0.3,0.1-0.5,0.4-0.6C4,12.3,5.7,12,7,13.1c0.9,0.8,1.4,2,1.4,3.7C8.4,17.1,8.2,17.3,7.9,17.3z"/>
		<path class="st3" d="M7.9,8.4c-0.3,0-0.5-0.2-0.5-0.5c0-1.4-0.4-2.4-1.1-3c-1-0.8-2.3-0.5-2.3-0.5C3.8,4.5,3.6,4.3,3.5,4
			C3.5,3.8,3.6,3.5,3.9,3.5C4,3.5,5.7,3.1,7,4.2c0.9,0.8,1.4,2,1.4,3.7C8.4,8.2,8.2,8.4,7.9,8.4z"/>
		<path class="st3" d="M18.7,15.3H8c-0.3,0-0.5-0.2-0.5-0.5c0-0.3,0.2-0.5,0.5-0.5h10.7c0.3,0,0.5,0.2,0.5,0.5
			C19.2,15.1,19,15.3,18.7,15.3z"/>
		<path class="st3" d="M18.7,6.4H8c-0.3,0-0.5-0.2-0.5-0.5S7.7,5.4,8,5.4h10.7c0.3,0,0.5,0.2,0.5,0.5S19,6.4,18.7,6.4z"/>
	</g>
	<g transform="translate(-210 -260)">
		<g class="st1">
			<g>
				<path class="st2" d="M230.6,270.4h-13.7v-1.5c0-0.4-0.3-0.8-0.8-0.8h-3.8v-3.8h-0.8v4.6v1.5v0.8v4.6v3h0.8v-2.3h18.3v2.3h0.8v-3
					v-0.8v-3.8C231.4,270.7,231.1,270.4,230.6,270.4z M216.2,268.8v1.5h-3.8v-1.5H216.2z M230.6,275.7h-18.3v-0.8v-3.8h3.8h14.5
					V275.7z"/>
				<path class="st2" d="M231.5,278.8h-1v-2.3h-18.1v2.3h-1v-14.7h1v3.8h3.7c0.5,0,0.9,0.4,0.9,0.9v1.4h13.6c0.5,0,0.9,0.4,0.9,0.9
					V278.8z M230.7,278.6h0.6v-7.5c0-0.4-0.3-0.7-0.7-0.7h-13.8v-1.6c0-0.4-0.3-0.7-0.7-0.7h-3.9v-3.8h-0.6v14.3h0.6v-2.3h18.5
					V278.6z M230.7,275.8h-18.5V271h18.5V275.8z M212.5,275.6h18.1v-4.4h-18.1V275.6z M216.3,270.5h-4v-1.7h4V270.5z M212.5,270.3
					h3.6v-1.3h-3.6V270.3z"/>
			</g>
		</g>
	</g>
</g>
<g id="Toilettes" class="st0">
	<g class="st1">
		<g>
			<path class="st2" d="M5.9,21.1c-0.2-0.2-0.2-0.5-0.2-0.8L6,19.2c0.2-1-0.1-2-1-2.7c-1.4-1.2-2.2-2.9-2.2-4.7v-1.1
				c0-0.2,0.2-0.4,0.4-0.4h16.7c0.2,0,0.4,0.2,0.4,0.4v1.1c0,1.5-1.9,2.8-3.5,3.8c-0.5,0.3-0.9,0.6-1.2,0.9c-0.8,0.7-1.2,1.7-1,2.7
				l0.3,1.2c0.1,0.3,0,0.6-0.2,0.8s-0.4,0.4-0.7,0.4H6.6C6.3,21.5,6,21.4,5.9,21.1z M3.6,11v0.7c0,1.6,0.7,3.1,1.9,4.1
				c1.1,0.9,1.6,2.3,1.3,3.6l-0.3,1.2c0,0,0,0.1,0,0.1c0,0,0,0,0.1,0h7.3c0,0,0.1,0,0.1,0c0,0,0,0,0-0.1l-0.3-1.2
				c-0.3-1.3,0.2-2.7,1.3-3.6c0.3-0.3,0.8-0.6,1.3-0.9c1.3-0.9,3.1-2.1,3.1-3.2V11H3.6z"/>
		</g>
		<g>
			<path class="st2" d="M2.8,10.6V1.9c0-0.2,0.2-0.4,0.4-0.4h3.3c0.2,0,0.4,0.2,0.4,0.4v8.7c0,0.2-0.2,0.4-0.4,0.4H3.2
				C2.9,11,2.8,10.9,2.8,10.6z M6.1,2.3H3.6v7.9h2.5V2.3z"/>
		</g>
		<g>
			<path class="st2" d="M4.5,5V3.7c0-0.2,0.2-0.4,0.4-0.4s0.4,0.2,0.4,0.4V5c0,0.2-0.2,0.4-0.4,0.4S4.5,5.2,4.5,5z"/>
		</g>
	</g>
</g>
<g id="Salle_de_bain" class="st0">
	<g class="st1">
		<g transform="translate(0,-952.36218)">
			<path class="st2" d="M8.8,963.2L8.8,963.2c-0.3,0-0.5,0.2-0.5,0.5v0.7c0,0.3,0.2,0.5,0.5,0.5c0.3,0,0.4-0.2,0.5-0.4c0,0,0,0,0,0
				v-0.7C9.2,963.4,9,963.2,8.8,963.2z M10.4,962.7L10.4,962.7c-0.3,0-0.5,0.2-0.5,0.5v0.7c0,0.3,0.2,0.5,0.5,0.5
				c0.3,0,0.5-0.2,0.5-0.5c0,0,0,0,0,0v-0.7C10.8,962.9,10.6,962.7,10.4,962.7z M7.2,962.7L7.2,962.7c-0.3,0-0.5,0.2-0.5,0.5v0.7
				c0,0.3,0.2,0.5,0.5,0.5c0.3,0,0.5-0.2,0.5-0.5c0,0,0,0,0,0v-0.7C7.6,962.9,7.4,962.7,7.2,962.7z M8.8,960.7L8.8,960.7
				c-0.3,0-0.5,0.2-0.5,0.5v0.7c0,0.3,0.2,0.5,0.5,0.5s0.4-0.2,0.5-0.4v-0.7C9.2,960.9,9,960.7,8.8,960.7z M10.4,960.2
				C10.3,960.2,10.3,960.2,10.4,960.2c-0.3,0-0.5,0.2-0.5,0.5v0.7c0,0.3,0.2,0.5,0.5,0.5c0.3,0,0.5-0.2,0.5-0.5v-0.7
				C10.8,960.4,10.6,960.2,10.4,960.2z M7.2,960.2C7.2,960.2,7.2,960.2,7.2,960.2c-0.3,0-0.5,0.2-0.5,0.5v0.7c0,0.3,0.2,0.5,0.5,0.5
				c0.3,0,0.5-0.2,0.5-0.5v-0.7C7.6,960.4,7.4,960.2,7.2,960.2z"/>
			<path class="st2" d="M21,965.4h-9.8c0,0,0,0,0,0H4.7v-8.2c0-1,0.8-1.8,1.8-1.8c0.9,0,1.6,0.6,1.8,1.4H7.8c-0.1,0-0.2,0.1-0.3,0.2
				l-1.4,1.8C6,959,6,959.3,6.2,959.4c0.1,0.1,0.2,0.1,0.3,0.1H11c0.3,0,0.5-0.2,0.5-0.5c0-0.1,0-0.2-0.1-0.3L10,957
				c-0.1-0.1-0.2-0.2-0.4-0.2H9.2c-0.2-1.3-1.3-2.3-2.7-2.3c-1.5,0-2.7,1.2-2.7,2.7v8.2H1.9c-0.2,0-0.4,0.2-0.4,0.4v2.7
				c0,1.1,0.8,2.1,1.9,2.3l-0.5,1.7c-0.1,0.2,0,0.5,0.3,0.6c0.2,0.1,0.5,0,0.6-0.3c0,0,0,0,0-0.1l0.6-1.9h14.3l0.6,1.9
				c0,0.2,0.3,0.4,0.5,0.4c0.2,0,0.4-0.3,0.4-0.5c0,0,0,0,0-0.1l-0.5-1.7c1.1-0.2,1.9-1.1,1.9-2.3v-2.7
				C21.5,965.6,21.3,965.4,21,965.4z M9.5,957.7l0.7,0.9H7.4l0.7-0.9H9.5z M20.6,968.6c0,0.8-0.6,1.4-1.4,1.4H3.8
				c-0.8,0-1.4-0.6-1.4-1.4v-2.2h8.9c0,0,0,0,0,0H13c0,0,0,0,0,0h7.5V968.6z"/>
		</g>
	</g>
</g>
<g id="Terrasse" class="st0">
	<g class="st1">
		<g>
			<g>
				<g>
					<path class="st2" d="M15.6,7.5c-0.6,0-1.1,0.4-1.7,1.2c-1-3.5-2.6-7.2-4.7-7.2c-3.2,0-5.5,9.3-5.5,12.2c0,2.9,2.3,5.3,5.1,5.5
						v2.3h0.9v-2.3c1.2-0.1,2.3-0.6,3.1-1.3c0.6,0.7,1.5,1.2,2.4,1.3v2.3H16v-2.3c0.8-0.1,1.6-0.5,2.2-1.1c0.7-0.7,1.1-1.6,1.1-2.6
						C19.3,13.9,17.9,7.5,15.6,7.5z M12.5,17L12.5,17c-0.8,0.8-1.8,1.3-2.9,1.4v-3.5l1.5-1.5l-0.6-0.6l-0.9,0.9v-1.3H8.8v2.6L7.9,14
						l-0.6,0.6l1.5,1.6v2.2c-2.4-0.2-4.2-2.2-4.2-4.7c0-2.9,2.4-11.3,4.7-11.3c1.6,0,3.2,4,4.1,7.5c0,0,0,0.1,0,0.2
						c0.1,0.4,0.2,0.7,0.2,1.1c0,0,0,0,0,0.1c0.1,0.5,0.2,1,0.2,1.4c0.1,0.4,0.1,0.8,0.1,1.1c0,0.6-0.1,1.2-0.4,1.8
						c-0.2,0.4-0.4,0.8-0.7,1.2C12.7,16.8,12.6,16.9,12.5,17z M16,18.3v-0.9h-0.9v0.9c-0.7-0.1-1.3-0.4-1.7-1c0,0,0-0.1,0.1-0.1
						c0,0,0,0,0.1-0.1c0.1-0.1,0.2-0.2,0.3-0.3c0.1-0.2,0.2-0.4,0.3-0.5c0.1-0.1,0.2-0.3,0.2-0.4c0,0,0,0,0,0
						c0.1-0.1,0.1-0.2,0.1-0.3c0-0.1,0.1-0.2,0.1-0.3c0,0,0-0.1,0-0.1c0-0.1,0.1-0.3,0.1-0.4c0-0.1,0-0.3,0.1-0.4c0-0.2,0-0.4,0-0.6
						c0-0.4,0-0.8-0.1-1.4c0-0.4-0.1-0.8-0.2-1.3c-0.1-0.4-0.1-0.7-0.2-1.1v0c0.5-1,1-1.5,1.4-1.5c1.3,0,2.8,5.1,2.8,7.1
						C18.4,17,17.4,18.1,16,18.3z"/>
				</g>
			</g>
		</g>
		<g>
			<g>
				<g>
					<path class="st4" d="M13.9,13.7c0-0.3,0-0.7-0.1-1.1C13.9,13,13.9,13.4,13.9,13.7c0,0.6-0.1,1.2-0.4,1.8
						C13.8,15,13.9,14.3,13.9,13.7z M13.3,9.9L13.3,9.9l0,0.2C13.3,10,13.3,9.9,13.3,9.9z"/>
				</g>
			</g>
		</g>
	</g>
</g>
<g id="Cuisine" class="st0">
	<g class="st1">
		<path class="st2" d="M10.2,7L10,1.9c0-0.2-0.1-0.3-0.3-0.3l-0.9,0c-0.1,0-0.2,0-0.2,0.1C8.5,1.7,8.5,1.8,8.5,1.9L8.4,6.7
			c0,0.1-0.1,0.1-0.1,0.1c0,0-0.1,0-0.1-0.1c0,0,0-0.1,0-0.1l0.1-4.8c0-0.2-0.2-0.3-0.3-0.3l-1.2,0c-0.2,0-0.3,0.1-0.3,0.3l0,4.8
			c0,0.1-0.1,0.1-0.2,0.1c0,0,0,0,0,0C6,6.8,5.9,6.7,5.9,6.6L6,1.8c0-0.2-0.1-0.3-0.3-0.3l-0.9,0c-0.2,0-0.3,0.1-0.3,0.3L4.1,7
			c0,1.4,1,2.5,2.3,2.8L5.9,20c0,0.8,0.6,1.5,1.3,1.5c0.3,0,0.6-0.1,0.8-0.4c0.3-0.3,0.4-0.7,0.4-1.2L8,9.8C9.3,9.5,10.2,8.4,10.2,7
			z M7.3,9.6L7.8,20c0,0.5-0.3,0.9-0.7,0.9S6.5,20.5,6.5,20L7.1,9.6c0-0.1-0.1-0.3-0.3-0.3c-1.1-0.1-2-1.1-2-2.3l0.3-4.9h0.3l0,4.5
			c0,0.4,0.4,0.8,0.8,0.8c0.4,0,0.8-0.3,0.8-0.8l0.1-4.5l0.6,0l0,4.5c0,0.2,0.1,0.4,0.2,0.5C7.8,7.4,8,7.5,8.3,7.5h0
			C8.7,7.5,9,7.1,9,6.7l0-4.5h0.3L9.6,7c0,1.1-0.9,2.1-2,2.2C7.4,9.3,7.3,9.4,7.3,9.6z"/>
	</g>
	<g class="st1">
		<path class="st2" d="M18.9,6.5c0-2.3-1.7-5-3.1-5s-3.1,2.8-3.1,5c0,1.9,1.1,3.1,2.3,3.5L14.5,20c0,0.8,0.6,1.5,1.3,1.5
			c0.3,0,0.6-0.1,0.8-0.4c0.3-0.3,0.4-0.7,0.4-1.2L16.6,10C17.7,9.7,18.9,8.4,18.9,6.5z M16.2,9.5c-0.1,0-0.3,0.2-0.2,0.3L16.5,20
			c0,0.5-0.3,0.9-0.7,0.9s-0.7-0.4-0.7-0.9l0.5-10.2c0-0.2-0.1-0.3-0.3-0.3c-1-0.2-2-1.3-2-3c0-2,1.5-4.4,2.4-4.4
			c0.4,0,1,0.6,1.6,1.4c0.5,0.9,0.9,2,0.9,3C18.3,8.3,17.2,9.3,16.2,9.5z"/>
	</g>
</g>
<g id="Mon_compte" class="st0">
	<path class="st3" d="M16.2,7.5c0-0.4-0.3-0.7-0.7-0.7s-0.7,0.3-0.7,0.7v0.7C13,6.4,10.1,6.4,8.2,8.2s-1.9,4.8-0.1,6.6
		s4.8,1.9,6.6,0.1c0.2-0.2,0.3-0.3,0.5-0.5c0.8,1.6,2.8,2.3,4.5,1.5c1.1-0.6,1.8-1.7,1.8-3v-1.1c0.1-5.4-4.1-9.9-9.5-10.3
		C6.5,1.2,1.8,5.5,1.5,11c0,0.2,0,0.3,0,0.5c0,5.5,4.5,10,10,10h9.3c0.4,0,0.7-0.3,0.7-0.7s-0.3-0.7-0.7-0.7h-9.3
		c-4.8,0-8.7-3.9-8.7-8.7c0-4.8,3.9-8.7,8.7-8.7c0.1,0,0.3,0,0.4,0c4.7,0.3,8.3,4.2,8.2,8.9v1.1c0,1.1-0.9,2-2,2s-2-0.9-2-2V7.5z
		 M11.5,14.8c-1.8,0-3.3-1.5-3.3-3.3s1.5-3.3,3.3-3.3s3.3,1.5,3.3,3.3C14.8,13.3,13.3,14.8,11.5,14.8z"/>
</g>
<g id="Notifications" class="st0">
	<g id="Calque_9" class="st1">
		<g>
			<g>
				<path class="st2" d="M11.5,1.5c-5.5,0-10,4.5-10,10c0,5.5,4.5,10,10,10c5.5,0,10-4.5,10-10C21.5,6,17,1.5,11.5,1.5z M11.5,19.9
					c-4.7,0-8.4-3.8-8.4-8.4c0-4.7,3.8-8.4,8.4-8.4c4.7,0,8.4,3.8,8.4,8.4C19.9,16.2,16.2,19.9,11.5,19.9z"/>
			</g>
		</g>
		<g>
			<g>
				<path class="st2" d="M11.5,6.5c-0.4,0-0.8,0.3-0.8,0.8v5c0,0.4,0.3,0.8,0.8,0.8c0.4,0,0.8-0.3,0.8-0.8v-5
					C12.3,6.9,11.9,6.5,11.5,6.5z"/>
			</g>
		</g>
		<g>
			<g>
				<circle class="st2" cx="11.5" cy="15.1" r="1.1"/>
			</g>
		</g>
	</g>
</g>
<g id="Liste" class="st0">
	<g class="st1">
		<g>
			<g>
				<path class="st2" d="M6.6,19.3c0.5,0,0.9,0,1.4,0c1.1,0,2.2,0,3.3,0c1.3,0,2.7,0,4,0c1.2,0,2.3,0,3.5,0c0.6,0,1.1,0,1.7,0
					c0,0,0,0,0,0c0.3,0,0.5-0.1,0.7-0.3c0.2-0.2,0.3-0.5,0.3-0.7c0-0.3-0.1-0.5-0.3-0.7c-0.2-0.2-0.4-0.3-0.7-0.3
					c-0.5,0-0.9,0-1.4,0c-1.1,0-2.2,0-3.3,0c-1.3,0-2.7,0-4,0c-1.2,0-2.3,0-3.5,0c-0.6,0-1.1,0-1.7,0c0,0,0,0,0,0
					c-0.3,0-0.5,0.1-0.7,0.3c-0.2,0.2-0.3,0.5-0.3,0.7c0,0.3,0.1,0.5,0.3,0.7C6.1,19.2,6.4,19.3,6.6,19.3L6.6,19.3z"/>
			</g>
		</g>
		<g>
			<g>
				<path class="st2" d="M2.5,19.3c0.2,0,0.4,0,0.6,0c0.3,0,0.5-0.1,0.7-0.3c0.2-0.2,0.3-0.5,0.3-0.7c0-0.3-0.1-0.5-0.3-0.7
					c-0.2-0.2-0.4-0.3-0.7-0.3c-0.2,0-0.4,0-0.6,0c-0.3,0-0.5,0.1-0.7,0.3c-0.2,0.2-0.3,0.5-0.3,0.7c0,0.3,0.1,0.5,0.3,0.7
					C2,19.2,2.3,19.3,2.5,19.3L2.5,19.3z"/>
			</g>
		</g>
		<g>
			<g>
				<path class="st2" d="M6.6,12.5c0.5,0,0.9,0,1.4,0c1.1,0,2.2,0,3.3,0c1.3,0,2.7,0,4,0c1.2,0,2.3,0,3.5,0c0.6,0,1.1,0,1.7,0
					c0,0,0,0,0,0c0.3,0,0.5-0.1,0.7-0.3c0.2-0.2,0.3-0.5,0.3-0.7c0-0.3-0.1-0.5-0.3-0.7c-0.2-0.2-0.4-0.3-0.7-0.3
					c-0.5,0-0.9,0-1.4,0c-1.1,0-2.2,0-3.3,0c-1.3,0-2.7,0-4,0c-1.2,0-2.3,0-3.5,0c-0.6,0-1.1,0-1.7,0c0,0,0,0,0,0
					c-0.3,0-0.5,0.1-0.7,0.3c-0.2,0.2-0.3,0.5-0.3,0.7c0,0.3,0.1,0.5,0.3,0.7C6.1,12.4,6.4,12.5,6.6,12.5L6.6,12.5z"/>
			</g>
		</g>
		<g>
			<g>
				<path class="st2" d="M2.5,12.5c0.2,0,0.4,0,0.6,0c0.3,0,0.5-0.1,0.7-0.3c0.2-0.2,0.3-0.5,0.3-0.7c0-0.3-0.1-0.5-0.3-0.7
					c-0.2-0.2-0.4-0.3-0.7-0.3c-0.2,0-0.4,0-0.6,0c-0.3,0-0.5,0.1-0.7,0.3c-0.2,0.2-0.3,0.5-0.3,0.7c0,0.3,0.1,0.5,0.3,0.7
					C2,12.4,2.3,12.5,2.5,12.5L2.5,12.5z"/>
			</g>
		</g>
		<g>
			<g>
				<path class="st2" d="M6.6,5.7c0.5,0,0.9,0,1.4,0c1.1,0,2.2,0,3.3,0c1.3,0,2.7,0,4,0c1.2,0,2.3,0,3.5,0c0.6,0,1.1,0,1.7,0
					c0,0,0,0,0,0c0.3,0,0.5-0.1,0.7-0.3c0.2-0.2,0.3-0.5,0.3-0.7c0-0.3-0.1-0.5-0.3-0.7c-0.2-0.2-0.4-0.3-0.7-0.3
					c-0.5,0-0.9,0-1.4,0c-1.1,0-2.2,0-3.3,0c-1.3,0-2.7,0-4,0c-1.2,0-2.3,0-3.5,0c-0.6,0-1.1,0-1.7,0c0,0,0,0,0,0
					C6.4,3.7,6.1,3.8,5.9,4C5.7,4.1,5.6,4.4,5.6,4.7c0,0.3,0.1,0.5,0.3,0.7C6.1,5.6,6.4,5.7,6.6,5.7L6.6,5.7z"/>
			</g>
		</g>
		<g>
			<g>
				<path class="st2" d="M2.5,5.7c0.2,0,0.4,0,0.6,0c0.3,0,0.5-0.1,0.7-0.3C4.1,5.2,4.2,5,4.2,4.7c0-0.3-0.1-0.5-0.3-0.7
					C3.7,3.8,3.4,3.7,3.1,3.7c-0.2,0-0.4,0-0.6,0C2.3,3.7,2,3.8,1.8,4C1.6,4.1,1.5,4.4,1.5,4.7c0,0.3,0.1,0.5,0.3,0.7
					C2,5.6,2.3,5.7,2.5,5.7L2.5,5.7z"/>
			</g>
		</g>
	</g>
</g>
<g id="Map" class="st0">
	<g>
		<path class="st3" d="M21.3,10.5c-0.2-2.2-1.2-4.4-2.8-6c-1.3-1.3-3-2.3-4.9-2.7c-3.3-0.7-6.7,0.3-9.1,2.7c-2.1,2.1-3.1,5-2.8,7.9
			c0.2,2.3,1.2,4.4,2.8,6c1.9,1.9,4.4,2.9,7,2.9c0.4,0,0.8,0,1.2-0.1c0,0,0,0,0,0c2.2-0.3,4.2-1.2,5.8-2.8
			C20.6,16.4,21.6,13.4,21.3,10.5z M13.9,3.1C13.9,3.1,13.9,3.1,13.9,3.1c0-0.1,0-0.2,0-0.3c0,0,0-0.1,0-0.1c0,0,0-0.1,0-0.1
			C15.5,3.1,16.9,3.9,18,5c1.3,1.3,2.2,2.9,2.5,4.7c0,0-0.1-0.1-0.1-0.1c-0.1-0.1-0.3-0.2-0.4-0.3c-0.7-0.5-1-0.6-1.4-0.6
			c-0.3,0.1-0.5,0.4-0.6,0.7c-0.1,0.3-0.3,0.7-0.7,1c-0.3,0.2-1.6,0.3-2,0.1c-0.4-0.2-0.5-0.7-0.7-1.3c-0.1-0.4-0.2-0.8-0.4-1
			c0-0.1-0.1-0.1-0.1-0.2c0,0,0,0,0-0.1c0,0-0.1-0.1-0.1-0.1c0,0,0,0-0.1-0.1c0,0-0.1-0.1-0.1-0.1c0,0,0,0-0.1-0.1
			c0,0-0.1-0.1-0.1-0.1c0,0,0,0,0,0c0,0-0.1-0.1-0.1-0.1c0,0,0,0,0,0c-0.1,0-0.1-0.1-0.2-0.1c0,0,0,0,0,0c0,0-0.1,0-0.1-0.1
			c0,0,0,0-0.1,0c0,0-0.1,0-0.1,0c0,0,0,0-0.1,0c0,0-0.1,0-0.1,0c0,0,0,0-0.1,0c0,0-0.1,0-0.1,0c0,0,0,0,0,0c-0.1,0-0.1,0-0.2,0
			c0,0,0,0,0,0c-0.1,0-0.1,0-0.2,0c0,0,0,0,0,0c0,0-0.1,0-0.1,0c0,0,0,0-0.1,0c0,0,0,0-0.1,0c0,0,0,0,0,0c-0.1,0-0.3,0-0.4,0
			c-0.6,0-1.2,0-1.7-0.3C9.4,6.5,9.3,6.3,9.3,6.2c0-0.2,0.4-0.5,1.3-0.9c0.3-0.1,0.7-0.2,1-0.3C12.6,4.8,13.7,4.6,13.9,3.1z M5,18
			c-1.5-1.5-2.4-3.4-2.6-5.4c0,0,0.1-0.1,0.1-0.1c0,0,0.1,0,0.1-0.1c0.1-0.1,0.2-0.2,0.3-0.3c0.7-0.7,1.3-1,1.9-1
			c0.4,0,0.7,0.2,1,0.6C6,11.9,6,12,6.1,12.2c0.3,0.4,0.6,1,1.4,0.9c1-0.2,1-1.2,1-1.8c0-0.3,0-0.7,0.1-0.9C8.8,10,9.2,9.9,9.5,10
			c0.7,0,1.5,0.4,1.8,0.9c0.3,0.5,0.1,0.8-0.3,1.3c-0.4,0.5-0.9,1.3,0,2.2c0.2,0.2,0.4,0.3,0.6,0.4c0.4,0.2,0.6,0.3,0.6,0.6
			c0,0.2-0.2,0.3-0.4,0.6c-0.3,0.2-0.6,0.5-0.6,0.9c0,0.5,0.4,0.8,0.8,1.1c0,0,0.1,0.1,0.1,0.1c0.1,0.1,0.2,0.2,0.3,0.3
			c0.4,0.6,0.4,0.8,0.2,1.5c-0.1,0.2-0.1,0.4-0.2,0.7C9.6,20.9,7,19.9,5,18z M18,18c-1.3,1.3-3,2.2-4.9,2.5c0-0.1,0.1-0.2,0.1-0.4
			c0.3-0.8,0.3-1.3-0.3-2.1c-0.1-0.2-0.3-0.3-0.5-0.5c-0.2-0.2-0.6-0.4-0.6-0.6c0-0.1,0.2-0.3,0.3-0.4c0.3-0.3,0.7-0.6,0.6-1.1
			c0-0.6-0.5-0.9-0.9-1.2c-0.2-0.1-0.3-0.2-0.4-0.3c-0.4-0.5-0.3-0.7,0.1-1.3c0.3-0.5,0.8-1.2,0.3-2.1c-0.4-0.7-1.4-1.3-2.4-1.3
			c0,0,0,0,0,0C8.8,9.3,8.3,9.5,8,10c-0.2,0.3-0.2,0.8-0.2,1.2c0,0.8,0,1.1-0.4,1.1c-0.3,0.1-0.4-0.1-0.7-0.6
			c-0.1-0.1-0.2-0.3-0.3-0.4c-0.4-0.5-1-0.8-1.5-0.9c-0.7,0-1.5,0.3-2.4,1.2c0,0-0.1,0.1-0.1,0.1C2.2,9.3,3.2,6.8,5,5
			c2.2-2.2,5.2-3.1,8.2-2.5c0,0,0,0,0,0c0,0.1,0,0.1,0,0.2c0,0,0,0,0,0.1c0,0.1,0,0.2,0,0.3c-0.1,1-0.7,1.1-1.7,1.3
			c-0.4,0.1-0.7,0.2-1.1,0.3C9.2,5.1,8.6,5.6,8.6,6.1c0,0.4,0.2,0.8,0.8,1.1c0.7,0.4,1.4,0.4,2.1,0.4c0.9,0,1.6-0.1,2.2,0.9
			c0.1,0.2,0.2,0.5,0.3,0.8c0.2,0.7,0.4,1.4,1.1,1.8c0.1,0,0.1,0,0.2,0.1c0,0,0,0,0,0c0.1,0,0.1,0,0.2,0c0,0,0,0,0,0
			c0.1,0,0.1,0,0.2,0c0,0,0,0,0,0c0.1,0,0.2,0,0.3,0c0,0,0,0,0,0c0,0,0,0,0,0c0,0,0.1,0,0.1,0c0,0,0,0,0.1,0c0.1,0,0.1,0,0.2,0
			c0,0,0,0,0.1,0c0.1,0,0.1,0,0.2,0c0,0,0,0,0,0c0.1,0,0.1,0,0.2,0c0,0,0,0,0.1,0c0,0,0.1,0,0.1,0c0,0,0,0,0.1,0c0,0,0.1,0,0.1,0
			c0,0,0,0,0.1,0c0,0,0.1,0,0.1,0c0,0,0,0,0,0c0,0,0.1,0,0.1-0.1c0.7-0.4,0.9-0.9,1.1-1.3c0-0.1,0.1-0.2,0.1-0.3
			c0.1,0,0.3,0.1,0.7,0.4c0.1,0.1,0.3,0.2,0.4,0.3c0.1,0.1,0.2,0.2,0.4,0.3c0,0,0.1,0.1,0.1,0.1c0.1,0.1,0.1,0.1,0.2,0.1
			C20.9,13.4,19.9,16.1,18,18z"/>
		<path class="st9" d="M11.5,21.5c-2.7,0-5.2-1-7.1-2.9c-1.6-1.6-2.7-3.8-2.9-6.1c-0.3-3,0.8-5.9,2.9-8C6.9,2,10.3,1,13.6,1.7
			c1.9,0.4,3.6,1.3,4.9,2.7c1.6,1.6,2.6,3.8,2.9,6l0,0c0.3,3-0.7,6-2.9,8.1c-1.6,1.6-3.6,2.6-5.9,2.9C12.3,21.5,11.9,21.5,11.5,21.5
			z M11.5,1.7c-2.6,0-5,1-6.9,2.9c-2.1,2.1-3.1,4.9-2.8,7.8c0.2,2.2,1.2,4.4,2.8,6c1.8,1.8,4.3,2.9,6.9,2.9c0.4,0,0.8,0,1.2-0.1
			c2.2-0.3,4.2-1.2,5.7-2.8c2.1-2.1,3.1-5,2.8-7.9l0,0C21,8.3,20,6.2,18.4,4.6c-1.3-1.3-3-2.2-4.8-2.6C12.9,1.8,12.2,1.7,11.5,1.7z
			 M11.5,20.8c-2.5,0-4.8-1-6.6-2.7v0c0,0,0,0,0,0c-1.5-1.5-2.4-3.4-2.7-5.5l0-0.1l0.1,0c0,0,0.1,0,0.1-0.1l0.1-0.1
			c0.1-0.1,0.2-0.2,0.3-0.3c0.7-0.7,1.4-1,2-1c0.4,0,0.8,0.2,1.1,0.7c0.1,0.1,0.2,0.2,0.2,0.4c0.3,0.4,0.6,1,1.3,0.8
			c0.9-0.2,0.9-1.1,0.9-1.7c0-0.4,0-0.7,0.1-0.9C8.7,10,9,9.8,9.5,9.8c0.7,0,1.6,0.4,1.9,1c0.3,0.6,0,1-0.3,1.5
			c-0.4,0.5-0.8,1.2-0.1,2c0.2,0.2,0.4,0.3,0.6,0.4c0.3,0.2,0.6,0.4,0.7,0.7c0,0.2-0.2,0.4-0.5,0.7c-0.3,0.2-0.5,0.5-0.5,0.8
			c0,0.4,0.4,0.8,0.8,1.1l0.1,0.1c0.2,0.1,0.3,0.2,0.3,0.3c0.4,0.6,0.4,0.9,0.2,1.6c-0.1,0.2-0.1,0.4-0.2,0.7l0,0.1l-0.1,0
			C12.1,20.8,11.8,20.8,11.5,20.8z M2.5,12.7c0.3,2,1.2,3.8,2.6,5.2v0c1.9,1.9,4.5,2.8,7.2,2.6c0.1-0.2,0.1-0.4,0.2-0.6
			c0.2-0.7,0.2-0.9-0.2-1.4c0-0.1-0.2-0.2-0.3-0.2l-0.1-0.1c-0.4-0.3-0.9-0.7-0.9-1.2c0-0.5,0.3-0.8,0.6-1c0.2-0.2,0.4-0.4,0.4-0.5
			c0-0.2-0.2-0.3-0.5-0.5c-0.2-0.1-0.4-0.3-0.6-0.5c-0.9-1-0.4-1.8,0-2.4c0.4-0.6,0.5-0.8,0.3-1.2c-0.3-0.5-1-0.9-1.7-0.9
			c0,0,0,0,0,0c-0.4,0-0.6,0.1-0.8,0.4c-0.1,0.1-0.1,0.5-0.1,0.8c0,0.7,0,1.7-1.1,2c-0.9,0.2-1.3-0.5-1.6-0.9
			c-0.1-0.1-0.2-0.3-0.2-0.3c-0.3-0.4-0.6-0.6-1-0.6c-0.5,0-1.1,0.3-1.8,0.9c-0.1,0.1-0.2,0.2-0.3,0.3L2.5,12.7
			C2.5,12.6,2.5,12.7,2.5,12.7z M12.9,20.7l0.1-0.3c0-0.1,0.1-0.2,0.1-0.3c0.3-0.8,0.3-1.3-0.3-2c-0.1-0.2-0.3-0.3-0.5-0.5
			c-0.3-0.3-0.6-0.5-0.6-0.7c0-0.1,0.1-0.3,0.4-0.5c0.3-0.3,0.6-0.6,0.6-1c0-0.6-0.5-0.8-0.9-1.1c-0.2-0.1-0.4-0.2-0.5-0.3
			c-0.5-0.5-0.3-0.9,0.1-1.5c0.3-0.5,0.8-1.1,0.3-1.9c-0.4-0.7-1.4-1.2-2.3-1.2c-0.6,0-1.1,0.2-1.4,0.7c-0.2,0.3-0.2,0.8-0.2,1.2
			c0,0.8,0,1.2-0.5,1.3c-0.4,0.1-0.6-0.2-0.8-0.6c-0.1-0.1-0.2-0.3-0.3-0.4c-0.4-0.5-0.9-0.8-1.5-0.8c-0.7,0-1.5,0.3-2.3,1.1
			c0,0-0.1,0.1-0.1,0.1L2.2,12l0-0.3C2.1,9.2,3.1,6.7,4.9,4.9c2.2-2.2,5.3-3.1,8.3-2.6l0.1,0l0,0.1c0,0.1,0,0.1,0,0.2v0.1
			c0,0.1,0,0.2,0,0.3c-0.1,1-0.8,1.2-1.8,1.4c-0.4,0.1-0.7,0.1-1.1,0.3C9.3,5.2,8.8,5.6,8.7,6.1c0,0.4,0.2,0.7,0.7,1
			c0.7,0.4,1.4,0.4,2,0.4c0.9,0,1.7-0.1,2.3,0.9C13.9,8.7,14,9,14,9.3c0.2,0.7,0.3,1.4,1,1.7c0,0,0.1,0,0.2,0.1l0,0
			c0.1,0,0.1,0,0.2,0l0,0c0.1,0,0.1,0,0.2,0l0,0c0.1,0,0.2,0,0.3,0l0,0.1l0-0.1c0.1,0,0.1,0,0.2,0l0.1,0c0.1,0,0.1,0,0.2,0l0,0
			c0.1,0,0.1,0,0.2,0c0.1,0,0.1,0,0.2,0l0.1,0c0,0,0.1,0,0.1,0l0.2-0.1c0,0,0.1,0,0.1,0l0,0c0,0,0.1,0,0.1-0.1
			c0.7-0.4,0.9-0.9,1-1.3c0.1-0.1,0.1-0.3,0.1-0.3l0-0.1l0.1,0c0.1,0,0.4,0.2,0.8,0.5c0.1,0.1,0.3,0.2,0.4,0.3
			c0.1,0.1,0.2,0.2,0.4,0.3l0.2,0.1c0,0,0.1,0.1,0.1,0.1l0,0l0,0.1c0.2,2.7-0.7,5.4-2.7,7.4l0,0c-1.4,1.4-3.1,2.2-4.9,2.6L12.9,20.7
			z M9.5,9.1c1,0,2.1,0.6,2.5,1.4c0.5,0.9,0,1.7-0.3,2.2c-0.4,0.6-0.5,0.8-0.1,1.2c0.1,0.1,0.3,0.2,0.4,0.3c0.4,0.2,1,0.6,1,1.3
			c0,0.6-0.4,1-0.7,1.2c-0.1,0.1-0.3,0.3-0.3,0.3c0,0.1,0.4,0.4,0.5,0.5c0.2,0.2,0.4,0.3,0.6,0.5c0.6,0.8,0.6,1.4,0.3,2.2
			c0,0.1,0,0.1-0.1,0.2c1.7-0.3,3.3-1.2,4.6-2.5c1.9-1.9,2.8-4.5,2.6-7.1c0,0-0.1,0-0.1-0.1l-0.2-0.1c-0.1-0.1-0.3-0.2-0.4-0.3
			c-0.1-0.1-0.3-0.2-0.4-0.3c-0.3-0.2-0.5-0.3-0.6-0.4c0,0.1-0.1,0.1-0.1,0.2c-0.2,0.4-0.4,1-1.1,1.4c0,0-0.1,0-0.1,0.1l0,0
			c0,0-0.1,0-0.1,0l-0.2,0.1c-0.1,0-0.1,0-0.2,0l-0.1,0c-0.1,0-0.1,0-0.2,0c-0.1,0-0.2,0-0.2,0l-0.1,0c-0.1,0-0.1,0-0.2,0l-0.1,0
			c0,0-0.1,0-0.1,0l0,0c-0.1,0-0.2,0-0.3,0l0,0c-0.1,0-0.2,0-0.2,0l0,0c-0.1,0-0.2,0-0.2,0l0,0c-0.1,0-0.1,0-0.2-0.1
			c-0.8-0.4-0.9-1.2-1.1-1.9c-0.1-0.3-0.2-0.6-0.3-0.8c-0.5-0.9-1.2-0.8-2.1-0.8c-0.7,0-1.5,0-2.2-0.4C8.7,7,8.4,6.6,8.5,6.1
			C8.5,5.5,9.1,5,10.3,4.5c0.4-0.1,0.8-0.2,1.1-0.3C12.4,4,13,3.9,13.1,3c0-0.1,0-0.2,0-0.2v0c0-0.1,0-0.1,0-0.1
			c-2.9-0.5-5.9,0.4-8,2.5c-1.7,1.7-2.7,4-2.7,6.4c0.9-0.8,1.7-1.2,2.4-1.1c0.6,0,1.2,0.3,1.6,0.9c0.1,0.1,0.2,0.3,0.3,0.4
			c0.3,0.5,0.4,0.6,0.6,0.5c0.3-0.1,0.3-0.2,0.3-1c0-0.5,0-0.9,0.2-1.3C8.2,9.4,8.8,9.1,9.5,9.1z M16,10.7c-0.3,0-0.6,0-0.8-0.1
			c-0.5-0.2-0.6-0.8-0.7-1.4c-0.1-0.4-0.2-0.7-0.4-1C14.1,8.2,14,8.1,14,8l0,0c0-0.1-0.1-0.1-0.1-0.1l-0.1-0.1c0,0-0.1-0.1-0.1-0.1
			l-0.1-0.1c0,0-0.1-0.1-0.1-0.1l0,0c0,0-0.1-0.1-0.1-0.1c-0.1,0-0.1-0.1-0.2-0.1l0-0.1l-0.1,0.1c0,0-0.1,0-0.1-0.1l0,0
			c-0.1,0-0.1,0-0.1,0l0,0c-0.1,0-0.1,0-0.1,0l0,0c0,0-0.1,0-0.1,0c-0.1,0-0.1,0-0.2,0c-0.1,0-0.1,0-0.2,0l0-0.1l0,0.1l-0.1,0
			l-0.1-0.1v0.1l-0.1,0l0-0.1l0,0.1c-0.1,0-0.3,0-0.4,0c-0.6,0-1.2,0-1.8-0.3C9.4,6.6,9.1,6.4,9.2,6.2c0-0.3,0.6-0.7,1.4-1
			c0.3-0.1,0.7-0.2,1-0.3c1-0.2,2-0.4,2.2-1.8h0c0-0.1,0-0.2,0-0.2l0-0.1c0,0,0,0,0-0.1l0-0.2l0.2,0c1.6,0.4,3,1.3,4.1,2.4
			c1.3,1.3,2.2,3,2.5,4.8l0.1,0.3l-0.4-0.3c-0.1-0.1-0.3-0.2-0.4-0.3c-0.6-0.5-1-0.6-1.3-0.5c-0.3,0.1-0.4,0.3-0.5,0.6
			c-0.1,0.3-0.3,0.8-0.8,1C17.1,10.7,16.5,10.7,16,10.7z M11.9,6.8l0.3,0c0.1,0,0.1,0,0.2,0c0.1,0,0.1,0,0.2,0c0.1,0,0.1,0,0.2,0
			l0,0c0.1,0,0.1,0,0.1,0L13,7c0,0,0.1,0,0.1,0l0.1,0c0,0,0.1,0,0.1,0.1l0,0c0.1,0,0.1,0.1,0.2,0.1c0.1,0,0.1,0.1,0.2,0.1l0,0
			c0.1,0,0.1,0.1,0.1,0.1l0.1,0.1c0,0,0.1,0.1,0.1,0.1L14,7.7c0,0,0.1,0.1,0.1,0.1l0,0.1c0,0.1,0.1,0.1,0.1,0.2
			c0.2,0.3,0.3,0.7,0.4,1.1c0.1,0.6,0.3,1.1,0.6,1.2c0.3,0.2,1.6,0.1,1.9-0.1c0.4-0.2,0.6-0.6,0.7-0.9c0.1-0.3,0.3-0.7,0.7-0.8
			c0.4-0.1,0.8,0.1,1.5,0.6c0.1,0.1,0.2,0.1,0.3,0.2c-0.4-1.6-1.2-3.1-2.4-4.3c-1.1-1.1-2.4-1.9-3.9-2.3l0,0c0,0,0,0,0,0.1
			C14,3,14,3,14,3.1v0c-0.2,1.6-1.4,1.8-2.4,2c-0.3,0.1-0.7,0.1-1,0.3c-1,0.4-1.3,0.7-1.3,0.8c0,0,0.1,0.2,0.4,0.4
			c0.5,0.3,1,0.3,1.6,0.3C11.6,6.8,11.7,6.8,11.9,6.8L11.9,6.8z"/>
	</g>
	<path class="st3" d="M11.5,1.5c-5.5,0-10,4.5-10,10s4.5,10,10,10s10-4.5,10-10S17,1.5,11.5,1.5z M2.5,11.5c0-1.5,0.4-3,1.1-4.2
		c0.1,0.1,0.3,0.1,0.4,0.1c0.8,0.1,0.7,1.5,1.3,1.9c0.7,0.4,0.9,1,0.9,1s0.1,2.1,0.9,2.6c0.8,0.4,1.2,1.3,0.9,2.2
		c-0.3,0.9-0.3,2.1,0.3,2.9c0.6,0.8,2.2,0.7,1.9,0c-0.3-0.7-0.8-0.8-0.7-1.2c0.2-0.4,1.3-1.1,1.6-1.8c0.3-0.7,2-1.6,2.6-2.6
		s-1.3-1.6-2.3-1.5c-1,0.1-1.5-0.6-2.4-1.5S8,9.2,7.1,9.3C6.1,9.5,5.8,8.7,5.4,7.7s0.8-0.3,1.1-1.4C6.8,5.2,7.6,6,8.2,6.2
		c0.6,0.2,1,0.1,1.3-0.8s1.8-0.7,2-1.3c0.3-0.6-1.5,0.1-2.9-0.6C8.3,3.4,8.2,3.3,8.2,3.1c1-0.4,2.1-0.6,3.3-0.6
		c3.1,0,5.8,1.5,7.4,3.9c-0.1,0.3-0.3,0.4-0.5,0.4c-0.5-0.2-0.4,0.5-0.9,0.3c-0.5-0.2-1.6-0.1-1.9,0.7C15.2,8.6,15,9,15.7,9.7
		s0.8,1.1,0.8,1.5c0,0.5,0.4,0.6,1.1,0.5s1.3-0.3,1.3,0.3c0,0.6-0.6,0.7-0.1,1.2c0.5,0.5,1.1,1.1-0.2,1.5c-1.2,0.4-1.4,0.9-1.2,1.7
		c0.1,0.8-0.4,1.1,0.4,1.7c-1.6,1.5-3.8,2.5-6.2,2.5C6.5,20.5,2.5,16.5,2.5,11.5z"/>
</g>
<g id="Phone" class="st0">
	<g class="st1">
		<g>
			<path class="st2" d="M21,16.2l-2.8-2.8c-1-1-2.7-0.6-3.1,0.7c-0.3,0.9-1.3,1.4-2.2,1.2c-2-0.5-4.7-3.1-5.2-5.2
				C7.4,9.2,8,8.2,8.9,7.9c1.3-0.4,1.7-2.1,0.7-3.1L6.8,2C6,1.3,4.8,1.3,4.1,2L2.2,3.9c-1.9,2,0.2,7.3,4.9,12s10,6.9,12,4.9l1.9-1.9
				C21.7,18.1,21.7,16.9,21,16.2z"/>
		</g>
	</g>
</g>
<g id="Localisation" class="st0">
	<g class="st1">
		<g>
			<path class="st2" d="M11.5,1.5c-4,0-7.2,3.2-7.2,7.2c0,5,6.5,12.2,6.8,12.5c0.3,0.3,0.7,0.3,1,0c0.3-0.3,6.8-7.6,6.8-12.5
				C18.7,4.7,15.5,1.5,11.5,1.5z M11.5,12.4c-2,0-3.6-1.6-3.6-3.6s1.6-3.6,3.6-3.6s3.6,1.6,3.6,3.6S13.5,12.4,11.5,12.4z"/>
		</g>
	</g>
</g>
<g id="Stylo" class="st0">
	<path class="st3" d="M13.9,4.8l-11,11c-0.1,0.1-0.1,0.1-0.1,0.2L1.5,21c0,0.1,0,0.3,0.1,0.4c0.1,0.1,0.2,0.1,0.3,0.1
		c0,0,0.1,0,0.1,0l4.9-1.2c0.1,0,0.1-0.1,0.2-0.1l11-11L13.9,4.8z"/>
	<path class="st3" d="M20.9,3.3l-1.2-1.2c-0.8-0.8-2.2-0.8-3.1,0l-1.5,1.5l4.3,4.3l1.5-1.5c0.4-0.4,0.6-1,0.6-1.5S21.3,3.7,20.9,3.3
		z"/>
</g>
<g id="Aide" class="st0">
	<g transform="translate(0,-952.36218)" class="st1">
		<path class="st2" d="M11.5,953.9c-5.5,0-10,4.5-10,10s4.5,10,10,10s10-4.5,10-10S17,953.9,11.5,953.9z M11.5,955
			c4.9,0,8.9,4,8.9,8.9s-4,8.9-8.9,8.9s-8.9-4-8.9-8.9S6.6,955,11.5,955z M11.5,958.3c-1.8,0-3.3,1.5-3.3,3.3c0,0.3,0.2,0.6,0.5,0.6
			s0.6-0.2,0.6-0.5c0,0,0,0,0,0c0-1.2,1.1-2.2,2.2-2.2s2.2,1.1,2.2,2.2c0,1-0.5,1.4-1.2,2.1c-0.3,0.3-0.7,0.6-1,1s-0.6,0.9-0.6,1.6
			v0.4c0,0.3,0.2,0.6,0.5,0.6s0.6-0.2,0.6-0.5c0,0,0,0,0,0v-0.4c0-0.4,0.1-0.6,0.3-0.9c0.2-0.3,0.5-0.6,0.9-0.9
			c0.7-0.6,1.6-1.5,1.6-2.9c0,0,0,0,0,0C14.8,959.8,13.3,958.3,11.5,958.3z M11.5,968c-0.5,0-0.8,0.4-0.8,0.8c0,0.5,0.4,0.8,0.8,0.8
			s0.8-0.4,0.8-0.8C12.3,968.4,12,968,11.5,968z"/>
	</g>
</g>
<g id="CGU" class="st0">
	<g>
		<g class="st1">
			<path class="st2" d="M18,2.3C18,2.3,18,2.3,18,2.3l0,18.4c0,0,0,0,0,0H5c0,0,0,0,0,0V2.3c0,0,0,0,0,0H18 M18,1.7H5
				c-0.3,0-0.6,0.3-0.6,0.6v18.4c0,0.3,0.3,0.6,0.6,0.6H18c0.3,0,0.6-0.3,0.6-0.6V2.3C18.6,1.9,18.3,1.7,18,1.7L18,1.7z"/>
			<path class="st4" d="M18,21.5H5c-0.4,0-0.8-0.4-0.8-0.8V2.3c0-0.4,0.4-0.8,0.8-0.8H18c0.4,0,0.8,0.4,0.8,0.8v18.4
				C18.7,21.1,18.4,21.5,18,21.5z M5,1.8C4.8,1.8,4.6,2,4.6,2.3v18.4c0,0.2,0.2,0.4,0.4,0.4H18c0.2,0,0.4-0.2,0.4-0.4V2.3
				c0-0.2-0.2-0.4-0.4-0.4H5z M18,20.9H4.9l0-0.2V2.1l0.2,0h13.1l0,0.2v18.6L18,20.9z M5.2,20.6h12.6V2.4H5.2V20.6z"/>
		</g>
	</g>
	<g>
		<g class="st1">
			<path class="st2" d="M16.3,11.8h-5.1c-0.2,0-0.3-0.1-0.3-0.3s0.1-0.3,0.3-0.3h5.1c0.2,0,0.3,0.1,0.3,0.3S16.5,11.8,16.3,11.8z"/>
			<path class="st4" d="M16.3,12h-5.1c-0.3,0-0.5-0.2-0.5-0.5s0.2-0.5,0.5-0.5h5.1c0.3,0,0.5,0.2,0.5,0.5S16.6,12,16.3,12z
				 M11.2,11.4c-0.1,0-0.1,0.1-0.1,0.1s0.1,0.1,0.1,0.1h5.1c0.1,0,0.1-0.1,0.1-0.1s-0.1-0.1-0.1-0.1H11.2z"/>
		</g>
	</g>
	<g>
		<path class="st3" d="M7.9,11.5l0.8-0.8c0.1-0.1,0.1-0.3,0-0.4c-0.1-0.1-0.3-0.1-0.4,0l-0.8,0.8l-0.8-0.8c-0.1-0.1-0.3-0.1-0.4,0
			c-0.1,0.1-0.1,0.3,0,0.4l0.8,0.8l-0.8,0.8c-0.1,0.1-0.1,0.3,0,0.4c0.1,0.1,0.1,0.1,0.2,0.1c0.1,0,0.2,0,0.2-0.1l0.8-0.8l0.8,0.8
			c0.1,0.1,0.1,0.1,0.2,0.1s0.2,0,0.2-0.1c0.1-0.1,0.1-0.3,0-0.4L7.9,11.5z"/>
		<path class="st9" d="M8.6,13c-0.1,0-0.2,0-0.3-0.1l-0.7-0.7l-0.7,0.7c-0.2,0.2-0.5,0.2-0.7,0c-0.2-0.2-0.2-0.5,0-0.7l0.7-0.7
			l-0.7-0.7C6.1,10.7,6,10.6,6,10.5c0-0.1,0-0.2,0.1-0.3c0.2-0.2,0.5-0.2,0.7,0l0.7,0.7l0.7-0.7c0.2-0.2,0.5-0.2,0.7,0
			C9,10.2,9,10.3,9,10.5c0,0.1,0,0.2-0.1,0.3l-0.7,0.7l0.7,0.7c0.2,0.2,0.2,0.5,0,0.7C8.8,13,8.7,13,8.6,13z M7.5,11.7l0.9,0.9
			c0,0,0.1,0,0.2,0c0,0,0-0.1,0-0.2l-0.9-0.9l0.9-0.9c0,0,0-0.1,0-0.1c0,0,0-0.1,0-0.1c0,0-0.1,0-0.2,0l-0.9,0.9l-0.9-0.9
			c0,0-0.1,0-0.2,0c0,0,0,0.1,0,0.1c0,0,0,0.1,0,0.1l0.9,0.9l-0.9,0.9c0,0,0,0.1,0,0.2c0,0,0.1,0,0.2,0L7.5,11.7z"/>
	</g>
	<g>
		<g class="st1">
			<path class="st2" d="M16.3,7.4h-5.1c-0.2,0-0.3-0.1-0.3-0.3s0.1-0.3,0.3-0.3h5.1c0.2,0,0.3,0.1,0.3,0.3S16.5,7.4,16.3,7.4z"/>
			<path class="st4" d="M16.3,7.5h-5.1c-0.3,0-0.5-0.2-0.5-0.5c0-0.3,0.2-0.5,0.5-0.5h5.1c0.3,0,0.5,0.2,0.5,0.5
				C16.8,7.3,16.6,7.5,16.3,7.5z M11.2,7c-0.1,0-0.1,0.1-0.1,0.1c0,0.1,0.1,0.1,0.1,0.1h5.1c0.1,0,0.1-0.1,0.1-0.1
				C16.4,7,16.4,7,16.3,7H11.2z"/>
		</g>
	</g>
	<g>
		<g class="st1">
			<path class="st2" d="M7.2,8.4L6.3,7.5c-0.1-0.1-0.1-0.3,0-0.4C6.4,7,6.6,7,6.7,7.1l0.5,0.5l1.7-1.7c0.1-0.1,0.3-0.1,0.4,0
				c0.1,0.1,0.1,0.3,0,0.4L7.2,8.4z"/>
			<path class="st4" d="M7.2,8.7l-1-1C6.1,7.6,6,7.4,6,7.3c0-0.1,0-0.2,0.1-0.3c0.2-0.2,0.5-0.2,0.7,0l0.4,0.4l1.5-1.5
				c0.2-0.2,0.5-0.2,0.7,0C9.5,5.9,9.5,6,9.5,6.1c0,0.1,0,0.2-0.1,0.3L7.2,8.7z M6.5,7.2C6.5,7.2,6.4,7.2,6.5,7.2
				C6.4,7.3,6.4,7.3,6.4,7.3c0,0,0,0.1,0,0.1l0.8,0.8l2-2c0,0,0-0.1,0-0.1c0,0,0-0.1,0-0.1c0,0-0.1,0-0.2,0L7.2,7.8L6.5,7.2
				C6.6,7.2,6.5,7.2,6.5,7.2z"/>
		</g>
	</g>
	<g>
		<g class="st1">
			<path class="st2" d="M16.3,16.2h-5.1c-0.2,0-0.3-0.1-0.3-0.3c0-0.2,0.1-0.3,0.3-0.3h5.1c0.2,0,0.3,0.1,0.3,0.3
				C16.6,16.1,16.5,16.2,16.3,16.2z"/>
			<path class="st4" d="M16.3,16.4h-5.1c-0.3,0-0.5-0.2-0.5-0.5c0-0.3,0.2-0.5,0.5-0.5h5.1c0.3,0,0.5,0.2,0.5,0.5
				C16.8,16.2,16.6,16.4,16.3,16.4z M11.2,15.8c-0.1,0-0.1,0.1-0.1,0.1c0,0.1,0.1,0.1,0.1,0.1h5.1c0.1,0,0.1-0.1,0.1-0.1
				c0-0.1-0.1-0.1-0.1-0.1H11.2z"/>
		</g>
	</g>
	<g>
		<g class="st1">
			<path class="st2" d="M7.2,17.3l-0.9-0.9c-0.1-0.1-0.1-0.3,0-0.4c0.1-0.1,0.3-0.1,0.4,0l0.5,0.5l1.7-1.7c0.1-0.1,0.3-0.1,0.4,0
				c0.1,0.1,0.1,0.3,0,0.4L7.2,17.3z"/>
			<path class="st4" d="M7.2,17.5l-1-1C6.1,16.4,6,16.3,6,16.2c0-0.1,0-0.2,0.1-0.3c0.2-0.2,0.5-0.2,0.7,0l0.4,0.4l1.5-1.5
				c0.2-0.2,0.5-0.2,0.7,0c0.1,0.1,0.1,0.2,0.1,0.3s0,0.2-0.1,0.3L7.2,17.5z M6.5,16C6.5,16,6.4,16.1,6.5,16
				c-0.1,0.1-0.1,0.2-0.1,0.2L7.2,17l2-2c0,0,0-0.1,0-0.2c0,0-0.1,0-0.2,0l-1.8,1.8L6.5,16C6.6,16.1,6.5,16,6.5,16z"/>
		</g>
	</g>
	<g id="Calque_24" class="st1">
		<g>
			<g>
				<path class="st2" d="M10.9,1.7c-0.3-0.3-0.8-0.3-1.1,0L5,6.6L2.8,4.1C2.6,3.8,2.1,3.8,1.8,4C1.5,4.3,1.4,4.8,1.7,5.1l2.8,3.1
					c0,0,0.1,0,0.1,0.1l0.1,0.1c0.1,0,0.2,0,0.3,0c0.1,0,0.2,0,0.3-0.1l0.1-0.1c0.1,0,0.1-0.1,0.2-0.1l5.3-5.4
					c0.1-0.1,0.2-0.3,0.2-0.5C11.1,2.1,11,1.9,10.9,1.7z M20.7,6.1h-8.1c-0.4,0-0.8,0.3-0.8,0.8c0,0.4,0.3,0.8,0.8,0.8h8.1
					c0.4,0,0.8-0.3,0.8-0.8C21.5,6.5,21.2,6.1,20.7,6.1z M20.7,13H2.3c-0.4,0-0.8,0.3-0.8,0.8c0,0.4,0.3,0.8,0.8,0.8h18.5
					c0.4,0,0.8-0.3,0.8-0.8C21.5,13.4,21.2,13,20.7,13z M20.7,20H2.3c-0.4,0-0.8,0.3-0.8,0.8c0,0.4,0.3,0.8,0.8,0.8h18.5
					c0.4,0,0.8-0.3,0.8-0.8C21.5,20.3,21.2,20,20.7,20z"/>
			</g>
		</g>
	</g>
</g>
<g id="Politique_confid" class="st0">
	<g class="st1">
		<path class="st2" d="M16.1,7h-0.8V5.1c0-1.9-1.5-3.4-3.4-3.4h-0.7c-1.9,0-3.4,1.5-3.4,3.4V7H6.9C5.5,7,4.3,8.2,4.3,9.6v9.1
			c0,1.4,1.2,2.6,2.6,2.6h9.1c1.4,0,2.6-1.2,2.6-2.6V9.6C18.7,8.2,17.5,7,16.1,7z M8.6,5.1c0-1.4,1.1-2.5,2.5-2.5h0.7
			c1.4,0,2.5,1.1,2.5,2.5V7H8.6V5.1z M17.7,18.7c0,0.9-0.7,1.7-1.7,1.7H6.9c-0.9,0-1.7-0.7-1.7-1.7V9.6c0-0.9,0.7-1.7,1.7-1.7h9.1
			c0.9,0,1.7,0.7,1.7,1.7V18.7z M11.5,12c-1,0-1.8,0.8-1.8,1.8c0,0.9,0.6,1.6,1.4,1.8v1.6H12v-1.6c0.8-0.2,1.4-0.9,1.4-1.8
			C13.3,12.9,12.5,12,11.5,12z M11.5,14.8c-0.5,0-0.9-0.4-0.9-0.9c0-0.5,0.4-0.9,0.9-0.9s0.9,0.4,0.9,0.9
			C12.4,14.4,12,14.8,11.5,14.8z"/>
		<path class="st4" d="M16.1,21.5H6.9c-1.5,0-2.8-1.2-2.8-2.8V9.6c0-1.5,1.2-2.8,2.8-2.8h0.6V5.1c0-2,1.6-3.6,3.6-3.6h0.7
			c2,0,3.6,1.6,3.6,3.6v1.7h0.6c1.5,0,2.8,1.2,2.8,2.8v9.2C18.8,20.3,17.6,21.5,16.1,21.5z M6.9,7.2c-1.3,0-2.4,1.1-2.4,2.4v9.2
			c0,1.3,1.1,2.4,2.4,2.4h9.2c1.3,0,2.4-1.1,2.4-2.4V9.6c0-1.3-1.1-2.4-2.4-2.4h-1V5.1c0-1.8-1.5-3.3-3.3-3.3h-0.7
			c-1.8,0-3.3,1.5-3.3,3.3v2.1H6.9z M16.1,20.6H6.9c-1,0-1.8-0.8-1.8-1.8V9.6c0-1,0.8-1.8,1.8-1.8h9.1c1,0,1.8,0.8,1.8,1.8v9.2
			C17.9,19.7,17.1,20.6,16.1,20.6z M6.9,8.1c-0.8,0-1.5,0.7-1.5,1.5v9.2c0,0.8,0.7,1.5,1.5,1.5h9.1c0.8,0,1.5-0.7,1.5-1.5V9.6
			c0-0.8-0.7-1.5-1.5-1.5H6.9z M12.1,17.4h-1.3v-1.6c-0.8-0.3-1.4-1-1.4-1.9c0-1.1,0.9-2,2-2c1.1,0,2,0.9,2,2c0,0.9-0.6,1.6-1.4,1.9
			V17.4z M11.2,17.1h0.6v-1.6l0.1,0c0.7-0.2,1.2-0.9,1.2-1.6c0-0.9-0.7-1.7-1.7-1.7S9.8,13,9.8,13.9c0,0.8,0.5,1.4,1.2,1.6l0.1,0
			V17.1z M11.5,15c-0.6,0-1.1-0.5-1.1-1.1s0.5-1.1,1.1-1.1c0.6,0,1.1,0.5,1.1,1.1S12.1,15,11.5,15z M11.5,13.1
			c-0.4,0-0.7,0.3-0.7,0.7c0,0.4,0.3,0.7,0.7,0.7c0.4,0,0.7-0.3,0.7-0.7C12.2,13.5,11.9,13.1,11.5,13.1z M14.5,7.2H8.5V5.1
			c0-1.5,1.2-2.7,2.7-2.7h0.7c1.5,0,2.7,1.2,2.7,2.7V7.2z M8.8,6.8h5.4V5.1c0-1.3-1-2.3-2.3-2.3h-0.7c-1.3,0-2.3,1-2.3,2.3V6.8z"/>
	</g>
</g>
<g id="Contact" class="st0">
	<g class="st1">
		<path class="st2" d="M21.1,6c-0.1-0.3-0.3-0.5-0.6-0.7c-0.4-0.3-0.8-0.4-1.3-0.4H3.8c-0.5,0-0.9,0.2-1.3,0.4
			C2.3,5.5,2.1,5.8,1.9,6C1.8,6.3,1.7,6.7,1.7,7V16c0,0.4,0.1,0.8,0.3,1.1c0.2,0.3,0.4,0.5,0.6,0.6c0.3,0.2,0.8,0.4,1.2,0.4h15.4
			c0.4,0,0.9-0.1,1.2-0.4c0.2-0.2,0.4-0.4,0.6-0.6c0.2-0.3,0.3-0.7,0.3-1.1V7C21.3,6.7,21.2,6.3,21.1,6z M3.8,5.8h15.4
			c0.2,0,0.4,0,0.5,0.1L12,12c-0.1,0.1-0.3,0.2-0.5,0.2c-0.2,0-0.4-0.1-0.5-0.2l-7.7-6C3.4,5.9,3.6,5.8,3.8,5.8z M2.5,16V7.1
			c0-0.2,0-0.3,0.1-0.5l5.8,4.5l-5.8,5.4C2.6,16.3,2.5,16.1,2.5,16z M19.2,17.2H3.8c-0.2,0-0.4,0-0.5-0.1l5.9-5.5l1.3,1
			c0.3,0.2,0.7,0.4,1,0.4c0.4,0,0.7-0.1,1-0.4l1.3-1l5.9,5.5C19.6,17.2,19.4,17.2,19.2,17.2z M14.5,11.1l5.8-4.5
			c0.1,0.1,0.1,0.3,0.1,0.5V16c0,0.2,0,0.3-0.1,0.5L14.5,11.1z"/>
		<path class="st4" d="M19.2,18.2H3.8c-0.5,0-0.9-0.1-1.3-0.4c-0.3-0.2-0.5-0.4-0.6-0.7c-0.2-0.4-0.3-0.8-0.3-1.2V7
			c0-0.4,0.1-0.8,0.3-1.1c0.1-0.3,0.4-0.5,0.6-0.7c0.4-0.3,0.9-0.5,1.4-0.5h15.4c0.5,0,0.9,0.2,1.4,0.5c0.3,0.2,0.5,0.4,0.6,0.7l0,0
			c0.2,0.4,0.3,0.7,0.3,1.1V16c0,0.4-0.1,0.8-0.3,1.2c-0.2,0.3-0.4,0.5-0.7,0.7C20.1,18.1,19.7,18.2,19.2,18.2z M3.8,5.1
			C3.4,5.1,3,5.2,2.6,5.5C2.4,5.7,2.2,5.9,2.1,6.1C1.9,6.4,1.8,6.7,1.8,7V16c0,0.3,0.1,0.7,0.3,1c0.1,0.2,0.3,0.4,0.6,0.6
			c0.3,0.2,0.7,0.3,1.1,0.3h15.4c0.4,0,0.8-0.1,1.1-0.3c0.2-0.1,0.4-0.3,0.6-0.6c0.2-0.3,0.3-0.6,0.3-1V7c0-0.3-0.1-0.6-0.2-0.9
			c-0.1-0.2-0.3-0.4-0.5-0.6c-0.4-0.3-0.7-0.4-1.2-0.4H3.8z M19.2,17.4H3.8c-0.2,0-0.4,0-0.6-0.1l-0.2-0.1l6.2-5.7l1.4,1.1
			c0.6,0.4,1.4,0.4,1.9,0l1.4-1.1l0.1,0.1l6.1,5.6l-0.2,0.1C19.6,17.4,19.4,17.4,19.2,17.4z M3.6,17c0.1,0,0.1,0,0.2,0h15.4
			c0.1,0,0.1,0,0.2,0l-5.6-5.2l-1.2,0.9c-0.6,0.5-1.6,0.5-2.3,0l-1.2-0.9L3.6,17z M2.6,16.8l-0.1-0.2c-0.1-0.2-0.1-0.4-0.1-0.5V7.1
			c0-0.2,0-0.4,0.1-0.5l0.1-0.2l6.2,4.8L2.6,16.8z M2.7,6.9c0,0.1,0,0.1,0,0.2V16c0,0.1,0,0.1,0,0.2l5.5-5L2.7,6.9z M20.4,16.7
			l-6.2-5.7l6.2-4.8l0.1,0.2c0.1,0.2,0.1,0.4,0.1,0.5V16c0,0.2,0,0.4-0.1,0.5L20.4,16.7z M14.8,11.1l5.5,5c0-0.1,0-0.1,0-0.2V7
			c0-0.1,0-0.1,0-0.2L14.8,11.1z M11.5,12.3c-0.2,0-0.4-0.1-0.6-0.2L3,5.9l0.2-0.1c0.2-0.1,0.4-0.1,0.6-0.1h15.4
			c0.2,0,0.4,0,0.6,0.1l0.2,0.1l-8,6.2C12,12.2,11.7,12.3,11.5,12.3z M3.6,6l7.5,5.8c0.2,0.2,0.6,0.2,0.8,0L19.4,6
			c-0.1,0-0.1,0-0.2,0H3.8C3.7,6,3.7,6,3.6,6z"/>
	</g>
</g>
<g id="Note" class="st0">
	<g class="st1">
		<g>
			<g>
				<path class="st2" d="M21.5,9.2c0-0.1-0.1-0.2-0.2-0.3c-0.1-0.1-0.2-0.1-0.3-0.2l-2.2-0.3c-1.1-0.2-2.2-0.3-3.3-0.5l-0.7-0.1
					l-0.1-0.1c-0.2-0.3-0.3-0.7-0.5-1l-0.3-0.5c-0.5-1-1-2.1-1.4-3.1c-0.1-0.2-0.2-0.5-0.3-0.7C12,2.1,11.7,2,11.5,2
					c-0.3,0-0.5,0.2-0.6,0.3C10.6,3,10.3,3.6,10,4.3c-0.5,1-1,2.1-1.4,3.1c0,0.1-0.1,0.2-0.2,0.3L8.3,7.8l-0.1,0C7.6,7.9,7,8,6.4,8
					C5.2,8.2,4,8.4,2.8,8.5C2.5,8.6,2.3,8.6,2,8.7c-0.1,0-0.2,0.1-0.3,0.2C1.6,8.9,1.6,9,1.5,9.2c-0.1,0.2,0,0.5,0.2,0.7l1.6,1.6
					c0.8,0.8,1.7,1.7,2.5,2.5l0.3,0.3L5.9,15c-0.1,0.3-0.1,0.6-0.2,0.9c-0.1,0.6-0.3,1.2-0.4,1.8c-0.1,0.5-0.2,1-0.4,1.6
					c-0.1,0.3-0.1,0.5-0.2,0.8c-0.1,0.3,0,0.6,0.3,0.8C5.1,20.9,5.2,21,5.3,21c0.2,0,0.3,0,0.5-0.1c0.7-0.3,1.4-0.7,2.1-1l1.3-0.6
					c0.6-0.3,1.3-0.6,1.9-0.9c0,0,0.1,0,0.1-0.1l0.2-0.1l0.1,0.1c0.3,0.1,0.6,0.3,0.9,0.4c0.2,0.1,0.5,0.2,0.7,0.3l3.5,1.7
					c0.2,0.1,0.3,0.2,0.5,0.2c0.2,0.1,0.4,0.2,0.6,0.1l0.1,0c0,0,0.1,0,0.1,0c0,0,0.1-0.1,0.1-0.1c0.1-0.1,0.1-0.1,0.1-0.1
					c0,0,0-0.1,0.1-0.2c0-0.1,0-0.1,0-0.1c0-0.1,0-0.2,0-0.3c-0.1-0.6-0.3-1.2-0.4-1.8L17.8,18c-0.1-0.6-0.3-1.1-0.4-1.7
					c-0.1-0.6-0.3-1.1-0.4-1.7l-0.1-0.3l4.3-4.3C21.5,9.7,21.5,9.4,21.5,9.2z M18.8,10.3c-0.1,0.1-0.1,0.1-0.2,0.1l-0.2,0.2
					c-0.8,0.8-1.5,1.5-2.3,2.3L16,13.1c-0.1,0.1-0.2,0.2-0.4,0.4c-0.2,0.2-0.3,0.5-0.2,0.7l0.1,0.4c0.1,0.6,0.3,1.1,0.4,1.7
					c0.1,0.5,0.2,1,0.3,1.5l0,0.1c0,0.1,0.1,0.3,0.1,0.5l0.1,0.5l-0.5-0.2c0,0-0.1,0-0.1,0l-0.1,0c-0.6-0.3-1.1-0.5-1.7-0.8
					c-0.5-0.3-1.1-0.5-1.6-0.8c-0.2-0.1-0.4-0.2-0.6-0.3l-0.1-0.1c-0.2-0.1-0.2-0.1-0.4-0.1c-0.1,0-0.2,0-0.4,0.1l-1.1,0.5
					c-0.9,0.4-1.7,0.8-2.6,1.2c-0.1,0-0.2,0.1-0.3,0.1c-0.1,0-0.2,0.1-0.3,0.1L6.5,19l0.2-0.7c0.2-0.9,0.4-1.8,0.6-2.8l0.2-1
					c0-0.1,0.1-0.3,0.1-0.4c0-0.2,0-0.5-0.2-0.7c0,0,0,0-0.1-0.1l-0.1-0.1c-0.1-0.1-0.1-0.1-0.2-0.2L3.8,9.9l0.7-0.1
					c0.1,0,0.1,0,0.2,0c0.6-0.1,1.1-0.2,1.7-0.2C7,9.4,7.5,9.3,8.1,9.3l0.3,0c0.2,0,0.4-0.1,0.6-0.1c0.1,0,0.2-0.1,0.3-0.2
					c0.1-0.1,0.1-0.1,0.1-0.2c0.1-0.1,0.1-0.2,0.1-0.3l1.9-4l0.3,0.4c0,0.1,0.1,0.1,0.1,0.2c0.3,0.6,0.5,1.1,0.8,1.7
					c0.2,0.5,0.5,1,0.7,1.5l0.1,0.2c0.1,0.2,0.2,0.4,0.4,0.6c0.1,0.1,0.2,0.1,0.4,0.2l2,0.3c0.6,0.1,1.2,0.2,1.8,0.3l0.4,0.1
					c0.1,0,0.3,0,0.4,0.1l0.6,0.1L18.8,10.3z"/>
			</g>
		</g>
	</g>
</g>
<g id="Partage" class="st0">
	<g class="st1">
		<g>
			<path class="st2" d="M17,14c-1.3,0-2.4,0.7-3.1,1.7l-0.1,0.1l-4.5-2.6l0.1-0.2c0.3-0.5,0.4-1.1,0.4-1.7c0-0.3-0.1-0.7-0.2-1.1
				l0-0.1l4.6-2.6l0.1,0.1C15,8.5,15.9,9,17,9c2.1,0,3.7-1.7,3.7-3.7c0-2.1-1.7-3.7-3.7-3.7c-2.1,0-3.7,1.7-3.7,3.7
				c0,0.3,0.1,0.7,0.2,1.1l0,0.1L8.9,9.1L8.8,9C8,8.2,7.1,7.8,6,7.8c0,0,0,0,0,0c-1,0-1.9,0.4-2.6,1.1c-0.7,0.7-1.1,1.6-1.1,2.6
				c0,2.1,1.7,3.7,3.7,3.7c0.8,0,1.6-0.3,2.2-0.8l0.1-0.1l4.9,2.8l0,0.3c0,0.1,0,0.2,0,0.3c0,2.1,1.7,3.7,3.7,3.7
				c2.1,0,3.7-1.7,3.7-3.7C20.7,15.7,19,14,17,14z M17,2.7c1.4,0,2.5,1.1,2.5,2.5S18.4,7.8,17,7.8c-1.4,0-2.5-1.1-2.5-2.5
				C14.5,3.8,15.6,2.7,17,2.7z M8.2,12.7c-0.1,0.2-0.3,0.4-0.4,0.6c-0.1,0.1-0.2,0.2-0.4,0.3C7,13.9,6.5,14,6,14
				c-1.4,0-2.5-1.1-2.5-2.5S4.6,9,6,9c1.4,0,2.5,1.1,2.5,2.5C8.5,11.9,8.4,12.3,8.2,12.7z M17,20.3c-1.4,0-2.5-1.1-2.5-2.5
				c0-1.4,1.1-2.5,2.5-2.5c1.4,0,2.5,1.1,2.5,2.5C19.5,19.2,18.4,20.3,17,20.3z"/>
			<path class="st10" d="M7.8,13.3c0.2-0.2,0.3-0.4,0.4-0.6C8.1,12.9,8,13.1,7.8,13.3z M7.8,13.3c0.2-0.2,0.3-0.4,0.4-0.6
				C8.1,12.9,8,13.1,7.8,13.3z M7.8,13.3c0.2-0.2,0.3-0.4,0.4-0.6C8.1,12.9,8,13.1,7.8,13.3z"/>
		</g>
	</g>
</g>
<g id="A_propos" class="st0">
	<g class="st1">
		<path class="st2" d="M15,1.5H8c-1.1,0-2,0.9-2,2v15.9c0,1.1,0.9,2,2,2H15c1.1,0,2-0.9,2-2V3.5C17.1,2.4,16.1,1.5,15,1.5z M8,2.4
			H15c0.6,0,1.1,0.5,1.1,1.1v1.1H6.9V3.5C6.9,2.9,7.4,2.4,8,2.4z M16.1,16.4H6.9V5.6h9.3V16.4z M15,20.6H8c-0.6,0-1.1-0.5-1.1-1.1
			v-2.1h9.3v2.1C16.1,20.1,15.6,20.6,15,20.6z"/>
		<circle class="st2" cx="11.5" cy="19" r="0.9"/>
		<path class="st2" d="M10.8,4h1.4c0.3,0,0.5-0.2,0.5-0.5s-0.2-0.5-0.5-0.5h-1.4c-0.3,0-0.5,0.2-0.5,0.5S10.5,4,10.8,4z"/>
	</g>
</g>
<g id="Détails" class="st0">
	<g>
		<circle class="st3" cx="11.4" cy="11.6" r="2.3"/>
		<circle class="st3" cx="3.7" cy="11.6" r="2.3"/>
		<circle class="st3" cx="19.1" cy="11.6" r="2.3"/>
	</g>
	<g id="Calque_30" class="st1">
		<path class="st2" d="M7.8,4.6C8.4,4.6,9,5.2,9,5.9v3.8c0,0.7-0.6,1.2-1.3,1.3H4c-0.7,0-1.2-0.6-1.3-1.3V5.9c0-0.7,0.6-1.2,1.3-1.3
			H7.8 M7.8,3.4H4c-1.4,0-2.5,1.1-2.5,2.5v3.8c0,1.4,1.1,2.5,2.5,2.5h3.8c1.4,0,2.5-1.1,2.5-2.5V5.9C10.3,4.5,9.1,3.4,7.8,3.4z
			 M21.5,4c0-0.3-0.3-0.6-0.6-0.6c0,0,0,0,0,0h-7.5c-0.3,0-0.6,0.3-0.6,0.6s0.3,0.6,0.6,0.6h7.5C21.2,4.6,21.5,4.3,21.5,4
			C21.5,4,21.5,4,21.5,4z M21.5,7.8c0-0.3-0.3-0.6-0.6-0.6c0,0,0,0,0,0h-7.5c-0.3,0-0.6,0.3-0.6,0.6s0.3,0.6,0.6,0.6h7.5
			C21.2,8.4,21.5,8.1,21.5,7.8C21.5,7.8,21.5,7.8,21.5,7.8z M21.5,11.5c0-0.3-0.3-0.6-0.6-0.6c0,0,0,0,0,0h-7.5
			c-0.3,0-0.6,0.3-0.6,0.6s0.3,0.6,0.6,0.6h7.5C21.2,12.1,21.5,11.8,21.5,11.5C21.5,11.5,21.5,11.5,21.5,11.5z M21.5,15.3
			c0-0.3-0.3-0.6-0.6-0.6c0,0,0,0,0,0H2.1c-0.3,0-0.6,0.3-0.6,0.6s0.3,0.6,0.6,0.6h18.8C21.2,15.9,21.5,15.6,21.5,15.3
			C21.5,15.3,21.5,15.3,21.5,15.3z M21.5,19c0-0.3-0.3-0.6-0.6-0.6c0,0,0,0,0,0H2.1c-0.3,0-0.6,0.3-0.6,0.6c0,0.3,0.3,0.6,0.6,0.6
			h18.8C21.2,19.6,21.5,19.3,21.5,19C21.5,19,21.5,19,21.5,19z"/>
	</g>
</g>
<g id="Euro" class="st0">
	<g class="st1">
		<g>
			<path class="st2" d="M20.7,18.3c0,0.2-0.1,0.4-0.2,0.6c-1.6,1.7-3.7,2.6-5.8,2.6c-3.6,0-6.9-2.7-8.2-6.6l-0.1-0.2H3.1
				c-0.5,0-0.8-0.4-0.8-0.8c0-0.5,0.4-0.8,0.8-0.8h3l0-0.4C6,12.2,6,11.9,6,11.5c0-0.4,0-0.8,0.1-1.3l0-0.4h-3
				C2.7,9.9,2.3,9.5,2.3,9s0.4-0.8,0.8-0.8h3.3L6.5,8c1.3-3.9,4.5-6.5,8.1-6.5c2.2,0,4.2,0.9,5.8,2.6c0.3,0.3,0.3,0.8,0,1.2
				c-0.3,0.3-0.8,0.3-1.2,0c-1.3-1.4-2.9-2.1-4.7-2.1c-2.7,0-5.1,1.8-6.3,4.6L8.2,8.2H16c0.4,0,0.8,0.4,0.8,0.8S16.4,9.9,16,9.9H7.8
				l0,0.3c-0.1,0.4-0.1,0.9-0.1,1.3c0,0.4,0,0.8,0.1,1.2l0,0.3H16c0.4,0,0.8,0.4,0.8,0.8c0,0.4-0.4,0.8-0.8,0.8H8.1l0.2,0.5
				c1.2,2.9,3.7,4.8,6.3,4.8c1.7,0,3.4-0.7,4.7-2.1c0.1-0.2,0.4-0.2,0.6-0.3c0.2,0,0.4,0.1,0.6,0.2C20.6,17.9,20.7,18.1,20.7,18.3z"
				/>
		</g>
	</g>
</g>
<g id="Soleil" class="st0">
	<path class="st3" d="M11.5-2.4C3.8-2.4-2.4,3.8-2.4,11.5s6.2,13.9,13.9,13.9s13.9-6.2,13.9-13.9C25.4,3.8,19.2-2.4,11.5-2.4z
		 M11.5,23.2C5,23.2-0.2,18-0.2,11.5S5-0.2,11.5-0.2S23.2,5,23.2,11.5C23.2,18,18,23.2,11.5,23.2z"/>
	<path class="st3" d="M12.6-7v-5.4c0-0.6-0.5-1.1-1.1-1.1s-1.1,0.5-1.1,1.1V-7c0,0.6,0.5,1.1,1.1,1.1S12.6-6.4,12.6-7z"/>
	<path class="st3" d="M11.5,28.9c-0.6,0-1.1,0.5-1.1,1.1v5.4c0,0.6,0.5,1.1,1.1,1.1s1.1-0.5,1.1-1.1V30
		C12.6,29.4,12.1,28.9,11.5,28.9z"/>
	<path class="st3" d="M35.4,10.4H30c-0.6,0-1.1,0.5-1.1,1.1s0.5,1.1,1.1,1.1h5.4c0.6,0,1.1-0.5,1.1-1.1S36,10.4,35.4,10.4z"/>
	<path class="st3" d="M-5.9,11.5c0-0.6-0.5-1.1-1.1-1.1h-5.4c-0.6,0-1.1,0.5-1.1,1.1s0.5,1.1,1.1,1.1H-7
		C-6.4,12.6-5.9,12.1-5.9,11.5z"/>
	<path class="st3" d="M25.4-0.9l3.8-3.8c0.4-0.4,0.4-1.1,0-1.5c-0.4-0.4-1.1-0.4-1.5,0l-3.8,3.8c-0.3,0.3-0.4,0.7-0.3,1
		C23.7-1,24-0.7,24.3-0.6C24.7-0.5,25.1-0.6,25.4-0.9z"/>
	<path class="st3" d="M-2.4,23.9l-3.8,3.8c-0.3,0.3-0.4,0.7-0.3,1s0.4,0.7,0.8,0.8c0.4,0.1,0.8,0,1-0.3l3.8-3.8
		c0.3-0.3,0.4-0.7,0.3-1C-0.7,24-1,23.7-1.3,23.6C-1.7,23.5-2.1,23.6-2.4,23.9z"/>
	<path class="st3" d="M25.4,23.9c-0.3-0.3-0.7-0.4-1-0.3c-0.4,0.1-0.7,0.4-0.8,0.8c-0.1,0.4,0,0.8,0.3,1l3.8,3.8
		c0.4,0.4,1.1,0.4,1.5,0c0.4-0.4,0.4-1.1,0-1.5L25.4,23.9z"/>
	<path class="st3" d="M-2.4-0.9c0.3,0.3,0.7,0.4,1,0.3C-1-0.7-0.7-1-0.6-1.3c0.1-0.4,0-0.8-0.3-1l-3.8-3.8c-0.4-0.4-1.1-0.4-1.5,0
		c-0.4,0.4-0.4,1.1,0,1.5L-2.4-0.9z"/>
</g>
<g id="Galerie_d_x27_images" class="st0">
	<g class="st1">
		<path class="st2" d="M20.8,6.5H2v15.1h18.8V6.5z M19.8,7.5v5.6L13.2,17l-5.1-4.4L3,16.3V7.5H19.8z M3,20.6v-3.1l5.1-3.7l5,4.4
			l6.7-3.9v6.3H3z"/>
		<path class="st2" d="M13.1,13.6c1.2,0,2.2-1,2.2-2.2c0-1.2-1-2.2-2.2-2.2s-2.2,1-2.2,2.2S11.9,13.6,13.1,13.6L13.1,13.6z
			 M13.1,10.2c0.7,0,1.2,0.5,1.2,1.2s-0.5,1.2-1.2,1.2s-1.2-0.5-1.2-1.2S12.5,10.2,13.1,10.2L13.1,10.2z"/>
		<rect x="3.2" y="4.1" class="st2" width="16.3" height="1"/>
		<rect x="4.5" y="1.6" class="st2" width="13.9" height="1"/>
	</g>
</g>
<g id="Photo" class="st0">
	<path class="st3" d="M19.1,6.2h-2.6l-0.3-1c-0.3-1-1.2-1.7-2.2-1.7H8.7c-1,0-2,0.7-2.2,1.7l-0.2,1H3.7c-1.3,0-2.3,1-2.3,2.3v9.1
		c0,1.3,1,2.3,2.3,2.3h15.5c1.3,0,2.3-1,2.3-2.3V8.4C21.4,7.2,20.4,6.2,19.1,6.2z M20.5,17.5c0,0.8-0.6,1.4-1.4,1.4H3.7
		c-0.8,0-1.4-0.6-1.4-1.4V8.4c0-0.8,0.6-1.4,1.4-1.4h3c0.2,0,0.4-0.1,0.5-0.4l0.3-1.4c0.1-0.6,0.7-1,1.3-1h5.4c0.6,0,1.2,0.4,1.3,1
		l0.3,1.4c0,0.2,0.2,0.4,0.5,0.4h3c0.8,0,1.4,0.6,1.4,1.4V17.5z M11.4,8c-2.5,0-4.5,2-4.5,4.5s2,4.5,4.5,4.5s4.5-2,4.5-4.5
		S13.9,8,11.4,8z M11.4,16.2c-2,0-3.6-1.6-3.6-3.6s1.6-3.6,3.6-3.6s3.6,1.6,3.6,3.6S13.4,16.2,11.4,16.2z M5,8.9
		c0,0.5-0.4,0.9-0.9,0.9S3.2,9.4,3.2,8.9S3.6,8,4.1,8S5,8.4,5,8.9z"/>
</g>
<g id="Supprimer" class="st0">
	<g class="st1">
		<g>
			<g>
				<path class="st2" d="M18.5,7l-0.5,12.7c0,1-0.9,1.7-1.8,1.7H6.9c-1,0-1.8-0.8-1.8-1.7L4.5,7c0-0.2,0-0.3,0.2-0.4
					C4.8,6.5,5,6.4,5.1,6.4c0,0,0,0,0,0c0.3,0,0.6,0.3,0.6,0.6l0.5,12.7c0,0.3,0.3,0.6,0.6,0.6h9.3c0.3,0,0.6-0.3,0.6-0.6L17.3,7
					c0-0.2,0.1-0.3,0.2-0.4c0.1-0.1,0.3-0.2,0.4-0.2c0.2,0,0.3,0.1,0.4,0.2C18.4,6.7,18.5,6.9,18.5,7z"/>
			</g>
			<g>
				<path class="st2" d="M12,8.2V18c0,0.2-0.2,0.5-0.5,0.5S11,18.3,11,18V8.2c0-0.2,0.2-0.4,0.5-0.4S12,7.9,12,8.2z"/>
			</g>
			<g>
				<path class="st2" d="M9.1,18c0,0.1,0,0.2-0.1,0.3c-0.1,0.1-0.2,0.1-0.3,0.1h0c-0.2,0-0.4-0.2-0.4-0.4L7.9,8.2
					c0-0.1,0-0.2,0.1-0.3c0.1-0.1,0.2-0.1,0.3-0.1h0c0.1,0,0.2,0,0.3,0.1C8.7,7.9,8.8,8,8.8,8.2L9.1,18z"/>
			</g>
			<g>
				<path class="st2" d="M15.1,8.2L14.8,18c0,0.2-0.2,0.4-0.4,0.4v0.1l0-0.1c-0.1,0-0.2-0.1-0.3-0.1c-0.1-0.1-0.1-0.2-0.1-0.3
					l0.3-9.8c0-0.2,0.2-0.4,0.5-0.4c0,0,0,0,0,0C14.9,7.7,15.1,7.9,15.1,8.2z"/>
			</g>
			<g>
				<path class="st2" d="M18.7,4H15l0.1,0l0-0.1h-0.1l0-0.1l-0.2-0.8c-0.2-0.8-1-1.4-1.9-1.4h-2.6c-0.8,0-1.6,0.6-1.9,1.4L8.1,3.7
					l0,0.1H7.9l0,0.1L8,4H4.3C3.9,4,3.7,4.2,3.7,4.6c0,0.3,0.3,0.6,0.6,0.6h14.5c0.3,0,0.6-0.3,0.6-0.6C19.3,4.2,19.1,4,18.7,4z
					 M9.3,4l0-0.1l0-0.1l0.1-0.5C9.6,3,9.9,2.7,10.2,2.7h2.6c0.3,0,0.6,0.3,0.7,0.5l0.1,0.5l0,0.1l0,0.1H9.3z"/>
				<polygon class="st2" points="8,4 7.8,4 7.8,3.8 7.9,3.8 7.9,3.9 				"/>
				<polygon class="st2" points="9.6,3.8 9.5,4 9.3,4 9.3,3.8 				"/>
				<polygon class="st2" points="13.7,4 13.5,4 13.4,3.8 13.7,3.8 				"/>
				<polygon class="st2" points="15,4 15.1,3.9 15.1,3.8 15.2,3.8 15.2,4 				"/>
				<path class="st10" d="M9.4,3.8l0,0.1h0.1l0-0.1H9.4z M13.7,3.8h-0.1l0-0.1h-0.1l0,0.1l0,0.1h0.3L13.7,3.8z M9.4,3.8l0,0.1h0.1
					l0-0.1H9.4z M13.7,3.8h-0.1l0-0.1h-0.1l0,0.1l0,0.1h0.3L13.7,3.8z M9.4,3.7l0,0.1l0,0.1h0.3l0-0.1l0-0.1H9.4z M8.1,3.8l0-0.1
					H7.8l0,0.1l0,0.1H8l-0.1,0l0-0.1H8.1z M13.7,3.8l0-0.1h-0.3l0,0.1l0,0.1h0.3L13.7,3.8z M15.2,4l0-0.1l0-0.1h-0.3l0,0.1h0.1
					l0,0.1L15,4H15.2z M9.4,3.8l0,0.1h0.1l0-0.1H9.4z M13.7,3.8h-0.1l0-0.1h-0.1l0,0.1l0,0.1h0.3L13.7,3.8z M9.4,3.8l0,0.1h0.1
					l0-0.1H9.4z M13.7,3.8h-0.1l0-0.1h-0.1l0,0.1l0,0.1h0.3L13.7,3.8z"/>
			</g>
			<g>
				<polygon class="st2" points="8.1,3.7 8.1,3.8 7.9,3.8 8,3.7 				"/>
				<polygon class="st2" points="9.5,3.7 9.4,3.8 9.4,4 9.3,4 9.3,3.8 9.4,3.7 				"/>
				<polygon class="st2" points="13.7,4 13.6,4 13.6,3.8 13.5,3.7 13.7,3.7 13.7,3.8 				"/>
				<polygon class="st2" points="15.1,3.8 14.9,3.8 14.9,3.7 15,3.7 				"/>
				<path class="st10" d="M9.4,3.7l0,0.1l0,0.1h0.1l0-0.1h0.1l0-0.1H9.4z M13.7,3.7h-0.1l0,0.1h0.1L13.7,3.7z M9.4,3.7l0,0.1l0,0.1
					h0.1l0-0.1h0.1l0-0.1H9.4z M13.7,3.7h-0.1l0,0.1h0.1L13.7,3.7z M13.7,3.8l0-0.1h-0.3l0,0.1l0,0.1h0.3L13.7,3.8z M15.2,4l0-0.1
					l0-0.1h-0.3l0,0.1h0.1l0,0.1L15,4H15.2z M8.1,3.8l0-0.1H7.8l0,0.1l0,0.1H8l-0.1,0l0-0.1H8.1z M9.4,3.7l0,0.1l0,0.1h0.3l0-0.1
					l0-0.1H9.4z M13.7,3.7h-0.1l0,0.1h0.1L13.7,3.7z M9.4,3.7l0,0.1l0,0.1h0.1l0-0.1h0.1l0-0.1H9.4z M13.7,3.7h-0.1l0,0.1h0.1
					L13.7,3.7z M9.4,3.7l0,0.1l0,0.1h0.1l0-0.1h0.1l0-0.1H9.4z M13.7,3.7h-0.1l0,0.1h0.1L13.7,3.7z"/>
			</g>
		</g>
	</g>
</g>
<g id="Supprimé" class="st0">
	<g>
		<path class="st3" d="M17,9.7l-0.5,10.4c0,0.8-0.7,1.4-1.6,1.4H7c-0.8,0-1.5-0.6-1.6-1.4L5,9.7c0-0.1,0-0.3,0.1-0.4
			c0.1-0.1,0.2-0.1,0.4-0.2c0,0,0,0,0,0C5.8,9.2,6,9.4,6,9.7L6.5,20c0,0.3,0.3,0.5,0.5,0.5h8c0.3,0,0.5-0.2,0.5-0.5L16,9.7
			c0-0.1,0.1-0.3,0.2-0.3c0.1-0.1,0.2-0.1,0.4-0.1c0.1,0,0.3,0.1,0.4,0.2C17,9.5,17,9.6,17,9.7z"/>
	</g>
	<g>
		<path class="st3" d="M11.4,10.6v8c0,0.2-0.2,0.4-0.4,0.4s-0.4-0.2-0.4-0.4v-8c0-0.2,0.2-0.4,0.4-0.4S11.4,10.4,11.4,10.6z"/>
	</g>
	<g>
		<path class="st3" d="M8.9,18.6c0,0.1,0,0.2-0.1,0.3C8.7,19,8.6,19,8.5,19h0c-0.2,0-0.4-0.2-0.4-0.4l-0.3-8c0-0.1,0-0.2,0.1-0.3
			c0.1-0.1,0.2-0.1,0.3-0.1h0c0.1,0,0.2,0,0.3,0.1c0.1,0.1,0.1,0.2,0.1,0.3L8.9,18.6z"/>
	</g>
	<g>
		<path class="st3" d="M14.1,10.7l-0.3,8c0,0.2-0.2,0.4-0.4,0.4v0.1l0-0.1c-0.1,0-0.2,0-0.3-0.1c-0.1-0.1-0.1-0.2-0.1-0.3l0.3-8
			c0-0.2,0.2-0.4,0.4-0.4c0,0,0,0,0,0C14,10.3,14.2,10.5,14.1,10.7z"/>
	</g>
	<g>
		<path class="st3" d="M17.7,6.2l-3-1.2l0.1,0l0-0.1l-0.1,0l0-0.1l0.1-0.7c0.1-0.7-0.3-1.4-1-1.6l-2.1-0.8c-0.7-0.3-1.5-0.1-2,0.5
			L9.3,2.6L9.3,2.7l-0.1,0L9.1,2.7l0.1,0.1l-3-1.2c-0.3-0.1-0.6,0-0.7,0.3c-0.1,0.3,0,0.5,0.3,0.6l11.5,4.6c0.3,0.1,0.6,0,0.7-0.3
			C18.1,6.6,18,6.3,17.7,6.2z M10.2,3.2L10.2,3.2L10.3,3l0.3-0.3c0.2-0.2,0.5-0.3,0.7-0.2l2.1,0.8c0.2,0.1,0.4,0.4,0.4,0.6l0,0.4
			l0,0.1l0,0.1L10.2,3.2z"/>
		<polygon class="st3" points="9.2,2.8 9,2.7 9,2.6 9.2,2.7 9.1,2.7 		"/>
		<polygon class="st3" points="10.5,3.2 10.4,3.3 10.2,3.2 10.2,3.1 		"/>
		<polygon class="st3" points="13.7,4.6 13.5,4.5 13.5,4.4 13.7,4.5 		"/>
		<polygon class="st3" points="14.7,5 14.8,5 14.8,4.9 14.9,5 14.9,5.1 		"/>
		<path class="st11" d="M10.4,3.1L10.4,3.1l0,0.1l0.1-0.1L10.4,3.1z M13.7,4.5l-0.1,0l0-0.1l-0.1,0l0,0.1l0,0.1l0.2,0.1L13.7,4.5z
			 M10.4,3.1L10.4,3.1l0,0.1l0.1-0.1L10.4,3.1z M13.7,4.5l-0.1,0l0-0.1l-0.1,0l0,0.1l0,0.1l0.2,0.1L13.7,4.5z M10.3,3L10.3,3
			l-0.1,0.2l0.2,0.1l0.1-0.1l0.1-0.1L10.3,3z M9.3,2.7L9.3,2.7L9.1,2.5L9,2.6L9,2.7L9.3,2.7l-0.2,0L9.3,2.7L9.3,2.7z M13.7,4.5
			l0-0.1l-0.2-0.1l0,0.1l0,0.1l0.2,0.1L13.7,4.5z M14.9,5.1l0-0.1l0-0.1l-0.2-0.1l0,0.1l0.1,0l0,0.1l-0.1,0L14.9,5.1z M10.4,3.1
			L10.4,3.1l0,0.1l0.1-0.1L10.4,3.1z M13.7,4.5l-0.1,0l0-0.1l-0.1,0l0,0.1l0,0.1l0.2,0.1L13.7,4.5z M10.4,3.1L10.4,3.1l0,0.1
			l0.1-0.1L10.4,3.1z M13.7,4.5l-0.1,0l0-0.1l-0.1,0l0,0.1l0,0.1l0.2,0.1L13.7,4.5z"/>
	</g>
	<g>
		<polygon class="st3" points="9.3,2.6 9.3,2.7 9.2,2.7 9.2,2.6 		"/>
		<polygon class="st3" points="10.4,3 10.4,3.1 10.3,3.2 10.2,3.2 10.2,3.1 10.3,3 		"/>
		<polygon class="st3" points="13.7,4.6 13.6,4.5 13.6,4.4 13.6,4.3 13.7,4.4 13.7,4.5 		"/>
		<polygon class="st3" points="14.8,4.9 14.7,4.9 14.7,4.8 14.8,4.8 		"/>
		<path class="st11" d="M10.3,3L10.3,3l-0.1,0.2l0.1,0l0.1-0.1l0.1,0l0.1-0.1L10.3,3z M13.7,4.4l-0.1,0l0,0.1l0.1,0L13.7,4.4z
			 M10.3,3L10.3,3l-0.1,0.2l0.1,0l0.1-0.1l0.1,0l0.1-0.1L10.3,3z M13.7,4.4l-0.1,0l0,0.1l0.1,0L13.7,4.4z M13.7,4.5l0-0.1l-0.2-0.1
			l0,0.1l0,0.1l0.2,0.1L13.7,4.5z M14.9,5.1l0-0.1l0-0.1l-0.2-0.1l0,0.1l0.1,0l0,0.1l-0.1,0L14.9,5.1z M9.3,2.7L9.3,2.7L9.1,2.5
			L9,2.6L9,2.7L9.3,2.7l-0.2,0L9.3,2.7L9.3,2.7z M10.3,3L10.3,3l-0.1,0.2l0.2,0.1l0.1-0.1l0.1-0.1L10.3,3z M13.7,4.4l-0.1,0l0,0.1
			l0.1,0L13.7,4.4z M10.3,3L10.3,3l-0.1,0.2l0.1,0l0.1-0.1l0.1,0l0.1-0.1L10.3,3z M13.7,4.4l-0.1,0l0,0.1l0.1,0L13.7,4.4z M10.3,3
			L10.3,3l-0.1,0.2l0.1,0l0.1-0.1l0.1,0l0.1-0.1L10.3,3z M13.7,4.4l-0.1,0l0,0.1l0.1,0L13.7,4.4z"/>
	</g>
	<g class="st1">
		<path class="st2" d="M17.2,7.9l-0.4,10.2c0,0.8-0.7,1.4-1.5,1.4H7.8c-0.8,0-1.4-0.6-1.5-1.4L5.9,7.9c0-0.1,0-0.3,0.1-0.4
			c0.1-0.1,0.2-0.1,0.3-0.2c0,0,0,0,0,0c0.3,0,0.5,0.2,0.5,0.5l0.4,10.2c0,0.3,0.2,0.5,0.5,0.5h7.5c0.3,0,0.5-0.2,0.5-0.5l0.4-10.2
			c0-0.1,0.1-0.3,0.2-0.3c0.1-0.1,0.2-0.1,0.3-0.1c0.1,0,0.2,0.1,0.3,0.2C17.2,7.6,17.2,7.7,17.2,7.9z"/>
	</g>
	<g class="st1">
		<path class="st2" d="M11.9,8.8v7.9c0,0.2-0.2,0.4-0.4,0.4s-0.4-0.2-0.4-0.4V8.8c0-0.2,0.2-0.4,0.4-0.4S11.9,8.6,11.9,8.8z"/>
	</g>
	<g class="st1">
		<path class="st2" d="M9.6,16.7c0,0.1,0,0.2-0.1,0.3C9.4,17,9.3,17,9.2,17.1h0c-0.2,0-0.4-0.2-0.4-0.4L8.6,8.8c0-0.1,0-0.2,0.1-0.3
			c0.1-0.1,0.2-0.1,0.3-0.1h0c0.1,0,0.2,0,0.2,0.1c0.1,0.1,0.1,0.2,0.1,0.3L9.6,16.7z"/>
	</g>
	<g class="st1">
		<path class="st2" d="M14.5,8.8l-0.2,7.9c0,0.2-0.2,0.4-0.4,0.4v0.1l0-0.1c-0.1,0-0.2,0-0.3-0.1c-0.1-0.1-0.1-0.2-0.1-0.3l0.2-7.9
			c0-0.2,0.2-0.4,0.4-0.4c0,0,0,0,0,0C14.3,8.4,14.5,8.6,14.5,8.8z"/>
	</g>
	<g class="st1">
		<path class="st2" d="M17.5,5.5h-3.1l0.1,0l0-0.1h-0.1l0-0.1l-0.2-0.7c-0.2-0.7-0.9-1.2-1.5-1.2h-2.2C9.7,3.5,9.1,4,8.9,4.7
			L8.7,5.3l0,0.1H8.5l0,0.1l0.1,0H5.5C5.2,5.5,5,5.7,5,6c0,0.3,0.2,0.5,0.5,0.5h12C17.8,6.5,18,6.3,18,6C18,5.7,17.8,5.5,17.5,5.5z
			 M9.7,5.5L9.7,5.5l0.1-0.2l0.1-0.4c0.1-0.2,0.3-0.4,0.6-0.4h2.2c0.2,0,0.5,0.2,0.6,0.4l0.1,0.4l0,0.1l0,0.1H9.7z"/>
		<polygon class="st2" points="8.6,5.5 8.4,5.5 8.4,5.4 8.5,5.4 8.5,5.5 		"/>
		<polygon class="st2" points="9.9,5.4 9.9,5.5 9.7,5.5 9.7,5.4 		"/>
		<polygon class="st2" points="13.3,5.5 13.1,5.5 13.1,5.4 13.3,5.4 		"/>
		<polygon class="st2" points="14.4,5.5 14.5,5.5 14.5,5.4 14.6,5.4 14.6,5.5 		"/>
		<path class="st10" d="M9.8,5.4L9.8,5.4L9.8,5.4h0.1H9.8z M13.3,5.4h-0.1l0-0.1h-0.1l0,0.1l0,0.1L13.3,5.4L13.3,5.4z M9.8,5.4
			L9.8,5.4L9.8,5.4h0.1H9.8z M13.3,5.4h-0.1l0-0.1h-0.1l0,0.1l0,0.1L13.3,5.4L13.3,5.4z M9.7,5.3l0,0.1l0,0.1h0.2l0-0.1l0-0.1H9.7z
			 M8.6,5.4l0-0.1H8.5l0,0.1l0,0.1L8.6,5.4L8.5,5.5l0-0.1H8.6z M13.3,5.4l0-0.1h-0.2l0,0.1l0,0.1L13.3,5.4L13.3,5.4z M14.6,5.5
			L14.6,5.5l-0.1-0.2h-0.2l0,0.1h0.1l0,0.1l-0.1,0H14.6z M9.8,5.4L9.8,5.4L9.8,5.4h0.1H9.8z M13.3,5.4h-0.1l0-0.1h-0.1l0,0.1l0,0.1
			L13.3,5.4L13.3,5.4z M9.8,5.4L9.8,5.4L9.8,5.4h0.1H9.8z M13.3,5.4h-0.1l0-0.1h-0.1l0,0.1l0,0.1L13.3,5.4L13.3,5.4z"/>
	</g>
	<g class="st1">
		<polygon class="st2" points="8.7,5.3 8.6,5.4 8.5,5.4 8.6,5.3 		"/>
		<polygon class="st2" points="9.8,5.3 9.8,5.4 9.8,5.5 9.7,5.5 9.7,5.4 9.7,5.3 		"/>
		<polygon class="st2" points="13.3,5.5 13.2,5.5 13.2,5.4 13.2,5.3 13.3,5.3 13.3,5.4 		"/>
		<polygon class="st2" points="14.5,5.4 14.4,5.4 14.3,5.3 14.4,5.3 		"/>
		<path class="st10" d="M9.7,5.3l0,0.1l0,0.1h0.1l0-0.1h0.1l0-0.1H9.7z M13.3,5.3h-0.1l0,0.1h0.1L13.3,5.3z M9.7,5.3l0,0.1l0,0.1
			h0.1l0-0.1h0.1l0-0.1H9.7z M13.3,5.3h-0.1l0,0.1h0.1L13.3,5.3z M13.3,5.4l0-0.1h-0.2l0,0.1l0,0.1L13.3,5.4L13.3,5.4z M14.6,5.5
			L14.6,5.5l-0.1-0.2h-0.2l0,0.1h0.1l0,0.1l-0.1,0H14.6z M8.6,5.4l0-0.1H8.5l0,0.1l0,0.1L8.6,5.4L8.5,5.5l0-0.1H8.6z M9.7,5.3l0,0.1
			l0,0.1h0.2l0-0.1l0-0.1H9.7z M13.3,5.3h-0.1l0,0.1h0.1L13.3,5.3z M9.7,5.3l0,0.1l0,0.1h0.1l0-0.1h0.1l0-0.1H9.7z M13.3,5.3h-0.1
			l0,0.1h0.1L13.3,5.3z M9.7,5.3l0,0.1l0,0.1h0.1l0-0.1h0.1l0-0.1H9.7z M13.3,5.3h-0.1l0,0.1h0.1L13.3,5.3z"/>
	</g>
</g>
<g id="Bonhommes" class="st0">
	<g id="_x35__x2F_5_1_" class="st1">
		<path class="st2" d="M16.9,15.5c-3,3-7.8,3-10.8,0c-1.9-1.9-4.6,0.8-2.7,2.7c4.5,4.5,11.7,4.4,16.1,0
			C21.5,16.3,18.8,13.6,16.9,15.5z"/>
		<path class="st2" d="M6.7,8.1V3.3c0-2.5-3.8-2.5-3.8,0v4.8C2.9,10.7,6.7,10.7,6.7,8.1z"/>
		<path class="st2" d="M20.1,8.1V3.3c0-2.5-3.8-2.5-3.8,0v4.8C16.3,10.7,20.1,10.7,20.1,8.1z"/>
	</g>
	<g id="_x34__x2F_5">
		<path class="st3" d="M5.9,9.3V3.8c0-2.9-4.4-2.9-4.4,0v5.5C1.5,12.3,5.9,12.3,5.9,9.3z"/>
		<path class="st3" d="M21.5,9.3V3.8c0-2.9-4.4-2.9-4.4,0v5.5C17.1,12.3,21.5,12.3,21.5,9.3z"/>
		<path class="st3" d="M20.2,19.3c-0.1-1-1-1.8-2-1.7c0,0-0.1,0-0.1,0c-6.9,0.6-12.3-3.2-12.3-3.2c-0.3-0.2-0.8-0.4-1.2-0.3
			c-0.5,0-1,0.3-1.3,0.8c-0.6,0.8-0.4,2,0.4,2.6c0.3,0.2,6.5,4.6,14.8,3.9c0.1,0,0.1,0,0.2,0C19.6,21.1,20.3,20.2,20.2,19.3z"/>
	</g>
	<g id="_x33__x2F_5">
		<path class="st3" d="M5.9,9.2V3.7c0-2.9-4.4-2.9-4.4,0v5.5C1.5,12.2,5.9,12.2,5.9,9.2z"/>
		<g class="st1">
			<path class="st2" d="M4.3,21.4l5.5,0c2.9,0,2.9-4.4,0-4.4l-5.5,0C1.3,17,1.3,21.4,4.3,21.4z"/>
			<path class="st2" d="M10.3,21.4l5.5,0c2.9,0,2.9-4.4,0-4.4l-5.5,0C7.3,17,7.3,21.4,10.3,21.4z"/>
			<path class="st2" d="M13.4,21.4l5.5,0c2.9,0,2.9-4.4,0-4.4l-5.5,0C10.5,17,10.5,21.4,13.4,21.4z"/>
		</g>
		<path class="st3" d="M21.5,9.2V3.7c0-2.9-4.4-2.9-4.4,0v5.5C17.1,12.2,21.5,12.2,21.5,9.2z"/>
	</g>
	<g id="_x32__x2F_5">
		<path class="st3" d="M5.9,9.3V3.8c0-2.9-4.4-2.9-4.4,0v5.5C1.5,12.3,5.9,12.3,5.9,9.3z"/>
		<path class="st3" d="M21.5,9.3V3.8c0-2.9-4.4-2.9-4.4,0v5.5C17.1,12.3,21.5,12.3,21.5,9.3z"/>
		<path class="st3" d="M18.6,14.1c-0.1,0-0.1,0-0.2,0C10.1,13.4,3.9,17.8,3.6,18c-0.8,0.6-1,1.8-0.4,2.6C3.5,21,4,21.3,4.5,21.3
			c0.4,0,0.9-0.1,1.2-0.3c0.1,0,5.4-3.8,12.3-3.2c0.1,0,0.1,0,0.1,0c1,0.1,1.9-0.7,2-1.7C20.3,15.2,19.6,14.3,18.6,14.1z"/>
	</g>
	<g id="_x31__x2F_5">
		<path class="st3" d="M6.1,20.9c3-3,7.8-3,10.8,0c1.9,1.9,4.6-0.8,2.7-2.7c-4.5-4.5-11.7-4.4-16.1,0C1.5,20,4.2,22.7,6.1,20.9z"/>
		<path class="st3" d="M6.7,8.1V3.3c0-2.5-3.8-2.5-3.8,0v4.8C2.9,10.7,6.7,10.7,6.7,8.1z"/>
		<path class="st3" d="M20.1,8.1V3.3c0-2.5-3.8-2.5-3.8,0v4.8C16.3,10.7,20.1,10.7,20.1,8.1z"/>
	</g>
</g>
<g id="Vérifier" class="st0">
	<g class="st1">
		<path class="st12" d="M11.5,1.5c5.5,0,10,4.5,10,10s-4.5,10-10,10s-10-4.5-10-10S6,1.5,11.5,1.5L11.5,1.5z M5.3,11.8
			c-1-1,0.5-2.5,1.5-1.5l3.4,3.4l5.9-6.5c0.9-1,2.5,0.4,1.6,1.4l-6.6,7.3c-0.4,0.5-1.1,0.5-1.6,0.1L5.3,11.8L5.3,11.8z"/>
	</g>
</g>
<g id="Fermer" class="st0">
	<g id="fermer" transform="translate(-21.958 -21.958)" class="st1">
		<path id="Tracé_18" class="st4" d="M44.5,22.4c-0.6-0.6-1.7-0.6-2.3,0l-8.7,8.7l-8.7-8.7c-0.6-0.6-1.7-0.6-2.3,0s-0.6,1.7,0,2.3
			l8.7,8.7l-8.7,8.7c-0.6,0.6-0.6,1.7,0,2.3s1.7,0.6,2.3,0l8.7-8.7l8.7,8.7c0.6,0.6,1.7,0.6,2.3,0s0.6-1.7,0-2.3l0,0l-8.7-8.7
			l8.7-8.7C45.1,24.1,45.1,23.1,44.5,22.4z"/>
	</g>
</g>
<g id="Menu_drawer">
	<g id="Groupe_750" transform="translate(-18.7 -22.1)">
		<path id="Tracé_15" class="st13" d="M40.3,23.1H20.2c-0.8,0-1.5,0.7-1.5,1.5c0,0.8,0.7,1.5,1.5,1.5h20.1c0.8,0,1.4-0.7,1.4-1.5
			C41.7,23.8,41.1,23.1,40.3,23.1C40.3,23.1,40.3,23.1,40.3,23.1z"/>
		<path id="Tracé_16" class="st13" d="M20.2,35.1h15.8c0.8,0,1.5-0.7,1.5-1.5c0-0.8-0.7-1.5-1.5-1.5c0,0,0,0,0,0H20.2
			c-0.8,0-1.5,0.7-1.5,1.5C18.7,34.4,19.4,35.1,20.2,35.1C20.2,35.1,20.2,35.1,20.2,35.1z"/>
		<path id="Tracé_17" class="st13" d="M40.3,41.2H20.2c-0.8,0-1.5,0.7-1.5,1.5c0,0.8,0.7,1.5,1.5,1.5h20.1c0.8,0,1.4-0.7,1.4-1.5
			C41.7,41.8,41.1,41.2,40.3,41.2C40.3,41.2,40.3,41.2,40.3,41.2z"/>
	</g>
</g>
</svg>
